<svg width="48" height="32" viewBox="0 0 48 32" fill="none" xmlns="http://www.w3.org/2000/svg">
<path d="M23 4.57735C23.6188 4.22008 24.3812 4.22008 25 4.57735L33.3923 9.42265C34.0111 9.77992 34.3923 10.4402 34.3923 11.1547V20.8453C34.3923 21.5598 34.0111 22.2201 33.3923 22.5774L25 27.4226C24.3812 27.7799 23.6188 27.7799 23 27.4226L14.6077 22.5774C13.9889 22.2201 13.6077 21.5598 13.6077 20.8453V11.1547C13.6077 10.4402 13.9889 9.77992 14.6077 9.42265L23 4.57735Z" fill="black" stroke="#00BF4C" stroke-width="2"/>
<path d="M28.1463 18.6667C29.2227 16.8194 28.9755 13.25 28.9755 13.25C28.9755 13.25 27.444 13.0705 26.4878 12.8333C25.4935 12.5868 24 12 24 12C24 12 22.5065 12.5868 21.5122 12.8333C20.556 13.0705 19.0245 13.25 19.0245 13.25C19.0245 13.25 18.7773 16.8194 19.8537 18.6667C20.9013 20.4643 23.1701 22 24 22C24.8299 22 27.0988 20.4643 28.1463 18.6667Z" fill="#00BF4C"/>
<rect x="28.5" y="18.5" width="17" height="11" rx="1.5" fill="#00BF4C" stroke="black"/>
<path d="M33.2414 22.16V23.432H34.9214C35.1348 23.432 35.2414 23.3253 35.2414 23.112V22.48C35.2414 22.2667 35.1348 22.16 34.9214 22.16H33.2414ZM33.2414 24.632V26.096H35.0014C35.2148 26.096 35.3214 25.9893 35.3214 25.776V24.952C35.3214 24.7387 35.2148 24.632 35.0014 24.632H33.2414ZM31.6254 27.336V20.92H35.2734C36.3294 20.92 36.8574 21.3947 36.8574 22.344V22.896C36.8574 23.392 36.6601 23.7787 36.2654 24.056C36.2761 24.0667 36.2894 24.0773 36.3054 24.088C36.7268 24.4507 36.9374 24.864 36.9374 25.328V25.912C36.9374 26.8613 36.4094 27.336 35.3534 27.336H31.6254ZM39.2971 26.016H42.4731V27.336H37.6411V20.92H42.4731V22.24H39.2971V23.384H42.3931V24.664H39.2971V26.016Z" fill="black"/>
</svg>
