<svg width="32" height="32" viewBox="0 0 32 32" fill="none" xmlns="http://www.w3.org/2000/svg">
<path d="M23.5 22.6617C23.5 22.8662 23.3755 23.05 23.1857 23.1259L16.1857 25.9259C16.0665 25.9736 15.9335 25.9736 15.8143 25.9259L8.8143 23.1259C8.62448 23.05 8.5 22.8662 8.5 22.6617V21.6939C8.5 21.3527 8.83435 21.1117 9.15811 21.2196L15.8419 23.4475C15.9445 23.4817 16.0555 23.4817 16.1581 23.4475L22.8419 21.2196C23.1657 21.1117 23.5 21.3527 23.5 21.6939V22.6617Z" fill="white"/>
<path d="M22.7364 18.9918C22.8758 19.2608 22.746 19.5909 22.4607 19.6928L16.1682 21.9402C16.0594 21.979 15.9406 21.979 15.8318 21.9402L9.53933 19.6928C9.25403 19.5909 9.12417 19.2608 9.26362 18.9918L15.5561 6.85627C15.7427 6.49648 16.2573 6.49648 16.4439 6.85627L22.7364 18.9918Z" fill="white"/>
<path d="M8.50586 22.737C8.53223 22.9103 8.6483 23.0592 8.81445 23.1257L15.8145 25.926C15.9188 25.9677 16.0337 25.9729 16.1406 25.9416L16.1855 25.926L23.1855 23.1257C23.3517 23.0592 23.4678 22.9103 23.4941 22.737L23.5 22.6618V21.694C23.5 21.3528 23.1656 21.1115 22.8418 21.2194L16.1582 23.4475C16.0556 23.4817 15.9444 23.4817 15.8418 23.4475L9.1582 21.2194C8.83444 21.1115 8.5 21.3528 8.5 21.694V22.6618L8.50586 22.737ZM16.4438 6.85616C16.2573 6.49648 15.7427 6.49648 15.5562 6.85616L9.26367 18.9919C9.12427 19.2608 9.25427 19.5907 9.53955 19.6926L15.832 21.9401C15.9407 21.9789 16.0593 21.9789 16.168 21.9401L22.4604 19.6926C22.728 19.597 22.859 19.301 22.7593 19.0427L22.7363 18.9919L16.4438 6.85616ZM25 22.6618C24.9999 23.4796 24.5019 24.215 23.7427 24.5188L16.7427 27.3186C16.2659 27.5093 15.7341 27.5093 15.2573 27.3186L8.25732 24.5188C7.49805 24.215 7.00006 23.4796 7 22.6618V21.694C7 20.9885 7.3578 20.3907 7.88184 20.0368C7.64393 19.5033 7.63812 18.8685 7.93213 18.3015L14.2246 6.16573L14.2983 6.03487C15.0983 4.72806 17.0525 4.7717 17.7754 6.16573L24.0679 18.3015C24.3619 18.8685 24.3561 19.5033 24.1182 20.0368C24.6422 20.3907 25 20.9885 25 21.694V22.6618Z" fill="#6975A0"/>
</svg>
