<svg width="32" height="32" viewBox="0 0 32 32" fill="none" xmlns="http://www.w3.org/2000/svg">
<path d="M23.5 21.5001C23.5 21.7762 23.2761 22.0001 23 22.0001H22.2676C22.1004 22.0001 21.9443 22.0836 21.8516 22.2227L20.1484 24.7774C20.0557 24.9165 19.8996 25.0001 19.7324 25.0001H12.2676C12.1004 25.0001 11.9443 24.9165 11.8516 24.7774L10.1484 22.2227C10.0557 22.0836 9.89958 22.0001 9.73241 22.0001H9C8.72386 22.0001 8.5 21.7762 8.5 21.5001V20.5001C8.5 20.2239 8.72386 20.0001 9 20.0001H23C23.2761 20.0001 23.5 20.2239 23.5 20.5001V21.5001Z" fill="white"/>
<path d="M22 18.0001C22 18.2762 21.7761 18.5001 21.5 18.5001H10.5C10.2239 18.5001 10 18.2762 10 18.0001V15.0001C10 14.7239 10.2239 14.5001 10.5 14.5001H21.5C21.7761 14.5001 22 14.7239 22 15.0001V18.0001Z" fill="white"/>
<path d="M21.7236 9.86187C21.893 9.94656 22 10.1197 22 10.3091V12.5001C22 12.7762 21.7761 13.0001 21.5 13.0001H10.5C10.2239 13.0001 10 12.7762 10 12.5001V10.3091C10 10.1197 10.107 9.94656 10.2764 9.86187L15.7764 7.11187C15.9172 7.04149 16.0828 7.04149 16.2236 7.11187L21.7236 9.86187Z" fill="white"/>
<path d="M8.5 21.5C8.5 21.7588 8.69667 21.9719 8.94873 21.9976L9 22H9.73242C9.89959 22 10.0557 22.0836 10.1484 22.2226L11.8516 24.7773C11.9443 24.9164 12.1004 25 12.2676 25H19.7324L19.7944 24.9961C19.9172 24.9807 20.03 24.9203 20.1108 24.8267L20.1484 24.7773L21.8516 22.2226C21.9443 22.0836 22.1004 22 22.2676 22H23L23.0513 21.9976C23.3033 21.9719 23.5 21.7588 23.5 21.5V20.5C23.5 20.2412 23.3033 20.0281 23.0513 20.0024L23 20H9C8.72386 20 8.5 20.2238 8.5 20.5V21.5ZM21.5 13V14.5H10.5V13H21.5ZM22 10.3091C22 10.1434 21.9181 9.98992 21.7842 9.89745L21.7236 9.86181L16.2236 7.11181C16.0829 7.04143 15.9171 7.04143 15.7764 7.11181L10.2764 9.86181C10.107 9.94651 10 10.1197 10 10.3091V12.5C10 12.7761 10.2239 13 10.5 13V14.5C10.2239 14.5 10 14.7238 10 15V18C10 18.2761 10.2239 18.5 10.5 18.5H21.5L21.5513 18.4976C21.8033 18.4719 22 18.2588 22 18V15C22 14.7412 21.8033 14.5281 21.5513 14.5024L21.5 14.5V13L21.5513 12.9976C21.7865 12.9736 21.9736 12.7865 21.9976 12.5513L22 12.5V10.3091ZM23.5 12.5C23.5 12.9731 23.3352 13.4075 23.0605 13.75C23.3352 14.0925 23.5 14.5268 23.5 15V18C23.5 18.1892 23.4729 18.372 23.4238 18.5454C24.3248 18.7398 25 19.5409 25 20.5V21.5C25 22.6046 24.1046 23.5 23 23.5H22.8027L21.3965 25.6094C21.0256 26.1658 20.4011 26.5 19.7324 26.5H12.2676C11.5989 26.5 10.9744 26.1658 10.6035 25.6094L9.19727 23.5H9C7.89543 23.5 7 22.6046 7 21.5V20.5C7 19.541 7.67496 18.74 8.57568 18.5454C8.52663 18.372 8.5 18.1891 8.5 18V15C8.5 14.5269 8.66441 14.0924 8.93896 13.75C8.66441 13.4076 8.5 12.973 8.5 12.5V10.3091C8.5 9.55154 8.92792 8.8588 9.60547 8.52001L15.1055 5.77001L15.2124 5.72069C15.7152 5.50521 16.2848 5.50521 16.7876 5.72069L16.8945 5.77001L22.3945 8.52001C23.0721 8.8588 23.5 9.55154 23.5 10.3091V12.5Z" fill="#6975A0"/>
</svg>
