# Blender 5.0.1
# www.blender.org
mtllib gas_01.mtl
o gas_planet4_cloud
v 0.065676 1.018079 -0.051673
v 0.056990 -0.583028 0.806621
v 0.037069 -0.895747 0.441517
v 0.651965 -0.543449 -0.553525
v 0.902042 -0.342137 -0.371290
v 0.917495 0.053753 -0.335624
v 0.493249 0.250487 0.839986
v -0.963196 -0.178398 0.274115
v -0.862457 -0.455514 0.218108
v -0.448708 -0.220908 0.857865
v -0.520420 0.340739 0.777539
v -0.988062 -0.104895 -0.100371
v -0.947670 0.261213 -0.233798
v -0.774193 0.430631 -0.479886
v -0.144991 -0.124358 -0.973187
v 0.077308 0.129421 -1.030000
v 0.038562 0.401450 -0.904057
v 0.314238 0.840819 0.459529
v 0.323369 0.925178 -0.188869
v -0.295837 0.954151 0.106937
v -0.343635 0.890780 0.337211
v -0.623874 0.578231 0.534835
v -0.230156 0.920982 -0.244798
v -0.462260 0.785957 -0.345922
v 0.064909 0.973521 -0.224671
v -0.060012 0.692320 -0.747825
v 0.129335 0.852772 -0.524852
v 0.523004 0.788157 -0.271195
v 0.827694 0.558631 -0.190327
v 0.298411 0.589232 -0.739557
v 0.552747 0.652920 -0.498264
v -0.276718 0.800155 -0.524800
v -0.576242 0.613033 -0.580299
v -0.517934 0.485223 -0.681102
v -0.589386 0.791816 -0.088932
v -0.677876 0.660254 0.230473
v -0.766446 0.562327 -0.283255
v -0.836481 0.572203 0.043166
v 0.110095 1.015677 0.179025
v 0.048523 0.913712 0.340058
v -0.078894 0.827258 0.567661
v 0.246889 0.711603 0.670335
v -0.343897 0.594053 0.759874
v -0.075604 0.583200 0.778534
v 0.389199 0.900119 0.163349
v 0.631811 0.778605 -0.025274
v 0.732869 0.625801 0.273357
v 0.607403 0.651356 0.577621
v 0.862993 0.444413 -0.000243
v 0.414514 0.427649 0.805559
v 0.861714 0.347367 -0.273987
v 0.820217 0.193537 -0.548928
v 0.668591 0.496709 -0.608310
v 0.817728 -0.098563 -0.542505
v 0.528357 0.268102 -0.790693
v 0.675988 -0.258766 -0.669143
v 0.277125 0.347862 -0.898970
v -0.360431 0.270728 -0.908164
v -0.538636 -0.111143 -0.870064
v -0.796633 0.046820 -0.649262
v -0.822169 0.217224 -0.573703
v -0.960195 0.249408 0.094178
v -0.867820 0.367050 0.416431
v -0.935352 0.075989 0.351147
v -0.291948 0.355978 0.932255
v -0.324407 -0.070110 0.939062
v 0.146811 0.482261 0.841410
v -0.086178 0.179446 0.973344
v -0.156273 -0.357998 0.890863
v 0.042741 -0.128272 0.979432
v 0.218592 0.241319 0.923274
v 0.664479 0.071371 0.763820
v 0.806460 0.352604 0.486047
v 0.818557 -0.127264 0.584436
v 0.956149 0.111277 0.269014
v 0.914575 0.314599 0.209128
v 0.909764 -0.127327 0.391786
v 0.544866 0.034956 -0.835230
v 0.302435 0.117234 -0.888653
v 0.248178 -0.165153 -0.925975
v 0.524120 -0.279373 -0.850712
v -0.052985 -0.441076 -0.901467
v 0.237256 -0.476310 -0.855547
v -0.308727 -0.332413 -0.854479
v -0.941161 -0.032917 -0.301772
v -0.951218 -0.304897 -0.187057
v -0.656365 -0.368649 -0.630932
v -0.499033 -0.510101 -0.718746
v -0.765068 0.149646 0.572834
v -0.673205 -0.038413 0.776517
v -0.711412 -0.272820 0.627533
v -0.512369 -0.424416 0.801779
v -0.753773 -0.478391 0.452334
v -0.378156 -0.543222 0.741825
v 0.399959 0.005057 0.926248
v 0.369439 -0.221307 0.878325
v 0.186282 -0.401262 0.904023
v 0.629505 -0.327711 0.676404
v 0.702034 -0.451415 0.519689
v 0.988620 0.213290 -0.122648
v 0.943695 -0.190961 0.152054
v 1.016563 -0.108587 -0.110704
v 0.873821 -0.482626 -0.114442
v 0.820077 -0.455639 0.323987
v 0.788533 -0.597993 0.128429
v 0.432086 -0.473157 -0.692615
v 0.324403 -0.754927 -0.614888
v 0.104042 -0.737222 -0.651202
v 0.137631 -0.960283 -0.321320
v -0.144253 -0.823432 -0.470041
v -0.060165 -0.986757 -0.102246
v -0.260297 -0.570720 -0.797162
v -0.427295 -0.771055 -0.468531
v -0.785121 -0.578229 -0.288577
v -0.276847 -0.948294 -0.204424
v -0.556093 -0.822449 -0.048377
v -0.291453 -0.931551 0.068374
v -0.894462 -0.490698 0.000389
v -0.671220 -0.754619 0.267744
v -0.420109 -0.685213 0.532390
v -0.251173 -0.945832 0.341568
v -0.006309 -1.002164 0.138287
v 0.491517 -0.794135 -0.362568
v 0.641719 -0.752297 -0.114745
v 0.189744 -1.008565 -0.062174
v 0.598857 -0.701253 0.395188
v 0.394946 -0.862417 0.221279
v 0.064572 -0.798333 0.679895
v 0.438332 -0.565811 0.692769
v 0.331292 -0.814215 0.446375
vn -0.0795 -0.9958 -0.0460
vn 0.1384 0.5373 -0.8320
vn 0.8002 0.5680 0.1927
vn 0.3407 0.9402 0.0032
vn 0.2109 0.9464 -0.2447
vn 0.5015 0.8443 -0.1891
vn 0.3971 0.8228 -0.4066
vn 0.4077 0.8070 -0.4272
vn 0.2519 0.8367 -0.4863
vn 0.5909 0.7497 -0.2980
vn 0.7101 0.6419 -0.2893
vn 0.3869 0.7053 -0.5940
vn -0.1536 0.9571 -0.2458
vn 0.2171 0.9209 -0.3238
vn -0.1379 0.9175 -0.3730
vn -0.1183 0.9122 -0.3923
vn -0.3708 0.8735 -0.3153
vn 0.3325 0.6087 -0.7204
vn -0.1100 0.8487 -0.5173
vn -0.4357 0.8124 -0.3875
vn -0.3160 0.6968 -0.6439
vn 0.1661 0.5097 -0.8442
vn -0.3365 0.4837 -0.8080
vn -0.6288 0.2840 -0.7238
vn -0.2292 0.9642 -0.1337
vn -0.4147 0.8816 -0.2253
vn -0.3944 0.9051 -0.1590
vn -0.5863 0.8040 0.0996
vn -0.5638 0.8069 0.1762
vn -0.6048 0.7354 0.3055
vn -0.6034 0.7325 -0.3152
vn -0.6062 0.7517 -0.2598
vn -0.6103 0.7776 0.1512
vn -0.7042 0.6889 -0.1719
vn -0.7243 0.5857 -0.3638
vn -0.7034 0.6451 0.2986
vn -0.1568 0.9868 0.0405
vn -0.2127 0.8603 0.4634
vn -0.0583 0.9655 0.2536
vn -0.0575 0.9436 0.3262
vn 0.0759 0.9173 0.3909
vn 0.1218 0.8284 0.5467
vn -0.4529 0.7298 0.5121
vn -0.2905 0.7832 0.5497
vn -0.0262 0.6534 0.7566
vn -0.0064 0.6537 0.7567
vn 0.0377 0.5869 0.8088
vn -0.5752 0.4485 0.6841
vn 0.3787 0.9233 -0.0633
vn -0.0075 0.8461 0.5329
vn 0.4368 0.8994 -0.0176
vn 0.3810 0.8832 0.2733
vn 0.5661 0.7957 0.2156
vn 0.5369 0.7907 0.2942
vn 0.2753 0.7780 0.5648
vn 0.4993 0.8560 0.1340
vn 0.8219 0.5695 0.0133
vn 0.2169 0.5211 0.8255
vn 0.2931 0.5466 0.7844
vn 0.8680 0.4885 0.0890
vn 0.7114 -0.3151 -0.6281
vn 0.8135 0.5469 -0.1977
vn 0.9801 0.1857 -0.0704
vn 0.9258 0.0805 -0.3695
vn 0.8451 0.4020 -0.3525
vn 0.6237 0.7031 -0.3416
vn 0.8790 0.2911 -0.3777
vn 0.8669 0.3677 -0.3366
vn 0.9055 -0.0170 -0.4241
vn 0.8995 0.0043 -0.4369
vn 0.6545 0.1837 -0.7334
vn 0.3943 0.4131 -0.8209
vn 0.6545 0.1863 -0.7327
vn 0.7115 -0.0773 -0.6985
vn 0.7265 -0.0213 -0.6869
vn 0.4704 0.4571 -0.7549
vn 0.7595 -0.1771 -0.6260
vn -0.1225 0.4025 -0.9072
vn -0.1329 0.4337 -0.8912
vn -0.3564 0.5431 -0.7603
vn -0.2636 0.0150 -0.9645
vn -0.2911 -0.2909 -0.9114
vn -0.2527 0.0214 -0.9673
vn -0.2499 -0.3239 -0.9125
vn -0.5866 0.2532 -0.7693
vn -0.5747 0.3574 -0.7362
vn -0.5705 0.1864 -0.7999
vn -0.8428 0.4619 -0.2762
vn -0.8539 0.4814 -0.1978
vn -0.9992 -0.0132 -0.0386
vn -0.9347 0.3546 -0.0229
vn -0.9717 0.1678 -0.1663
vn -0.9192 0.3725 0.1275
vn -0.7058 0.6442 0.2948
vn -0.9809 -0.1925 0.0273
vn -0.9931 0.0837 0.0824
vn -0.9939 0.0185 0.1086
vn -0.9615 0.1756 0.2115
vn -0.9669 -0.2512 0.0438
vn -0.9089 -0.3695 0.1933
vn -0.8002 0.0516 0.5975
vn -0.7383 0.2959 0.6061
vn -0.2023 -0.2009 0.9585
vn -0.6509 0.3851 0.6543
vn -0.5568 0.2222 0.8004
vn -0.5280 0.4194 0.7384
vn -0.4185 0.0464 0.9070
vn -0.4285 -0.1284 0.8944
vn -0.0010 0.5863 0.8101
vn -0.0432 0.4579 0.8880
vn -0.1719 0.0288 0.9847
vn 0.0984 0.3329 0.9378
vn -0.1136 -0.0280 0.9931
vn 0.0841 0.3429 0.9356
vn -0.2433 -0.2967 0.9235
vn 0.1456 0.0805 0.9861
vn 0.6057 -0.2205 0.7645
vn 0.6988 0.4227 0.5770
vn 0.6418 0.2008 0.7401
vn 0.6298 0.3613 0.6877
vn 0.8331 0.4617 0.3047
vn 0.8389 0.1903 0.5099
vn 0.8567 0.0720 0.5108
vn 0.9070 0.2785 0.3159
vn 0.8543 0.4425 0.2728
vn 0.9029 0.0444 0.4275
vn 0.6945 -0.3726 0.6155
vn 0.4404 0.1984 -0.8756
vn 0.2084 -0.0209 -0.9778
vn 0.0115 -0.0434 -0.9990
vn 0.4984 0.4217 -0.7575
vn 0.2408 0.0816 -0.9671
vn 0.5321 0.0097 -0.8466
vn 0.2743 0.0292 -0.9612
vn 0.0847 -0.2877 -0.9540
vn 0.7680 -0.0192 -0.6402
vn 0.1694 -0.2232 -0.9599
vn 0.1258 -0.2232 -0.9666
vn 0.0972 -0.1929 -0.9764
vn 0.7476 -0.3031 -0.5909
vn 0.2258 -0.6780 -0.6996
vn 0.4765 -0.6805 -0.5567
vn -0.2868 -0.2787 -0.9165
vn -0.6125 0.4294 -0.6636
vn -0.8617 0.3537 -0.3639
vn -0.9338 0.0608 -0.3526
vn -0.9253 0.0290 -0.3782
vn -0.7162 -0.2702 -0.6435
vn -0.9028 -0.1384 -0.4072
vn -0.9658 -0.0696 -0.2498
vn -0.4308 -0.5005 -0.7510
vn -0.8189 -0.2981 -0.4905
vn -0.8090 -0.3049 -0.5026
vn -0.5342 -0.0713 -0.8423
vn -0.3639 -0.2871 -0.8861
vn -0.7085 -0.4512 -0.5427
vn -0.8687 -0.4573 -0.1902
vn -0.7050 0.1633 0.6901
vn -0.8079 0.2041 0.5528
vn -0.8588 -0.1677 0.4841
vn -0.8219 -0.0808 0.5639
vn -0.7422 -0.2691 0.6137
vn -0.4206 -0.1164 0.8997
vn -0.8172 -0.2670 0.5108
vn -0.8520 -0.3821 0.3580
vn -0.7516 -0.3312 0.5704
vn -0.1074 -0.5420 0.8335
vn 0.1967 0.3674 0.9090
vn 0.2680 0.2972 0.9164
vn 0.2760 0.2236 0.9348
vn 0.1108 0.0975 0.9890
vn 0.4994 0.1121 0.8591
vn 0.2270 -0.2309 0.9461
vn -0.1442 -0.2447 0.9588
vn 0.5502 -0.2244 0.8043
vn 0.2598 -0.1278 0.9572
vn 0.5307 -0.2434 0.8118
vn 0.4878 -0.3363 0.8055
vn -0.0746 -0.3018 0.9504
vn 0.4576 -0.3490 0.8178
vn -0.0879 -0.4212 0.9027
vn 0.2551 -0.5914 0.7650
vn 0.6182 -0.4521 0.6430
vn 0.8569 -0.3179 0.4058
vn 0.8901 0.4517 0.0607
vn 0.9608 0.2382 0.1417
vn 0.9903 0.0899 0.1055
vn 0.9301 0.0673 -0.3611
vn 0.9804 -0.1049 0.1666
vn 0.9653 -0.1279 0.2276
vn 0.9307 -0.3542 -0.0915
vn 0.9153 0.0006 -0.4028
vn 0.9239 -0.3540 0.1452
vn 0.9310 -0.2979 0.2108
vn 0.7884 -0.3800 0.4837
vn 0.9263 -0.3596 0.1124
vn 0.9205 -0.3598 0.1524
vn 0.5398 -0.7008 -0.4664
vn 0.4031 -0.3833 -0.8310
vn 0.1303 -0.3096 -0.9419
vn 0.4769 -0.6798 -0.5571
vn 0.3589 -0.8565 -0.3708
vn 0.0461 -0.6304 -0.7749
vn 0.3888 -0.8885 -0.2437
vn 0.0261 -0.8269 -0.5618
vn -0.1127 -0.8284 -0.5487
vn -0.0583 -0.9835 -0.1715
vn -0.2581 -0.9035 -0.3422
vn -0.1387 -0.8069 -0.5741
vn 0.0146 -0.6409 -0.7675
vn -0.1525 -0.8075 -0.5698
vn 0.0326 -0.9107 -0.4118
vn -0.3777 -0.6928 -0.6143
vn -0.5918 -0.6367 -0.4944
vn -0.1617 -0.8596 -0.4848
vn -0.5129 -0.8189 -0.2574
vn -0.5578 -0.7858 -0.2671
vn -0.3942 -0.9184 0.0353
vn -0.7029 -0.7094 -0.0511
vn -0.1972 -0.9791 0.0495
vn -0.7039 -0.7024 -0.1056
vn -0.8397 -0.5029 0.2047
vn -0.8183 -0.4678 0.3340
vn -0.3997 -0.9152 0.0508
vn -0.5109 -0.5779 0.6364
vn -0.5424 -0.6888 0.4811
vn -0.4163 -0.9091 0.0139
vn -0.4196 -0.6974 0.5810
vn -0.3876 -0.7251 0.5692
vn -0.2383 -0.9711 -0.0088
vn -0.3057 -0.8839 0.3539
vn 0.1976 -0.9770 -0.0802
vn -0.1479 -0.6449 0.7498
vn 0.7312 -0.6291 -0.2637
vn 0.7185 -0.6344 -0.2852
vn 0.6824 -0.6661 -0.3011
vn 0.7572 -0.6517 -0.0436
vn 0.3469 -0.9365 -0.0521
vn 0.5796 -0.8149 0.0006
vn 0.7498 -0.5866 0.3061
vn 0.5698 -0.8169 0.0889
vn 0.5762 -0.8013 0.1606
vn 0.2620 -0.9218 0.2856
vn 0.7249 -0.5229 0.4485
vn 0.4192 -0.8562 0.3019
vn -0.3562 -0.4833 0.7997
vn -0.1720 -0.4842 0.8579
vn -0.1591 -0.8021 0.5756
vn -0.3202 -0.8635 0.3898
vn 0.2707 -0.4812 0.8338
vn 0.2457 -0.9069 0.3423
vn 0.4307 -0.7223 0.5411
vn 0.2529 -0.9289 0.2704
vn 0.4117 -0.7250 0.5521
vn 0.6128 -0.5404 0.5765
vn 0.2619 -0.9217 0.2860
vt 0.545455 0.000000
vt 0.554466 0.022656
vt 0.534005 0.024797
vt 0.546713 0.291764
vt 0.588126 0.297203
vt 0.565720 0.342504
vt 0.376505 0.316739
vt 0.405544 0.326024
vt 0.404175 0.371301
vt 0.432568 0.423176
vt 0.451136 0.403946
vt 0.450183 0.451566
vt 0.470876 0.436222
vt 0.442724 0.369453
vt 0.494438 0.396715
vt 0.467645 0.343273
vt 0.518029 0.335797
vt 0.517046 0.364128
vt 0.466708 0.307965
vt 0.620117 0.434554
vt 0.655600 0.414259
vt 0.637352 0.455227
vt 0.602273 0.413334
vt 0.596492 0.389918
vt 0.648602 0.369554
vt 0.682121 0.381126
vt 0.579546 0.373969
vt 0.612038 0.343197
vt 0.688677 0.337821
vt 0.679858 0.309514
vt 0.725064 0.315168
vt 0.792456 0.422154
vt 0.831157 0.416597
vt 0.815406 0.457926
vt 0.770412 0.380547
vt 0.806796 0.370761
vt 0.853516 0.347376
vt 0.858911 0.399755
vt 0.892991 0.335217
vt 0.777515 0.327616
vt 0.746514 0.347345
vt 0.823649 0.321073
vt 0.741690 0.307633
vt 0.880974 0.294242
vt 0.087003 0.463322
vt 0.073200 0.423291
vt 0.099099 0.446010
vt 0.112610 0.415431
vt 0.060487 0.394345
vt 0.106938 0.372913
vt 0.140029 0.387304
vt 0.144575 0.357816
vt 0.025159 0.333959
vt 0.078399 0.325047
vt 0.116564 0.332153
vt 0.156331 0.314963
vt 0.049910 0.288351
vt 0.262321 0.432203
vt 0.287100 0.397627
vt 0.281710 0.451006
vt 0.243472 0.419185
vt 0.245598 0.377363
vt 0.325953 0.377217
vt 0.310466 0.407017
vt 0.300913 0.336597
vt 0.219244 0.357873
vt 0.256878 0.333040
vt 0.360868 0.315815
vt 0.198460 0.333562
vt 0.211247 0.307223
vt 0.330565 0.287825
vt 0.466903 0.149058
vt 0.474803 0.196733
vt 0.418036 0.189013
vt 0.379337 0.268656
vt 0.412769 0.290273
vt 0.414040 0.243100
vt 0.450949 0.264953
vt 0.450182 0.222916
vt 0.505202 0.278741
vt 0.505861 0.241009
vt 0.580429 0.250773
vt 0.646681 0.271336
vt 0.612369 0.217426
vt 0.594984 0.167818
vt 0.643353 0.181404
vt 0.672110 0.219305
vt 0.716360 0.241154
vt 0.729596 0.265744
vt 0.783588 0.276279
vt 0.771946 0.231849
vt 0.831104 0.268031
vt 0.803768 0.219365
vt 0.787688 0.191185
vt 0.860189 0.208499
vt 0.868169 0.244501
vt 0.823645 0.154319
vt 0.860848 0.163296
vt 0.909722 0.261397
vt 0.053206 0.225717
vt 0.030072 0.271242
vt 0.081886 0.173092
vt 0.112268 0.177181
vt 0.071124 0.204348
vt 0.012155 0.299810
vt 0.092847 0.282825
vt 0.089192 0.226775
vt 0.122109 0.261930
vt 0.144894 0.219061
vt 0.167085 0.275161
vt 0.242558 0.187287
vt 0.272666 0.216353
vt 0.242646 0.246856
vt 0.215630 0.273072
vt 0.283106 0.285504
vt 0.324944 0.249915
vt 0.306388 0.218501
vt 0.277434 0.158219
vt 0.544245 0.253287
vt 0.553053 0.212959
vt 0.513004 0.195514
vt 0.551985 0.167014
vt 0.514410 0.160049
vt 0.649767 0.138824
vt 0.710177 0.183902
vt 0.760857 0.145914
vt 0.684950 0.156337
vt 0.804725 0.147075
vt 0.926136 0.285397
vt 0.940758 0.230052
vt 0.922694 0.199209
vt 0.957576 0.173491
vt 0.971220 0.197237
vt 0.896904 0.165580
vt 0.967428 0.145066
vt 1.000000 0.157461
vt 0.195640 0.236205
vt 0.191526 0.202902
vt 0.167340 0.176616
vt 0.211853 0.147694
vt 0.155184 0.143482
vt 0.265196 0.159141
vt 0.311066 0.167046
vt 0.378259 0.220639
vt 0.341543 0.209033
vt 0.378749 0.166003
vt 0.345832 0.143965
vt 0.501468 0.088630
vt 0.529115 0.114535
vt 0.559883 0.115523
vt 0.538598 0.062948
vt 0.514630 0.053392
vt 0.586114 0.078848
vt 0.622745 0.139029
vt 0.683932 0.079239
vt 0.709980 0.109540
vt 0.720557 0.026267
vt 0.726126 0.063215
vt 0.767950 0.088712
vt 0.750361 0.047723
vt 0.864722 0.082789
vt 0.885289 0.117211
vt 0.891192 0.053787
vt 0.935948 0.118504
vt 0.925512 0.072392
vt 0.901597 0.019683
vt 0.914731 0.018104
vt 0.950596 0.072537
vt 0.381454 0.111448
vt 0.408654 0.095804
vt 0.336998 0.072568
vt 0.374938 0.034581
vt 0.310114 0.114108
vt 0.355954 0.016030
vt 0.312501 0.088572
vt 0.127583 0.093941
vt 0.160058 0.114858
vt 0.108405 0.133863
vt 0.113637 0.118096
vt 0.167273 0.076435
vt 0.209288 0.095437
vt 0.217252 0.069901
vt 0.244852 0.114710
vt 0.175966 0.035121
s 0
usemtl gas_planet4_cloud
f 122/1/1 111/2/1 125/3/1
f 57/4/2 17/5/2 30/6/2
f 49/7/3 29/8/3 46/9/3
f 45/10/4 19/11/4 1/12/4
f 1/12/5 19/11/5 25/13/5
f 46/9/6 28/14/6 19/11/6
f 19/11/7 28/14/7 27/15/7
f 28/14/8 31/16/8 27/15/8
f 31/16/9 30/17/9 26/18/9
f 29/8/10 31/16/10 46/9/10
f 46/9/11 31/16/11 28/14/11
f 31/16/12 53/19/12 30/17/12
f 25/20/13 23/21/13 1/22/13
f 19/23/14 27/24/14 25/20/14
f 25/20/15 32/25/15 23/21/15
f 27/24/16 32/25/16 25/20/16
f 23/21/17 32/25/17 24/26/17
f 31/27/18 26/28/18 27/24/18
f 27/24/19 26/28/19 32/25/19
f 32/25/20 33/29/20 24/26/20
f 26/28/21 33/29/21 32/25/21
f 30/6/22 17/5/22 26/28/22
f 26/28/23 34/30/23 33/29/23
f 34/30/24 14/31/24 33/29/24
f 23/32/25 20/33/25 1/34/25
f 24/35/26 35/36/26 23/32/26
f 23/32/27 35/36/27 20/33/27
f 20/33/28 36/37/28 21/38/28
f 35/36/29 36/37/29 20/33/29
f 21/38/30 36/37/30 22/39/30
f 24/35/31 37/40/31 35/36/31
f 33/41/32 37/40/32 24/35/32
f 35/36/33 38/42/33 36/37/33
f 37/40/34 38/42/34 35/36/34
f 33/41/35 14/43/35 37/40/35
f 36/37/36 63/44/36 22/39/36
f 1/45/37 20/46/37 39/47/37
f 20/46/38 40/48/38 39/47/38
f 20/46/39 21/49/39 40/48/39
f 21/49/40 41/50/40 40/48/40
f 40/48/41 41/50/41 18/51/41
f 41/50/42 42/52/42 18/51/42
f 22/53/43 43/54/43 21/49/43
f 21/49/44 43/54/44 41/50/44
f 43/54/45 44/55/45 41/50/45
f 41/50/46 44/55/46 42/52/46
f 44/55/47 67/56/47 42/52/47
f 22/53/48 11/57/48 43/54/48
f 39/58/49 45/59/49 1/60/49
f 40/61/50 18/62/50 39/58/50
f 45/59/51 46/63/51 19/64/51
f 18/62/52 45/59/52 39/58/52
f 47/65/53 46/63/53 45/59/53
f 18/62/54 47/65/54 45/59/54
f 42/66/55 48/67/55 18/62/55
f 48/67/56 47/65/56 18/62/56
f 47/65/57 49/68/57 46/63/57
f 67/69/58 50/70/58 42/66/58
f 50/70/59 48/67/59 42/66/59
f 47/65/60 76/71/60 49/68/60
f 4/72/61 56/73/61 5/74/61
f 100/75/62 51/76/62 49/7/62
f 49/7/63 51/76/63 29/8/63
f 6/77/64 52/78/64 100/75/64
f 100/75/65 52/78/65 51/76/65
f 29/8/66 53/19/66 31/16/66
f 51/76/67 53/19/67 29/8/67
f 52/78/68 53/19/68 51/76/68
f 54/79/69 52/78/69 6/77/69
f 5/74/70 54/79/70 6/77/70
f 52/78/71 55/80/71 53/19/71
f 55/80/72 30/17/72 53/19/72
f 52/78/73 78/81/73 55/80/73
f 56/73/74 78/81/74 54/79/74
f 54/79/75 78/81/75 52/78/75
f 55/80/76 57/4/76 30/17/76
f 56/73/77 54/79/77 5/74/77
f 16/82/78 58/83/78 17/5/78
f 17/5/79 58/83/79 26/28/79
f 58/83/80 34/30/80 26/28/80
f 15/84/81 58/83/81 16/82/81
f 82/85/82 84/86/82 15/84/82
f 15/84/83 59/87/83 58/83/83
f 84/86/84 59/87/84 15/84/84
f 60/88/85 61/89/85 58/83/85
f 58/83/86 61/89/86 34/30/86
f 59/87/87 60/88/87 58/83/87
f 13/90/88 37/40/88 14/43/88
f 13/90/89 38/42/89 37/40/89
f 85/91/90 62/92/90 13/90/90
f 13/90/91 62/92/91 38/42/91
f 12/93/92 62/92/92 85/91/92
f 62/92/93 63/44/93 38/42/93
f 38/42/94 63/44/94 36/37/94
f 86/94/95 8/95/95 12/93/95
f 8/95/96 64/96/96 12/93/96
f 12/93/97 64/96/97 62/92/97
f 64/96/98 63/44/98 62/92/98
f 118/97/99 8/95/99 86/94/99
f 118/97/100 9/98/100 8/95/100
f 64/96/101 89/99/101 63/44/101
f 90/100/102 11/57/102 89/101/102
f 92/102/103 69/103/103 10/104/103
f 11/57/104 22/53/104 63/105/104
f 90/100/105 65/106/105 11/57/105
f 65/106/106 43/54/106 11/57/106
f 66/107/107 65/106/107 90/100/107
f 90/100/108 10/104/108 66/107/108
f 65/106/109 67/56/109 43/54/109
f 43/54/110 67/56/110 44/55/110
f 66/107/111 68/108/111 65/106/111
f 68/108/112 67/56/112 65/106/112
f 66/107/113 70/109/113 68/108/113
f 68/108/114 71/110/114 67/56/114
f 10/104/115 69/103/115 66/107/115
f 70/109/116 71/110/116 68/108/116
f 98/111/117 74/112/117 72/113/117
f 72/113/118 50/70/118 7/114/118
f 50/70/119 73/115/119 48/67/119
f 72/113/120 73/115/120 50/70/120
f 73/115/121 47/65/121 48/67/121
f 74/112/122 75/116/122 72/113/122
f 75/116/123 73/115/123 72/113/123
f 75/116/124 76/71/124 73/115/124
f 73/115/125 76/71/125 47/65/125
f 74/112/126 77/117/126 75/116/126
f 99/118/127 74/112/127 98/111/127
f 55/80/128 78/81/128 57/4/128
f 78/81/129 79/119/129 57/4/129
f 57/4/130 79/119/130 17/5/130
f 79/119/131 16/82/131 17/5/131
f 78/81/132 80/120/132 79/119/132
f 80/120/133 16/82/133 79/119/133
f 81/121/134 80/120/134 78/81/134
f 80/120/135 15/84/135 16/82/135
f 56/73/136 81/121/136 78/81/136
f 81/121/137 83/122/137 80/120/137
f 80/120/138 83/122/138 82/85/138
f 80/120/139 82/85/139 15/84/139
f 56/73/140 4/72/140 81/121/140
f 4/72/141 106/123/141 81/121/141
f 81/121/142 106/123/142 83/122/142
f 82/85/143 112/124/143 84/86/143
f 34/30/144 61/89/144 14/31/144
f 61/89/145 13/90/145 14/31/145
f 61/89/146 85/91/146 13/90/146
f 60/88/147 85/91/147 61/89/147
f 59/87/148 87/125/148 60/88/148
f 60/88/149 86/94/149 85/91/149
f 85/91/150 86/94/150 12/93/150
f 84/86/151 87/125/151 59/87/151
f 87/125/152 114/126/152 60/88/152
f 60/88/153 114/126/153 86/94/153
f 84/86/154 88/127/154 87/125/154
f 84/86/155 112/124/155 88/127/155
f 88/127/156 114/126/156 87/125/156
f 86/94/157 114/126/157 118/128/157
f 63/44/158 89/99/158 11/129/158
f 64/96/159 90/130/159 89/99/159
f 64/96/160 91/131/160 90/130/160
f 8/95/161 91/131/161 64/96/161
f 91/131/162 92/132/162 90/130/162
f 92/132/163 10/133/163 90/130/163
f 93/134/164 91/131/164 8/95/164
f 9/98/165 93/134/165 8/95/165
f 93/134/166 92/132/166 91/131/166
f 94/135/167 69/136/167 92/132/167
f 67/56/168 71/110/168 50/70/168
f 71/110/169 7/114/169 50/70/169
f 71/110/170 95/137/170 7/114/170
f 70/109/171 95/137/171 71/110/171
f 95/137/172 72/113/172 7/114/172
f 70/109/173 96/138/173 95/137/173
f 66/107/174 69/103/174 70/109/174
f 95/137/175 98/111/175 72/113/175
f 70/109/176 97/139/176 96/138/176
f 96/138/177 98/111/177 95/137/177
f 96/138/178 129/140/178 98/111/178
f 69/103/179 97/139/179 70/109/179
f 97/139/180 129/140/180 96/138/180
f 69/103/181 2/141/181 97/139/181
f 2/141/182 129/140/182 97/139/182
f 129/140/183 99/142/183 98/111/183
f 74/112/184 104/143/184 77/117/184
f 76/71/185 100/75/185 49/7/185
f 75/116/186 100/75/186 76/71/186
f 75/116/187 102/144/187 100/75/187
f 102/144/188 6/77/188 100/75/188
f 77/117/189 101/145/189 75/116/189
f 101/145/190 102/144/190 75/116/190
f 103/146/191 5/74/191 102/144/191
f 102/144/192 5/74/192 6/77/192
f 101/145/193 103/146/193 102/144/193
f 77/117/194 104/143/194 101/145/194
f 99/118/195 104/143/195 74/112/195
f 104/143/196 105/147/196 101/145/196
f 101/145/197 105/147/197 103/146/197
f 123/148/198 107/149/198 4/72/198
f 4/72/199 107/149/199 106/123/199
f 107/149/200 108/150/200 106/123/200
f 108/150/201 83/122/201 106/123/201
f 123/148/202 109/151/202 107/149/202
f 108/150/203 82/85/203 83/122/203
f 125/152/204 109/151/204 123/148/204
f 109/151/205 108/150/205 107/149/205
f 109/151/206 110/153/206 108/150/206
f 125/3/207 111/2/207 109/151/207
f 111/2/208 110/153/208 109/151/208
f 110/153/209 112/154/209 108/150/209
f 108/150/210 112/154/210 82/85/210
f 110/155/211 113/156/211 112/124/211
f 111/157/212 115/158/212 110/155/212
f 112/124/213 113/156/213 88/127/213
f 88/127/214 113/156/214 114/126/214
f 110/155/215 115/158/215 113/156/215
f 115/158/216 116/159/216 113/156/216
f 113/156/217 116/159/217 114/126/217
f 117/160/218 116/159/218 115/158/218
f 116/159/219 118/128/219 114/126/219
f 111/157/220 117/160/220 115/158/220
f 116/161/221 119/162/221 118/97/221
f 119/162/222 9/98/222 118/97/222
f 119/162/223 93/134/223 9/98/223
f 116/161/224 117/163/224 119/162/224
f 119/162/225 120/164/225 93/134/225
f 120/164/226 92/132/226 93/134/226
f 117/163/227 121/165/227 119/162/227
f 121/165/228 120/164/228 119/162/228
f 120/164/229 94/135/229 92/132/229
f 111/166/230 122/167/230 117/163/230
f 122/167/231 3/168/231 117/163/231
f 117/163/232 3/168/232 121/165/232
f 121/165/233 3/168/233 120/164/233
f 103/146/234 124/169/234 5/74/234
f 5/74/235 124/169/235 4/72/235
f 124/169/236 123/170/236 4/72/236
f 103/146/237 105/147/237 124/169/237
f 124/169/238 127/171/238 123/170/238
f 127/171/239 125/172/239 123/170/239
f 104/143/240 126/173/240 105/147/240
f 126/173/241 127/171/241 105/147/241
f 105/147/242 127/171/242 124/169/242
f 127/171/243 122/174/243 125/172/243
f 99/118/244 126/173/244 104/143/244
f 126/173/245 130/175/245 127/171/245
f 120/176/246 128/177/246 2/141/246
f 94/178/247 2/141/247 69/103/247
f 120/179/248 2/141/248 94/178/248
f 120/176/249 3/180/249 128/177/249
f 128/177/250 129/140/250 2/141/250
f 3/180/251 130/181/251 128/177/251
f 130/181/252 129/140/252 128/177/252
f 127/182/253 130/181/253 3/180/253
f 130/181/254 126/183/254 129/140/254
f 126/183/255 99/142/255 129/140/255
f 122/184/256 127/182/256 3/180/256
o gas_planet4_cloud1
v -0.369013 -0.574730 -1.032353
v -0.124617 -0.938446 0.802971
v -0.111593 -1.182310 0.704489
v -0.028070 -1.396164 0.505583
v 0.014931 -1.452683 -0.050563
v 0.194500 -1.361545 -0.078667
v 0.465151 -1.028148 -0.403619
v -1.225680 -0.856334 0.144046
v 1.137651 -0.211142 0.309788
v 1.255038 -0.380548 0.642482
v 0.236209 0.217175 1.129999
v 0.729330 -0.032929 0.900612
v 0.718967 0.141184 1.011500
v -1.322495 0.126049 0.630993
v -1.368172 -0.478015 0.207004
v -1.128116 -0.241307 -0.089137
v -1.242964 0.470782 -0.680859
v -1.133936 0.614550 -0.671554
v 0.213803 0.417853 -1.161449
v 0.356388 0.464393 -1.145439
v -0.503040 0.560784 0.982204
v -0.642457 0.560941 -0.982138
v 0.123075 1.128214 0.462802
v 0.447738 1.023106 0.583881
v 0.511659 1.011846 0.830596
v 0.345812 0.978608 1.042544
v 1.004745 0.782380 -0.171795
v 0.878352 0.921851 -0.059245
v 0.591989 1.061884 -0.070779
v 0.279529 1.146546 -0.179545
v -0.125886 1.218766 -0.096267
v 0.006978 1.220749 0.164902
v -0.524817 1.276034 0.385658
v -0.636319 1.029797 -0.127268
v -0.715211 0.866773 -0.269643
v -0.856985 0.779427 -0.414640
v 0.186070 1.167387 -0.403052
v 0.286540 0.931098 -0.962358
v 0.385873 1.139393 -0.342594
v 0.489868 1.148246 -0.822397
v 0.634173 1.000289 -0.464029
v 0.463537 1.077352 -0.925542
v 0.816190 0.792141 -0.579397
v 0.689271 0.874632 -1.071047
v 0.405667 0.794046 -1.000028
v 0.833286 0.856987 -0.931801
v 1.044475 0.583302 -0.247703
v -0.167284 1.093942 -0.427676
v -0.381908 1.074849 -0.450426
v -0.110838 1.003709 -0.704376
v -0.226015 1.007290 -0.550554
v -0.491924 0.884086 -0.555980
v -0.328876 0.772867 -0.722802
v -0.156550 0.843326 -0.773222
v -0.667441 0.758449 -0.718457
v 0.201652 0.690645 -0.972336
v -0.028481 0.623178 -1.077492
v -0.437229 0.606242 -1.041672
v -0.373248 1.144621 0.060315
v -0.693831 1.232208 0.338124
v -0.805403 1.066761 0.276539
v -0.748142 1.084835 0.483637
v -0.859106 0.745230 0.170756
v -0.801322 0.704456 0.543270
v -0.944111 0.673349 -0.384900
v -0.920286 0.620516 0.530664
v -1.067648 0.591612 0.246827
v -0.082051 1.144141 0.348451
v -0.169390 1.272220 0.643730
v -0.410356 1.254910 0.715975
v -0.042952 1.209001 0.877833
v -0.267836 1.077540 0.918452
v 0.163588 0.938957 1.059570
v -0.545415 0.797531 0.825600
v -0.070393 0.739027 1.034176
v 0.386872 0.760577 1.038366
v 0.307806 0.545862 1.109005
v 0.272191 1.148843 0.166605
v 0.450834 1.070362 0.406898
v 0.569882 0.971339 0.118015
v 0.742385 0.944094 0.162145
v 0.529585 0.946597 0.944125
v 0.769676 0.939540 0.353025
v 0.716587 0.833585 0.563636
v 0.954318 0.741541 0.127205
v 1.021720 0.725110 0.349712
v 0.896768 0.666188 0.633140
v 0.998214 0.610615 0.060082
v 1.156094 0.311049 -0.335197
v 0.966920 0.485962 -0.543173
v 1.030023 0.291064 -0.603779
v 1.011986 0.182819 -0.724800
v 0.998642 0.570329 -0.961914
v 0.990225 -0.209927 -0.728599
v 0.840682 0.085125 -0.944051
v 0.959301 0.536116 -1.084923
v 0.822612 0.574105 -1.129522
v 0.867829 -0.347734 -0.840082
v 0.964794 -0.644471 -0.749931
v 0.641671 0.163140 -1.055375
v 0.520956 0.579257 -1.154990
v -0.095671 0.250846 -1.177661
v -0.065225 0.420397 -1.098542
v -0.230301 0.559255 -1.073892
v -0.221449 0.054995 -1.158403
v -0.581736 0.373866 -1.234347
v -0.462344 0.055690 -1.124722
v -0.788731 0.322562 -1.102735
v -0.856487 0.618933 -0.921247
v -0.465645 -0.390358 -1.078076
v -0.577826 -0.188177 -1.024884
v -0.737811 0.017292 -0.964232
v -0.959824 0.392025 -1.032465
v -1.181543 0.477708 -0.820765
v -1.194981 0.490384 -0.451062
v -1.130943 0.476871 -0.118505
v -1.215478 0.340861 -0.149698
v -1.276985 -0.017060 -0.093949
v -1.248200 -0.148996 0.077799
v -1.286017 0.140255 0.175192
v -1.125625 0.448213 0.425638
v -1.192186 -0.620597 0.090008
v -1.440346 -0.261443 0.254469
v -1.450379 -0.101335 0.595833
v -1.148139 0.359635 0.692083
v -0.613055 0.442810 1.007759
v -0.672043 0.195958 0.942848
v -0.553148 0.090910 1.069590
v -0.205624 0.388822 1.120517
v -0.356059 0.650141 1.042287
v -0.315463 0.186153 1.197770
v -0.118151 0.522331 1.126858
v -0.395951 -0.181485 1.194034
v -0.279545 -0.018970 1.119850
v 0.052136 0.609805 1.056399
v -0.053834 0.231545 1.197679
v 0.084541 0.423427 1.212454
v -0.088482 -0.165520 1.101228
v -0.243875 -0.414919 1.123941
v 0.741532 0.645871 0.983955
v 0.636490 0.459514 1.017657
v 0.837449 0.645166 0.896387
v 0.907241 0.175321 0.795432
v 0.937690 0.526877 0.682424
v 1.124316 0.208592 0.550587
v 1.051220 0.472742 0.368450
v 1.095644 -0.090224 0.830159
v 1.264636 0.032201 0.674260
v 1.094829 0.521288 0.291522
v 1.249652 -0.336628 0.785411
v 1.284321 0.019544 0.577381
v 1.056753 -0.679258 0.747476
v 1.121750 0.255038 0.256795
v 1.153292 0.321452 -0.004926
v 0.411154 0.095485 -1.117913
v 0.037527 0.089181 -1.171770
v 0.679638 -0.241965 -1.004878
v 0.419885 -0.202985 -1.058936
v 0.004580 -0.292519 -1.159312
v 0.098891 -0.421644 -1.032437
v 0.691757 -0.642207 -1.032056
v 0.869920 -0.661293 -0.927300
v -0.176707 -0.624223 -0.946773
v 0.258266 -0.560449 -0.999373
v -1.229697 0.300136 -0.735693
v -0.991715 0.039345 -0.759077
v -1.154370 0.033486 -0.384009
v -0.828507 -0.212789 -0.886224
v -1.138506 -0.198140 -0.436604
v -0.825255 -0.395026 -0.823523
v -1.035218 -0.367499 -0.335833
v -0.528766 -0.612547 -0.867968
v -1.095337 -0.512333 -0.207996
v -0.879555 0.449035 0.835532
v -1.102320 0.099943 0.814222
v -0.935729 -0.024112 0.851462
v -1.095268 -0.208066 0.700992
v -0.743560 -0.008489 1.043278
v -0.951698 -0.163144 0.760484
v -0.632679 -0.309461 1.100654
v -1.447054 -0.361561 0.385785
v -1.093501 -0.567333 0.570661
v -0.862692 -0.500078 0.881009
v -0.530520 -0.557153 1.092732
v -1.272874 -0.688166 0.345106
v 0.393529 0.146277 1.147325
v 0.524440 0.246439 1.117537
v 0.301653 -0.022266 1.192109
v 0.591716 -0.067040 1.052526
v 0.193198 -0.168863 1.163164
v 0.532678 -0.221105 1.105236
v 0.727235 -0.316356 0.944157
v -0.046229 -0.444233 1.179196
v 0.393740 -0.378055 1.034638
v 0.208588 -0.547110 1.093712
v 0.996334 -0.452955 0.926380
v 0.445212 -0.624940 0.926215
v 0.621604 -0.529954 0.874322
v 0.971168 -0.671110 0.831789
v 1.242264 0.184942 0.023194
v 1.202614 0.049423 0.172234
v 1.161366 0.091673 -0.323563
v 1.167985 -0.028327 -0.112231
v 1.114086 -0.176851 -0.241219
v 1.106112 -0.336337 0.006421
v 1.109221 -0.188707 -0.502922
v 1.100036 -0.444732 0.356624
v 0.954492 -0.400040 -0.627229
v 1.047025 -0.541123 -0.089808
v 1.016313 -0.611554 0.333019
v 0.955946 -0.602560 -0.347395
v 0.733085 -0.845678 -0.863205
v 0.359148 -0.778880 -0.822769
v 0.267873 -0.929376 -0.663980
v -0.099355 -0.823351 -0.748544
v -0.042250 -0.751834 -0.898526
v 0.026029 -1.135796 -0.329166
v 0.030075 -1.362512 -0.181617
v -0.141235 -0.970955 -0.610398
v -0.312255 -0.688885 -0.792871
v -0.492944 -0.797790 -0.689158
v -0.638052 -0.697619 -0.790780
v -0.507970 -1.004843 -0.422982
v -0.775388 -0.753978 -0.622515
v -0.796961 -0.840504 -0.295022
v -0.228276 -1.166474 -0.270583
v -0.966168 -0.715833 -0.194374
v -0.587673 -1.072250 -0.102861
v -0.751506 -0.973708 -0.104522
v -0.116426 -1.440182 0.100578
v -0.315774 -1.193150 0.033028
v -1.062972 -0.966874 0.002046
v -1.075180 -0.962800 0.244698
v -0.840167 -0.992175 0.245498
v -0.909054 -0.749812 0.569812
v -0.663433 -0.991212 0.444592
v -0.720431 -0.781618 0.808936
v -0.436345 -1.100789 0.493342
v -0.218107 -1.344583 0.509106
v -0.411405 -0.914007 0.737461
v -0.333431 -0.745219 0.976377
v 0.917386 -0.850129 -0.678238
v 0.847561 -0.754161 -0.202637
v 0.624985 -0.937828 -0.462485
v 0.875777 -0.831003 0.079764
v 0.651299 -1.004552 -0.134038
v 0.314543 -1.078522 -0.327769
v 0.657384 -1.039365 0.144776
v 0.396624 -1.162113 -0.037233
v 0.813964 -0.869192 0.391172
v -0.118242 -0.669386 1.078903
v 0.073525 -0.785940 0.954680
v 0.322994 -0.798272 0.821834
v 0.188420 -0.982361 0.705363
v 0.689608 -0.895512 0.800029
v 0.324610 -1.122042 0.389086
v 0.126220 -1.417233 0.230175
v 0.497537 -1.066492 0.417243
vn 0.1748 0.9846 -0.0028
vn 0.1270 0.9911 0.0393
vn 0.2259 0.9685 0.1049
vn 0.1251 0.9911 0.0454
vn -0.1881 0.9655 -0.1803
vn 0.4404 0.8930 -0.0926
vn 0.4527 0.8870 -0.0904
vn 0.5325 0.8363 0.1308
vn 0.8031 0.5571 0.2115
vn 0.6530 0.7128 -0.2558
vn 0.2935 0.7512 -0.5912
vn -0.3112 0.3006 -0.9016
vn 0.6016 0.7552 -0.2602
vn 0.7838 0.6029 0.1490
vn 0.6549 0.7542 0.0477
vn 0.5030 0.7527 -0.4249
vn -0.3321 0.4281 -0.8405
vn -0.3313 0.4286 -0.8406
vn 0.9803 0.1443 0.1345
vn 0.8624 0.3213 -0.3912
vn 0.6250 0.5223 -0.5802
vn -0.3385 0.4147 -0.8446
vn -0.2835 0.8932 -0.3491
vn -0.0108 0.2563 -0.9665
vn 0.0912 0.9281 -0.3610
vn -0.2121 0.9608 0.1783
vn -0.0466 0.9367 -0.3470
vn -0.3368 0.9318 -0.1352
vn -0.4535 0.8159 -0.3586
vn -0.0123 0.8199 -0.5723
vn -0.6322 0.6602 -0.4056
vn -0.2937 0.8211 -0.4894
vn -0.2507 0.5754 -0.7785
vn -0.6361 0.6206 -0.4585
vn -0.3523 0.6059 -0.7132
vn -0.6191 0.6230 -0.4781
vn -0.2847 0.6456 -0.7086
vn -0.3447 0.9141 -0.2136
vn -0.4242 0.4566 -0.7820
vn -0.4166 0.4563 -0.7863
vn -0.3656 0.8847 -0.2892
vn -0.4165 0.1840 -0.8903
vn -0.0420 0.8119 -0.5823
vn -0.1865 0.1064 -0.9767
vn 0.0256 0.8150 -0.5789
vn -0.0860 0.7896 -0.6075
vn -0.4345 0.8504 -0.2967
vn -0.3084 0.8933 -0.3270
vn 0.2006 0.5642 -0.8009
vn -0.0947 0.2447 -0.9650
vn -0.2995 0.8836 -0.3600
vn -0.0417 0.7978 -0.6015
vn 0.0477 0.8016 -0.5959
vn -0.2232 0.9690 0.1062
vn -0.3405 0.9354 -0.0950
vn -0.1053 0.9071 -0.4075
vn -0.1161 0.9010 -0.4180
vn -0.7096 0.6099 -0.3529
vn -0.8453 0.4993 0.1901
vn -0.8426 0.5223 -0.1312
vn -0.8774 0.2757 -0.3926
vn -0.9803 0.1098 0.1641
vn -0.9532 0.1722 0.2485
vn -0.7356 0.4665 -0.4912
vn -0.5579 0.8286 0.0464
vn -0.5817 0.8121 0.0453
vn -0.5421 0.8221 0.1741
vn -0.5779 0.7859 0.2200
vn -0.2948 0.9555 -0.0008
vn -0.2584 0.9296 0.2627
vn 0.2560 0.9319 -0.2571
vn -0.5745 0.7743 0.2654
vn -0.1141 0.9353 0.3350
vn 0.2450 0.9138 -0.3239
vn 0.2504 0.9130 -0.3220
vn 0.3566 0.9210 -0.1566
vn -0.2899 0.9435 0.1608
vn -0.0475 0.9957 0.0801
vn 0.3693 0.9278 -0.0533
vn -0.6239 0.6533 0.4288
vn 0.0076 0.9664 0.2569
vn 0.3394 0.9380 0.0700
vn -0.7579 0.2031 0.6200
vn -0.6443 0.3529 0.6785
vn -0.5945 0.3492 0.7243
vn -0.2418 0.6392 0.7301
vn -0.1272 0.4850 0.8652
vn -0.0383 0.5376 0.8423
vn -0.3918 0.0846 0.9161
vn -0.2542 0.1768 0.9508
vn 0.0934 -0.0015 0.9956
vn -0.6422 0.6283 0.4392
vn -0.2042 0.7172 0.6663
vn -0.0033 -0.1222 0.9925
vn -0.4364 0.4408 0.7844
vn -0.5427 0.3937 0.7420
vn -0.1019 0.4101 0.9063
vn 0.2004 0.3476 0.9160
vn -0.0163 0.1544 0.9879
vn -0.1054 0.3456 0.9324
vn 0.3501 0.8586 0.3745
vn 0.2600 0.9555 -0.1395
vn 0.2054 0.9544 0.2164
vn 0.2591 0.9583 0.1204
vn 0.5128 0.8585 0.0052
vn 0.4992 0.8618 -0.0897
vn 0.0893 0.8939 0.4392
vn 0.2102 0.9437 0.2556
vn 0.0308 0.8998 0.4352
vn 0.4270 0.8875 0.1731
vn 0.3348 0.8389 0.4293
vn 0.4005 0.7741 0.4904
vn 0.3489 0.9212 -0.1720
vn 0.1557 0.9878 0.0013
vn 0.5672 0.8163 -0.1097
vn 0.5730 0.7893 0.2208
vn 0.6818 0.7272 -0.0801
vn 0.6767 0.6475 0.3505
vn 0.4808 0.0738 0.8737
vn 0.5724 0.6654 0.4791
vn 0.6407 0.7552 -0.1383
vn 0.9560 0.2223 0.1916
vn 0.5400 0.7444 0.3928
vn 0.8787 0.4153 -0.2355
vn 0.2200 0.2308 0.9478
vn 0.2358 0.2891 0.9278
vn 0.6943 0.6659 0.2731
vn 0.7109 0.6700 0.2137
vn 0.6750 0.7373 0.0258
vn 0.8950 0.3852 -0.2249
vn 0.9997 0.0244 0.0077
vn 0.8348 -0.3729 -0.4051
vn 0.8860 0.4543 0.0929
vn 0.9248 0.3805 -0.0041
vn 0.8156 0.4509 -0.3626
vn 0.8202 0.3944 -0.4144
vn 0.8562 0.3801 -0.3500
vn 0.9053 -0.0008 -0.4249
vn 0.9219 0.0721 -0.3808
vn 0.8841 0.4501 0.1257
vn 0.9645 0.1086 -0.2409
vn 0.7828 0.4013 -0.4756
vn 0.9914 0.0914 0.0935
vn 0.8620 0.4802 0.1621
vn 0.7808 0.4910 -0.3863
vn 0.8854 -0.0446 -0.4627
vn 0.9542 -0.1315 -0.2686
vn 0.7956 -0.0382 -0.6046
vn 0.8063 -0.3589 -0.4701
vn 0.3751 0.3346 -0.8645
vn 0.8194 -0.3819 -0.4275
vn 0.0858 0.2268 -0.9702
vn 0.7361 -0.1141 -0.6672
vn 0.3434 -0.3611 -0.8670
vn 0.2300 -0.2700 -0.9350
vn 0.0787 -0.2104 -0.9744
vn 0.9233 0.2026 -0.3261
vn 0.4229 -0.1865 -0.8868
vn 0.0884 -0.2076 -0.9742
vn -0.0478 -0.0285 -0.9985
vn -0.0922 0.5645 -0.8202
vn -0.1933 0.4432 -0.8753
vn -0.2198 -0.0889 -0.9715
vn -0.1027 0.2703 -0.9573
vn 0.0498 0.0046 -0.9987
vn 0.1906 0.3868 -0.9022
vn -0.0421 -0.0710 -0.9966
vn 0.2036 0.3909 -0.8976
vn 0.0222 0.6299 -0.7763
vn 0.0778 -0.1469 -0.9861
vn -0.3356 0.7161 -0.6120
vn -0.1382 -0.0873 -0.9866
vn -0.1299 -0.3662 -0.9214
vn -0.5251 0.6181 -0.5849
vn -0.1039 -0.2904 -0.9513
vn -0.1488 -0.1018 -0.9836
vn -0.5454 -0.0832 -0.8340
vn -0.1085 0.5010 -0.8586
vn -0.4866 -0.1236 -0.8648
vn -0.4088 -0.4306 -0.8047
vn -0.4048 -0.4329 -0.8054
vn -0.1533 0.4903 -0.8579
vn -0.4705 0.7200 -0.5102
vn -0.4554 0.5504 -0.6998
vn -0.9528 0.0177 -0.3032
vn -0.7951 0.5955 0.1152
vn -0.6127 0.7490 0.2521
vn -0.9662 -0.1439 0.2140
vn -0.6080 0.7799 0.1488
vn -0.9846 -0.0636 0.1626
vn -0.8532 0.4881 0.1841
vn -0.9873 -0.1053 -0.1194
vn -0.7671 0.6380 -0.0675
vn -0.7806 0.6209 -0.0723
vn -0.9226 0.1005 -0.3725
vn -0.9971 -0.0730 0.0207
vn -0.7563 -0.5108 -0.4087
vn -0.7976 -0.5355 -0.2777
vn -0.9813 0.1499 -0.1205
vn -0.8553 0.5029 0.1249
vn -0.8969 0.4411 0.0320
vn -0.9129 0.4070 0.0304
vn -0.9877 -0.1469 0.0527
vn -0.6983 0.6517 0.2962
vn -0.7205 -0.1929 -0.6660
vn -0.7276 0.2253 -0.6480
vn -0.6828 0.6536 -0.3266
vn -0.9315 0.0006 -0.3636
vn -0.6843 0.7074 0.1773
vn -0.5551 -0.0027 -0.8317
vn -0.8668 0.4958 -0.0539
vn -0.8670 0.4954 -0.0539
vn -0.8104 0.5730 0.1220
vn -0.4397 0.5618 0.7007
vn -0.3125 0.1421 0.9392
vn -0.5420 -0.0902 0.8355
vn -0.3737 0.5110 0.7741
vn -0.7312 -0.0046 0.6821
vn -0.1993 0.3814 0.9027
vn -0.4005 0.0434 0.9153
vn -0.1942 0.1142 0.9743
vn -0.4946 0.0681 0.8665
vn -0.2689 0.1309 0.9542
vn -0.4339 0.1551 0.8875
vn -0.3139 -0.3847 0.8680
vn -0.1858 0.4363 0.8804
vn -0.0003 0.4154 0.9096
vn -0.0668 0.3868 0.9197
vn -0.3112 0.1594 0.9369
vn -0.3180 0.1574 0.9349
vn -0.2914 -0.1504 0.9447
vn 0.2699 0.2331 0.9342
vn 0.0602 -0.3452 0.9366
vn -0.0115 0.6408 0.7677
vn 0.0029 0.6423 0.7665
vn 0.0292 -0.2700 0.9624
vn 0.2922 -0.0954 0.9516
vn 0.1835 -0.4387 0.8797
vn 0.0240 -0.0952 0.9952
vn 0.2108 -0.2253 0.9512
vn 0.4371 -0.0378 0.8986
vn 0.3021 0.1550 0.9406
vn -0.1861 0.4956 0.8484
vn 0.7349 -0.3327 0.5910
vn 0.2089 0.1470 0.9668
vn 0.5769 -0.3801 0.7230
vn 0.2727 0.0203 0.9619
vn 0.5243 0.1195 0.8431
vn 0.5867 0.4980 0.6386
vn 0.2362 0.0424 0.9708
vn 0.7538 0.0022 0.6571
vn 0.5312 -0.6112 0.5868
vn 0.9079 0.3489 0.2324
vn 0.7366 -0.3316 0.5895
vn 0.8509 0.0925 0.5171
vn 0.7294 0.1513 0.6672
vn 0.8966 0.3563 0.2628
vn 0.8958 0.1361 0.4232
vn 0.2234 0.2806 0.9335
vn 0.1697 0.2090 0.9631
vn 0.4366 0.4142 0.7986
vn 0.4631 0.7254 0.5092
vn 0.8221 0.1371 0.5526
vn 0.4422 0.1149 0.8895
vn 0.8771 0.4124 0.2461
vn 0.6907 0.3134 0.6517
vn 0.7014 -0.6745 0.2306
vn 0.7567 0.6502 0.0688
vn 0.6161 -0.4206 0.6660
vn 0.7530 0.6510 0.0963
vn 0.9561 0.2905 0.0376
vn 0.8638 0.0217 0.5034
vn 0.9868 0.0816 0.1396
vn 0.8532 0.4947 -0.1652
vn 0.8475 -0.4976 0.1848
vn 0.8978 0.4294 -0.0981
vn 0.9235 -0.2564 -0.2851
vn 0.6475 -0.0342 -0.7613
vn 0.8677 0.1386 -0.4773
vn 0.1290 -0.0547 -0.9901
vn 0.1433 -0.0458 -0.9886
vn 0.1991 -0.1028 -0.9746
vn 0.3732 -0.0138 -0.9277
vn 0.1734 -0.1860 -0.9671
vn 0.2675 -0.1793 -0.9467
vn 0.1433 -0.0446 -0.9887
vn 0.3061 -0.5440 -0.7812
vn 0.7058 0.1942 -0.6813
vn 0.5113 0.0736 -0.8562
vn 0.2136 0.0726 -0.9742
vn -0.0286 -0.0787 -0.9965
vn 0.2059 -0.6052 -0.7690
vn 0.1906 -0.6013 -0.7759
vn -0.1405 -0.3791 -0.9146
vn -0.0699 -0.3064 -0.9493
vn -0.4999 -0.5874 -0.6365
vn -0.4728 -0.1101 -0.8743
vn -0.7505 0.5886 -0.3004
vn -0.7113 -0.1374 -0.6893
vn -0.9152 0.0571 -0.3990
vn -0.5690 -0.4166 -0.7090
vn -0.5794 -0.4689 -0.6666
vn -0.7141 -0.6230 -0.3194
vn -0.6292 -0.0154 -0.7771
vn -0.9173 0.0274 -0.3974
vn -0.8020 -0.2443 -0.5450
vn -0.4392 -0.2993 -0.8471
vn -0.8091 -0.2041 -0.5512
vn -0.8418 -0.5382 -0.0417
vn -0.7856 -0.2924 -0.5453
vn -0.3902 -0.3587 -0.8480
vn -0.8050 -0.3711 -0.4629
vn -0.8425 -0.5372 -0.0393
vn -0.9253 0.0527 -0.3754
vn -0.5773 -0.4684 -0.6688
vn -0.3666 -0.3213 -0.8731
vn -0.6125 -0.4493 -0.6504
vn -0.4957 0.7270 0.4751
vn -0.9347 -0.2579 -0.2444
vn -0.5237 0.2852 0.8028
vn -0.6015 0.2506 0.7585
vn -0.2703 -0.0748 0.9599
vn -0.6335 -0.2797 0.7214
vn -0.6285 0.5088 0.5882
vn -0.2812 0.0098 0.9596
vn -0.2682 -0.3378 0.9022
vn -0.4930 -0.4360 0.7529
vn -0.7570 -0.2947 0.5832
vn -0.6962 -0.1216 0.7074
vn -0.9991 0.0176 -0.0376
vn -0.3562 -0.3202 0.8778
vn -0.6118 -0.5016 0.6117
vn -0.4282 0.2020 0.8808
vn -0.7150 0.0603 0.6965
vn -0.7576 -0.2259 0.6124
vn -0.5976 -0.4049 0.6921
vn -0.5506 -0.2525 0.7957
vn -0.7216 -0.5778 -0.3813
vn -0.8834 -0.4599 -0.0902
vn -0.6512 -0.4796 0.5882
vn -0.5333 -0.4525 0.7147
vn -0.5110 -0.5197 0.6847
vn -0.6382 -0.6470 0.4173
vn 0.1166 -0.4313 0.8946
vn -0.0736 0.0795 0.9941
vn 0.0075 0.2530 0.9674
vn 0.3123 -0.1282 0.9413
vn 0.4380 -0.0915 0.8943
vn -0.2123 0.1071 0.9713
vn -0.4079 0.1232 0.9047
vn 0.3803 0.0382 0.9241
vn 0.5117 0.0960 0.8538
vn 0.1200 -0.2770 0.9533
vn 0.6423 0.0160 0.7663
vn 0.7263 0.0991 0.6802
vn -0.2303 0.2296 0.9456
vn -0.2061 0.2345 0.9500
vn 0.0787 -0.4660 0.8813
vn 0.3108 -0.6049 0.7331
vn 0.2533 -0.1647 0.9533
vn 0.4202 -0.1473 0.8954
vn 0.4999 -0.2587 0.8265
vn 0.3097 -0.4303 0.8479
vn -0.0765 -0.2755 0.9583
vn 0.1229 -0.4363 0.8914
vn 0.4117 -0.2931 0.8629
vn -0.0469 -0.3928 0.9184
vn 0.3417 -0.1257 0.9314
vn 0.7904 0.5643 0.2384
vn 0.8974 0.4148 -0.1504
vn 0.8949 0.1849 0.4062
vn 0.8228 0.4707 -0.3186
vn 0.9498 -0.3114 -0.0305
vn 0.9593 -0.2315 -0.1615
vn 0.9641 -0.2168 -0.1533
vn 0.9843 -0.1765 -0.0103
vn 0.9169 -0.3394 -0.2099
vn 0.9741 -0.2184 -0.0589
vn 0.9625 -0.2413 -0.1244
vn 0.9702 -0.2423 -0.0009
vn 0.8767 -0.2263 -0.4246
vn 0.9856 -0.1656 -0.0341
vn 0.8034 -0.5953 0.0120
vn 0.9663 -0.2503 -0.0607
vn 0.9675 -0.2255 -0.1141
vn 0.9351 -0.2684 -0.2315
vn 0.8943 -0.4474 -0.0096
vn 0.9119 -0.3302 -0.2437
vn 0.7915 -0.5862 -0.1730
vn 0.8483 -0.3725 -0.3763
vn 0.9993 0.0328 0.0186
vn 0.3243 -0.7964 -0.5105
vn 0.8423 -0.3400 -0.4183
vn 0.5546 -0.6088 -0.5673
vn 0.3816 -0.5432 -0.7479
vn 0.1579 -0.9708 -0.1807
vn -0.1782 -0.6496 -0.7391
vn -0.1975 -0.9424 -0.2700
vn -0.1971 -0.6698 -0.7159
vn 0.2707 -0.8140 -0.5139
vn 0.2981 -0.7725 -0.5608
vn 0.0940 -0.9052 -0.4146
vn 0.1105 -0.5935 -0.7972
vn -0.0519 -0.4006 -0.9148
vn 0.6892 -0.6209 -0.3734
vn -0.1751 -0.9087 -0.3788
vn -0.1433 -0.8710 -0.4699
vn 0.0749 -0.7449 -0.6629
vn 0.1398 -0.6870 -0.7131
vn 0.1557 -0.7693 -0.6197
vn 0.4687 -0.4759 -0.7442
vn 0.3699 -0.6886 -0.6236
vn -0.3800 -0.7704 -0.5120
vn -0.4018 -0.6624 -0.6322
vn -0.0458 -0.9059 -0.4210
vn -0.1601 -0.5284 -0.8338
vn -0.1544 -0.6514 -0.7428
vn -0.1258 -0.5427 -0.8304
vn -0.1843 -0.9035 -0.3870
vn 0.0050 -0.6940 -0.7200
vn 0.0283 -0.6914 -0.7219
vn -0.2388 -0.7599 -0.6046
vn -0.2441 -0.8419 -0.4813
vn -0.2081 -0.9422 -0.2626
vn -0.8223 -0.1445 -0.5504
vn -0.1411 -0.8884 -0.4368
vn -0.0644 -0.7414 -0.6680
vn -0.5845 -0.6241 -0.5185
vn -0.6626 -0.7122 -0.2318
vn -0.7941 -0.5246 -0.3071
vn -0.3628 -0.8896 -0.2776
vn -0.4903 -0.8202 -0.2948
vn -0.5777 -0.7272 -0.3707
vn -0.3732 -0.7436 -0.5548
vn -0.5270 -0.7521 -0.3958
vn -0.3255 -0.9291 -0.1754
vn -0.1992 -0.8248 -0.5292
vn -0.6422 -0.3032 -0.7040
vn -0.7978 -0.1493 -0.5841
vn -0.7502 -0.5048 -0.4272
vn -0.7145 -0.6484 -0.2629
vn -0.5064 -0.8448 -0.1728
vn -0.6824 -0.0698 -0.7276
vn -0.9563 0.0708 -0.2837
vn -0.5708 -0.8210 -0.0149
vn -0.6877 -0.6281 0.3639
vn -0.4944 -0.5895 0.6388
vn -0.0437 -0.9970 -0.0637
vn -0.1241 -0.9922 0.0104
vn -0.1029 -0.8071 0.5813
vn -0.1371 -0.9825 0.1265
vn -0.4405 -0.8063 0.3949
vn -0.6086 -0.6922 0.3880
vn -0.4353 -0.8974 0.0726
vn -0.4446 -0.8935 0.0628
vn -0.4668 -0.7962 0.3850
vn -0.1892 -0.7704 0.6088
vn -0.7716 -0.6346 -0.0436
vn -0.7418 -0.6679 -0.0603
vn -0.1901 -0.7715 0.6071
vn -0.2370 -0.6785 0.6953
vn -0.2558 -0.9535 0.1594
vn -0.5624 -0.4590 0.6878
vn -0.5219 -0.6509 0.5513
vn -0.2367 -0.3747 0.8964
vn -0.2043 -0.7668 0.6084
vn 0.9767 -0.2100 0.0433
vn 0.8798 -0.4240 0.2147
vn 0.4366 -0.8673 0.2391
vn 0.7544 -0.6467 -0.1125
vn 0.7687 -0.5935 -0.2383
vn 0.7470 -0.6373 -0.1893
vn 0.4201 -0.8822 -0.2129
vn 0.8544 -0.5190 -0.0244
vn 0.7288 -0.6388 -0.2466
vn 0.2690 -0.9577 -0.1019
vn 0.6696 -0.7350 -0.1064
vn 0.7068 -0.6795 0.1966
vn 0.4894 -0.8639 -0.1186
vn 0.3907 -0.8494 -0.3548
vn 0.7780 -0.6252 -0.0626
vn 0.7542 -0.6323 -0.1769
vn 0.5286 -0.8175 0.2287
vn 0.2935 -0.9528 0.0773
vn 0.3371 -0.9303 0.1444
vn 0.7657 -0.6154 0.1872
vn 0.6994 -0.7142 0.0258
vn 0.4438 -0.8939 -0.0631
vn -0.3158 -0.3143 0.8953
vn -0.2982 -0.3072 0.9037
vn -0.0808 -0.7127 0.6968
vn 0.0168 -0.7161 0.6978
vn 0.1759 -0.5677 0.8042
vn 0.3179 -0.6048 0.7301
vn 0.2355 -0.8219 0.5186
vn 0.3330 -0.6476 0.6854
vn -0.1791 -0.7066 0.6845
vn 0.2329 -0.3534 0.9060
vn 0.1575 -0.6076 0.7784
vn 0.3664 -0.5530 0.7483
vn -0.0740 -0.4756 0.8765
vn -0.0787 -0.4913 0.8674
vn 0.6404 -0.6503 0.4085
vn 0.6237 -0.5795 0.5245
vn 0.0748 -0.8999 0.4296
vn 0.0420 -0.1915 0.9806
vn 0.0238 -0.9944 0.1029
vn 0.0517 -0.9931 0.1049
vn 0.2502 -0.9245 0.2874
vn 0.5165 -0.8479 0.1195
vn 0.4802 -0.6808 0.5532
vn 0.5322 -0.8422 0.0863
vt 0.442837 0.450833
vt 0.452083 0.426570
vt 0.461833 0.454272
vt 0.458664 0.399128
vt 0.479073 0.416257
vt 0.418195 0.394618
vt 0.487597 0.367686
vt 0.500000 0.393652
vt 0.401231 0.363838
vt 0.455309 0.363088
vt 0.386364 0.354286
vt 0.401538 0.338522
vt 0.453820 0.333182
vt 0.502935 0.323661
vt 0.503288 0.358383
vt 0.527865 0.338282
vt 0.478201 0.323847
vt 0.525241 0.304949
vt 0.539773 0.324762
vt 0.350613 0.317120
vt 0.401177 0.310377
vt 0.484690 0.285690
vt 0.548883 0.295838
vt 0.585228 0.383810
vt 0.622660 0.373668
vt 0.638723 0.406316
vt 0.559459 0.339178
vt 0.577280 0.353777
vt 0.568182 0.354286
vt 0.618094 0.435987
vt 0.647922 0.442085
vt 0.607616 0.418070
vt 0.665093 0.392832
vt 0.670455 0.413334
vt 0.642322 0.383585
vt 0.690116 0.379279
vt 0.681818 0.393652
vt 0.582222 0.373969
vt 0.673466 0.366823
vt 0.652684 0.349526
vt 0.700758 0.355916
vt 0.624839 0.346981
vt 0.683632 0.339592
vt 0.578915 0.332285
vt 0.599472 0.314657
vt 0.645284 0.307682
vt 0.695959 0.309792
vt 0.743754 0.309743
vt 0.569888 0.287240
vt 0.621842 0.302749
vt 0.671701 0.306947
vt 0.808979 0.444965
vt 0.827648 0.418427
vt 0.829545 0.452700
vt 0.803061 0.383438
vt 0.853002 0.386217
vt 0.854979 0.404192
vt 0.843564 0.361296
vt 0.869527 0.370111
vt 0.785867 0.362934
vt 0.840600 0.337808
vt 0.882013 0.344413
vt 0.744282 0.339512
vt 0.770782 0.321135
vt 0.770712 0.347236
vt 0.848111 0.307931
vt 0.884907 0.324218
vt 0.068183 0.433017
vt 0.094598 0.418823
vt 0.096648 0.446899
vt 0.057231 0.403291
vt 0.011364 0.334604
vt 0.057660 0.338053
vt 0.019342 0.347811
vt 0.121700 0.413348
vt 0.098210 0.392034
vt 0.136365 0.393652
vt 0.045372 0.390079
vt 0.076584 0.374164
vt 0.142046 0.383810
vt 0.041281 0.372066
vt 0.115835 0.366426
vt 0.094414 0.352673
vt 0.137594 0.342220
vt 0.154865 0.353827
vt 0.119330 0.327352
vt 0.166512 0.332944
vt 0.021549 0.295049
vt 0.089446 0.314217
vt 0.070601 0.302461
vt 0.118488 0.299049
vt 0.136618 0.312875
vt 0.167020 0.306447
vt 0.207390 0.351606
vt 0.226366 0.344318
vt 0.215910 0.373969
vt 0.260092 0.446920
vt 0.279813 0.428324
vt 0.278410 0.462541
vt 0.238834 0.413021
vt 0.266331 0.388091
vt 0.304159 0.390033
vt 0.297460 0.429544
vt 0.318748 0.392673
vt 0.249469 0.375227
vt 0.309824 0.372767
vt 0.330563 0.371778
vt 0.241059 0.354115
vt 0.272622 0.342102
vt 0.294131 0.356494
vt 0.329535 0.339453
vt 0.201750 0.332440
vt 0.308553 0.323601
vt 0.347893 0.317120
vt 0.346592 0.344445
vt 0.275638 0.316269
vt 0.228770 0.302343
vt 0.248500 0.303377
vt 0.324798 0.300847
vt 0.401440 0.247516
vt 0.407293 0.274474
vt 0.364250 0.282949
vt 0.441244 0.185636
vt 0.453717 0.213724
vt 0.424094 0.214482
vt 0.437079 0.293499
vt 0.439431 0.270232
vt 0.453615 0.254793
vt 0.471188 0.292728
vt 0.484059 0.246827
vt 0.498929 0.292547
vt 0.472420 0.197392
vt 0.513702 0.258058
vt 0.451575 0.156929
vt 0.587959 0.202909
vt 0.621660 0.242562
vt 0.587996 0.251198
vt 0.603244 0.269888
vt 0.601553 0.290262
vt 0.652022 0.273095
vt 0.646415 0.240087
vt 0.680618 0.268634
vt 0.644655 0.156128
vt 0.650089 0.187452
vt 0.664164 0.208024
vt 0.684743 0.238589
vt 0.697249 0.277358
vt 0.727759 0.286253
vt 0.784938 0.171450
vt 0.824584 0.158558
vt 0.802965 0.201235
vt 0.747267 0.286842
vt 0.774036 0.287532
vt 0.739616 0.260863
vt 0.804549 0.293443
vt 0.776039 0.240709
vt 0.804636 0.275070
vt 0.808070 0.233301
vt 0.764329 0.212645
vt 0.823766 0.217842
vt 0.836089 0.250754
vt 0.863562 0.286385
vt 0.842932 0.210416
vt 0.876349 0.222641
vt 0.894361 0.276085
vt 0.841414 0.185484
vt 0.881029 0.250630
vt 0.059756 0.286875
vt 0.022728 0.275556
vt 0.047900 0.262436
vt 0.049112 0.236379
vt 0.072760 0.249187
vt 0.104629 0.278724
vt 0.068524 0.206396
vt 0.099108 0.256204
vt 0.090275 0.215123
vt 0.103766 0.237606
vt 0.127869 0.264032
vt 0.144490 0.286520
vt 0.084227 0.177518
vt 0.124669 0.216390
vt 0.108052 0.181929
vt 0.158699 0.265509
vt 0.185031 0.254029
vt 0.214720 0.288271
vt 0.200282 0.266178
vt 0.234061 0.229774
vt 0.227466 0.253212
vt 0.215187 0.228856
vt 0.227306 0.198265
vt 0.266452 0.229600
vt 0.252204 0.160207
vt 0.281046 0.202640
vt 0.250469 0.186981
vt 0.258000 0.258329
vt 0.274492 0.294815
vt 0.295097 0.261493
vt 0.306051 0.288982
vt 0.289829 0.240809
vt 0.303432 0.238952
vt 0.262058 0.147676
vt 0.329639 0.267931
vt 0.297520 0.194492
vt 0.327604 0.206170
vt 0.505589 0.209148
vt 0.484620 0.167518
vt 0.541164 0.243982
vt 0.535549 0.209337
vt 0.573527 0.181113
vt 0.508711 0.167133
vt 0.606954 0.143507
vt 0.553784 0.161385
vt 0.704507 0.214368
vt 0.724486 0.240302
vt 0.707815 0.186636
vt 0.770056 0.189466
vt 0.673561 0.154278
vt 0.725090 0.146845
vt 0.695155 0.147832
vt 0.918662 0.294186
vt 0.858988 0.198270
vt 0.912090 0.243978
vt 0.925822 0.232308
vt 0.943771 0.250289
vt 0.904301 0.212298
vt 0.953613 0.235081
vt 0.918886 0.217974
vt 0.969069 0.199735
vt 0.893181 0.174909
vt 0.930695 0.184363
vt 0.862794 0.161199
vt 0.976122 0.169904
vt 0.933646 0.142325
vt 0.899345 0.152046
vt 0.983067 0.135062
vt 1.000000 0.157461
vt 0.171738 0.233879
vt 0.159631 0.215430
vt 0.200309 0.211326
vt 0.134618 0.182919
vt 0.189017 0.189164
vt 0.165039 0.171967
vt 0.197571 0.156806
vt 0.217479 0.171516
vt 0.126547 0.152141
vt 0.221864 0.127676
vt 0.362503 0.260694
vt 0.344380 0.240447
vt 0.377825 0.233331
vt 0.394435 0.214135
vt 0.368007 0.196478
vt 0.322644 0.183896
vt 0.374121 0.169101
vt 0.321154 0.157219
vt 0.408462 0.156471
vt 0.279089 0.154938
vt 0.545138 0.009448
vt 0.547229 0.027555
vt 0.528458 0.030535
vt 0.476773 0.132386
vt 0.456398 0.159208
vt 0.499029 0.139317
vt 0.495611 0.099940
vt 0.534755 0.132895
vt 0.508442 0.081271
vt 0.539576 0.105641
vt 0.525443 0.068349
vt 0.583528 0.129491
vt 0.517046 0.049207
vt 0.587081 0.109747
vt 0.558452 0.047746
vt 0.584572 0.085569
vt 0.616065 0.122813
vt 0.626488 0.146372
vt 0.670455 0.098413
vt 0.694186 0.122099
vt 0.663022 0.123646
vt 0.677535 0.086149
vt 0.710228 0.029524
vt 0.717939 0.051960
vt 0.703515 0.052146
vt 0.721417 0.092644
vt 0.752582 0.123899
vt 0.777534 0.140961
vt 0.758725 0.078039
vt 0.768611 0.097962
vt 0.724978 0.009800
vt 0.737546 0.021654
vt 0.749772 0.045462
vt 0.792623 0.116163
vt 0.810535 0.147228
vt 0.772727 0.078731
vt 0.806818 0.137778
vt 0.847428 0.138475
vt 0.844259 0.118161
vt 0.869810 0.126609
vt 0.859439 0.091142
vt 0.882102 0.110218
vt 0.874397 0.071073
vt 0.906499 0.104698
vt 0.887387 0.044576
vt 0.923517 0.087506
vt 0.952474 0.112520
vt 0.910334 0.026299
vt 0.936621 0.062962
vt 0.933530 0.042330
vt 0.959200 0.086792
vt 0.967242 0.100721
vt 0.434765 0.132271
vt 0.389358 0.130970
vt 0.412196 0.107127
vt 0.354739 0.128528
vt 0.380782 0.096023
vt 0.404741 0.080405
vt 0.389532 0.063066
vt 0.346682 0.092168
vt 0.362687 0.058453
vt 0.318028 0.118915
vt 0.318446 0.080151
vt 0.330286 0.057767
vt 0.349146 0.025099
vt 0.371883 0.030741
vt 0.366197 0.012241
vt 0.105343 0.135336
vt 0.136717 0.110272
vt 0.156190 0.135958
vt 0.187943 0.128778
vt 0.145444 0.063005
vt 0.165774 0.060048
vt 0.145254 0.087087
vt 0.177625 0.102852
vt 0.190323 0.035575
vt 0.205416 0.067754
vt 0.170408 0.019765
vt 0.181918 0.006948
vt 0.218949 0.082268
vt 0.242815 0.105650
s 0
usemtl gas_planet4_cloud1
f 208/185/257 160/186/257 161/187/257
f 169/188/258 167/189/258 160/186/258
f 160/186/259 159/190/259 169/188/259
f 169/188/260 170/191/260 167/189/260
f 167/189/261 170/191/261 178/192/261
f 158/193/262 171/194/262 159/190/262
f 159/190/263 171/194/263 169/188/263
f 171/194/264 170/191/264 169/188/264
f 215/195/265 157/196/265 158/193/265
f 158/193/266 173/197/266 171/194/266
f 170/191/267 174/198/267 172/199/267
f 174/198/268 175/200/268 172/199/268
f 158/193/269 157/196/269 173/197/269
f 173/197/270 176/201/270 171/194/270
f 171/194/271 176/201/271 170/191/271
f 176/201/272 174/198/272 170/191/272
f 174/198/273 231/202/273 175/200/273
f 231/202/274 186/203/274 175/200/274
f 218/204/275 177/205/275 157/196/275
f 157/196/276 177/205/276 173/197/276
f 176/201/277 226/206/277 174/198/277
f 231/202/278 150/207/278 186/203/278
f 170/208/279 180/209/279 178/210/279
f 175/211/280 168/212/280 172/213/280
f 160/214/281 178/210/281 161/215/281
f 167/216/282 178/210/282 160/214/282
f 178/210/283 179/217/283 161/215/283
f 179/217/284 164/218/284 161/215/284
f 180/209/285 181/219/285 178/210/285
f 178/210/286 181/219/286 179/217/286
f 179/217/287 165/220/287 164/221/287
f 170/208/288 172/222/288 180/209/288
f 181/219/289 182/223/289 179/217/289
f 179/217/290 182/223/290 165/220/290
f 168/212/291 180/209/291 172/222/291
f 180/209/292 183/224/292 181/219/292
f 183/224/293 182/223/293 181/219/293
f 182/223/294 166/225/294 165/220/294
f 168/212/295 184/226/295 180/209/295
f 180/209/296 184/226/296 183/224/296
f 185/227/297 166/225/297 182/223/297
f 168/212/298 186/228/298 184/226/298
f 182/223/299 183/224/299 185/227/299
f 175/211/300 186/228/300 168/212/300
f 186/228/301 187/229/301 184/226/301
f 187/229/302 188/230/302 184/226/302
f 184/226/303 188/230/303 183/224/303
f 239/231/304 148/232/304 185/227/304
f 149/233/305 187/229/305 186/228/305
f 234/234/306 188/230/306 187/229/306
f 188/230/307 152/235/307 183/224/307
f 183/224/308 152/235/308 185/227/308
f 152/235/309 239/231/309 185/227/309
f 161/236/310 189/237/310 162/238/310
f 161/236/311 164/239/311 189/237/311
f 164/239/312 190/240/312 189/237/312
f 189/237/313 190/240/313 163/241/313
f 164/239/314 191/242/314 190/240/314
f 191/242/315 192/243/315 190/240/315
f 165/244/316 193/245/316 164/239/316
f 164/239/317 193/245/317 191/242/317
f 193/245/318 194/246/318 191/242/318
f 191/242/319 194/246/319 192/243/319
f 185/247/320 195/248/320 166/249/320
f 166/249/321 193/245/321 165/244/321
f 166/249/322 197/250/322 193/245/322
f 193/245/323 197/250/323 194/246/323
f 197/250/324 196/251/324 194/246/324
f 185/247/325 148/232/325 195/248/325
f 189/252/326 198/253/326 162/254/326
f 163/255/327 198/253/327 189/252/327
f 196/256/328 204/257/328 194/258/328
f 198/253/329 153/259/329 162/254/329
f 163/255/330 199/260/330 198/253/330
f 199/260/331 153/259/331 198/253/331
f 199/260/332 154/261/332 153/259/332
f 190/262/333 200/263/333 163/255/333
f 163/255/334 200/263/334 199/260/334
f 199/260/335 155/264/335 154/261/335
f 192/265/336 200/263/336 190/262/336
f 200/263/337 201/266/337 199/260/337
f 199/260/338 201/266/338 155/264/338
f 194/258/339 204/257/339 192/265/339
f 192/265/340 204/257/340 200/263/340
f 204/257/341 202/267/341 200/263/341
f 200/263/342 202/267/342 201/266/342
f 202/267/343 203/268/343 201/266/343
f 203/268/344 156/269/344 201/266/344
f 204/257/345 205/270/345 202/267/345
f 202/267/346 205/270/346 203/268/346
f 203/268/347 206/271/347 156/269/347
f 196/256/348 304/272/348 204/257/348
f 260/273/349 205/270/349 204/257/349
f 205/270/350 206/271/350 203/268/350
f 304/272/351 151/274/351 204/257/351
f 204/257/352 151/274/352 260/273/352
f 260/273/353 262/275/353 205/270/353
f 262/275/354 265/276/354 205/270/354
f 205/270/355 265/276/355 206/271/355
f 265/276/356 207/277/356 206/271/356
f 156/278/357 212/279/357 201/280/357
f 162/281/358 208/282/358 161/283/358
f 153/284/359 209/285/359 162/281/359
f 162/281/360 209/285/360 208/282/360
f 208/282/361 210/286/361 160/287/361
f 208/282/362 209/285/362 210/286/362
f 210/286/363 159/288/363 160/287/363
f 153/284/364 154/289/364 209/285/364
f 210/286/365 211/290/365 159/288/365
f 211/290/366 158/291/366 159/288/366
f 201/280/367 212/279/367 155/292/367
f 214/293/368 213/294/368 209/285/368
f 209/285/369 213/294/369 210/286/369
f 210/286/370 213/294/370 211/290/370
f 155/292/371 214/293/371 154/289/371
f 154/289/372 214/293/372 209/285/372
f 213/294/373 215/295/373 211/290/373
f 211/290/374 215/295/374 158/291/374
f 206/296/375 212/279/375 156/278/375
f 214/293/376 216/297/376 213/294/376
f 213/294/377 216/297/377 215/295/377
f 215/295/378 218/298/378 157/299/378
f 214/293/379 217/300/379 216/297/379
f 216/297/380 218/204/380 215/295/380
f 207/277/381 270/301/381 206/296/381
f 206/296/382 270/301/382 212/279/382
f 212/279/383 272/302/383 155/292/383
f 272/302/384 217/300/384 155/292/384
f 155/292/385 217/300/385 214/293/385
f 216/297/386 279/303/386 218/204/386
f 332/304/387 219/305/387 284/306/387
f 338/307/388 224/308/388 336/309/388
f 284/306/389 177/205/389 218/204/389
f 284/306/390 219/305/390 177/205/390
f 219/305/391 220/310/391 177/205/391
f 219/305/392 221/311/392 220/310/392
f 220/310/393 173/197/393 177/205/393
f 332/304/394 221/311/394 219/305/394
f 332/304/395 336/309/395 221/311/395
f 220/310/396 176/201/396 173/197/396
f 222/312/397 221/311/397 336/309/397
f 221/311/398 222/312/398 220/310/398
f 222/312/399 223/313/399 220/310/399
f 223/313/400 176/201/400 220/310/400
f 223/313/401 226/206/401 176/201/401
f 224/308/402 222/312/402 336/309/402
f 222/312/403 226/206/403 223/313/403
f 224/308/404 225/314/404 222/312/404
f 225/314/405 226/206/405 222/312/405
f 226/206/406 227/315/406 174/198/406
f 338/307/407 228/316/407 224/308/407
f 227/315/408 231/202/408 174/198/408
f 228/316/409 225/314/409 224/308/409
f 225/314/410 230/317/410 226/206/410
f 226/206/411 230/317/411 227/315/411
f 230/317/412 231/202/412 227/315/412
f 229/318/413 228/316/413 338/307/413
f 228/316/414 230/317/414 225/314/414
f 230/317/415 150/207/415 231/202/415
f 289/319/416 235/320/416 286/321/416
f 150/207/417 149/233/417 186/228/417
f 232/322/418 233/323/418 149/233/418
f 233/323/419 234/234/419 149/233/419
f 149/233/420 234/234/420 187/229/420
f 149/233/421 286/321/421 232/322/421
f 232/322/422 234/234/422 233/323/422
f 286/321/423 235/320/423 232/322/423
f 232/322/424 236/324/424 234/234/424
f 236/324/425 188/230/425 234/234/425
f 235/320/426 236/324/426 232/322/426
f 236/324/427 152/235/427 188/230/427
f 289/319/428 237/325/428 235/320/428
f 235/320/429 237/325/429 236/324/429
f 236/324/430 238/326/430 152/235/430
f 131/327/431 240/328/431 289/319/431
f 289/319/432 240/328/432 237/325/432
f 240/328/433 241/329/433 237/325/433
f 238/326/434 239/231/434 152/235/434
f 237/325/435 241/329/435 242/330/435
f 237/325/436 242/330/436 236/324/436
f 242/330/437 238/326/437 236/324/437
f 238/326/438 243/331/438 239/231/438
f 244/332/439 148/232/439 239/231/439
f 243/331/440 244/332/440 239/231/440
f 303/333/441 252/334/441 146/335/441
f 147/336/442 245/337/442 148/232/442
f 148/232/443 245/337/443 195/248/443
f 295/338/444 245/337/444 147/336/444
f 245/337/445 246/339/445 195/248/445
f 295/338/446 297/340/446 245/337/446
f 247/341/447 246/339/447 245/337/447
f 297/340/448 247/341/448 245/337/448
f 246/339/449 197/250/449 195/248/449
f 197/250/450 166/249/450 195/248/450
f 297/340/451 248/342/451 247/341/451
f 299/343/452 146/335/452 297/340/452
f 146/335/453 248/342/453 297/340/453
f 146/335/454 249/344/454 248/342/454
f 248/342/455 250/345/455 247/341/455
f 247/341/456 250/345/456 246/339/456
f 250/345/457 251/346/457 246/339/457
f 246/339/458 251/346/458 197/250/458
f 248/342/459 249/344/459 250/345/459
f 251/346/460 196/251/460 197/250/460
f 252/334/461 253/347/461 146/335/461
f 146/335/462 253/347/462 249/344/462
f 253/347/463 254/348/463 249/344/463
f 249/344/464 254/348/464 250/345/464
f 251/346/465 255/349/465 196/251/465
f 252/334/466 145/350/466 253/347/466
f 254/348/467 144/351/467 250/345/467
f 250/345/468 144/351/468 251/346/468
f 144/351/469 255/349/469 251/346/469
f 256/352/470 151/274/470 304/272/470
f 305/353/471 257/354/471 304/272/471
f 257/354/472 256/352/472 304/272/472
f 308/355/473 258/356/473 257/354/473
f 257/354/474 258/356/474 256/352/474
f 256/352/475 259/357/475 151/274/475
f 259/357/476 260/273/476 151/274/476
f 310/358/477 258/356/477 308/355/477
f 258/356/478 261/359/478 256/352/478
f 259/357/479 262/275/479 260/273/479
f 310/358/480 263/360/480 258/356/480
f 264/361/481 261/359/481 258/356/481
f 261/359/482 259/357/482 256/352/482
f 258/356/483 263/360/483 264/361/483
f 261/359/484 266/362/484 259/357/484
f 259/357/485 266/362/485 262/275/485
f 266/362/486 267/363/486 262/275/486
f 314/364/487 263/360/487 310/358/487
f 268/365/488 264/361/488 263/360/488
f 261/359/489 264/361/489 266/362/489
f 262/275/490 267/363/490 265/276/490
f 267/363/491 207/277/491 265/276/491
f 314/364/492 269/366/492 263/360/492
f 263/360/493 269/366/493 268/365/493
f 264/361/494 141/367/494 266/362/494
f 264/361/495 268/365/495 141/367/495
f 266/362/496 141/367/496 267/363/496
f 141/367/497 207/277/497 267/363/497
f 316/368/498 271/369/498 207/277/498
f 317/370/499 271/369/499 316/368/499
f 142/371/500 143/372/500 319/373/500
f 322/374/501 277/375/501 142/371/501
f 329/376/502 280/377/502 326/378/502
f 207/277/503 271/369/503 270/301/503
f 317/370/504 143/372/504 271/369/504
f 270/301/505 272/302/505 212/279/505
f 143/372/506 270/301/506 271/369/506
f 143/372/507 273/379/507 270/301/507
f 270/301/508 274/380/508 272/302/508
f 272/302/509 274/380/509 217/300/509
f 142/371/510 273/379/510 143/372/510
f 270/301/511 273/379/511 274/380/511
f 275/381/512 274/380/512 273/379/512
f 274/380/513 276/382/513 217/300/513
f 276/382/514 216/297/514 217/300/514
f 142/371/515 277/375/515 273/379/515
f 322/374/516 326/378/516 277/375/516
f 277/375/517 278/383/517 273/379/517
f 278/383/518 275/381/518 273/379/518
f 276/382/519 279/303/519 216/297/519
f 326/378/520 280/377/520 277/375/520
f 275/381/521 276/382/521 274/380/521
f 280/377/522 281/384/522 277/375/522
f 277/375/523 281/384/523 278/383/523
f 278/383/524 281/384/524 275/381/524
f 329/376/525 282/385/525 280/377/525
f 281/384/526 283/386/526 275/381/526
f 275/381/527 283/386/527 276/382/527
f 276/382/528 283/386/528 279/303/528
f 283/386/529 284/306/529 279/303/529
f 279/303/530 284/306/530 218/204/530
f 282/385/531 140/387/531 280/377/531
f 140/387/532 139/388/532 280/377/532
f 280/377/533 139/388/533 281/384/533
f 228/316/534 287/389/534 230/317/534
f 229/318/535 292/390/535 228/316/535
f 150/207/536 285/391/536 149/233/536
f 285/391/537 286/321/537 149/233/537
f 230/317/538 287/389/538 150/207/538
f 287/389/539 285/391/539 150/207/539
f 287/389/540 288/392/540 285/391/540
f 288/392/541 289/319/541 285/391/541
f 285/391/542 289/319/542 286/321/542
f 288/392/543 290/393/543 289/319/543
f 228/316/544 292/390/544 287/389/544
f 292/390/545 291/394/545 287/389/545
f 287/389/546 291/394/546 288/392/546
f 291/394/547 290/393/547 288/392/547
f 290/393/548 293/395/548 289/319/548
f 289/319/549 293/395/549 131/327/549
f 291/394/550 294/396/550 290/393/550
f 294/396/551 293/395/551 290/393/551
f 238/326/552 295/338/552 243/331/552
f 241/329/553 298/397/553 242/330/553
f 244/332/554 147/336/554 148/232/554
f 243/331/555 295/338/555 244/332/555
f 244/332/556 295/338/556 147/336/556
f 238/326/557 242/330/557 295/338/557
f 242/330/558 296/398/558 295/338/558
f 296/398/559 297/340/559 295/338/559
f 242/330/560 298/397/560 296/398/560
f 296/398/561 299/343/561 297/340/561
f 298/397/562 299/343/562 296/398/562
f 241/329/563 300/399/563 298/397/563
f 300/399/564 299/343/564 298/397/564
f 299/343/565 301/400/565 146/335/565
f 240/328/566 302/401/566 241/329/566
f 241/329/567 302/401/567 300/399/567
f 300/399/568 354/402/568 299/343/568
f 354/402/569 301/400/569 299/343/569
f 301/400/570 303/333/570 146/335/570
f 131/327/571 302/401/571 240/328/571
f 302/401/572 352/403/572 300/399/572
f 352/403/573 354/402/573 300/399/573
f 255/349/574 304/404/574 196/251/574
f 145/350/575 311/405/575 253/347/575
f 255/349/576 305/406/576 304/404/576
f 144/351/577 305/406/577 255/349/577
f 306/407/578 257/408/578 305/406/578
f 307/409/579 305/406/579 144/351/579
f 306/407/580 308/410/580 257/408/580
f 144/351/581 254/348/581 307/409/581
f 307/409/582 309/411/582 305/406/582
f 305/406/583 309/411/583 306/407/583
f 309/411/584 310/412/584 306/407/584
f 306/407/585 310/412/585 308/410/585
f 253/347/586 311/405/586 254/348/586
f 312/413/587 307/409/587 254/348/587
f 311/405/588 312/413/588 254/348/588
f 307/409/589 313/414/589 309/411/589
f 309/411/590 313/414/590 310/412/590
f 312/413/591 313/414/591 307/409/591
f 311/405/592 315/415/592 312/413/592
f 313/414/593 314/416/593 310/412/593
f 252/334/594 315/415/594 145/350/594
f 145/350/595 315/415/595 311/405/595
f 312/413/596 367/417/596 313/414/596
f 367/417/597 314/416/597 313/414/597
f 315/415/598 365/418/598 312/413/598
f 312/413/599 365/418/599 367/417/599
f 371/419/600 269/420/600 314/416/600
f 141/367/601 316/368/601 207/277/601
f 141/367/602 318/421/602 316/368/602
f 316/368/603 319/373/603 317/370/603
f 317/370/604 319/373/604 143/372/604
f 268/365/605 320/422/605 141/367/605
f 141/367/606 320/422/606 318/421/606
f 318/421/607 321/423/607 316/368/607
f 316/368/608 321/423/608 319/373/608
f 320/422/609 321/423/609 318/421/609
f 321/423/610 322/374/610 319/373/610
f 319/373/611 322/374/611 142/371/611
f 269/366/612 323/424/612 268/365/612
f 268/365/613 323/424/613 320/422/613
f 320/422/614 324/425/614 321/423/614
f 324/425/615 322/374/615 321/423/615
f 323/424/616 325/426/616 320/422/616
f 325/426/617 324/425/617 320/422/617
f 325/426/618 327/427/618 324/425/618
f 324/425/619 328/428/619 322/374/619
f 328/428/620 326/378/620 322/374/620
f 323/424/621 381/429/621 325/426/621
f 324/425/622 327/427/622 328/428/622
f 328/428/623 329/376/623 326/378/623
f 327/427/624 385/430/624 328/428/624
f 283/386/625 330/431/625 284/306/625
f 281/384/626 331/432/626 283/386/626
f 283/386/627 331/432/627 330/431/627
f 330/431/628 332/304/628 284/306/628
f 331/432/629 333/433/629 330/431/629
f 330/431/630 333/433/630 332/304/630
f 333/433/631 334/434/631 332/304/631
f 334/434/632 336/309/632 332/304/632
f 281/384/633 139/388/633 331/432/633
f 331/432/634 335/435/634 333/433/634
f 335/435/635 334/434/635 333/433/635
f 139/388/636 335/435/636 331/432/636
f 140/387/637 337/436/637 139/388/637
f 337/436/638 335/435/638 139/388/638
f 334/434/639 338/307/639 336/309/639
f 337/436/640 339/437/640 335/435/640
f 335/435/641 339/437/641 334/434/641
f 334/434/642 339/437/642 338/307/642
f 340/438/643 339/437/643 337/436/643
f 339/437/644 341/439/644 338/307/644
f 282/440/645 340/438/645 140/387/645
f 140/387/646 340/438/646 337/436/646
f 341/439/647 229/318/647 338/307/647
f 135/441/648 348/442/648 136/443/648
f 372/444/649 292/390/649 229/445/649
f 372/444/650 342/446/650 292/390/650
f 342/446/651 291/394/651 292/390/651
f 374/447/652 342/446/652 372/444/652
f 342/446/653 294/396/653 291/394/653
f 374/447/654 343/448/654 342/446/654
f 342/446/655 343/448/655 294/396/655
f 137/449/656 344/450/656 374/447/656
f 374/447/657 344/450/657 343/448/657
f 137/449/658 377/451/658 344/450/658
f 343/448/659 346/452/659 294/396/659
f 346/452/660 293/395/660 294/396/660
f 379/453/661 136/443/661 377/451/661
f 377/451/662 345/454/662 344/450/662
f 345/454/663 346/452/663 344/450/663
f 344/450/664 346/452/664 343/448/664
f 136/443/665 347/455/665 377/451/665
f 377/451/666 347/455/666 345/454/666
f 348/442/667 347/455/667 136/443/667
f 347/455/668 349/456/668 345/454/668
f 345/454/669 350/457/669 346/452/669
f 346/452/670 350/457/670 293/395/670
f 350/457/671 131/458/671 293/395/671
f 345/459/672 351/460/672 350/461/672
f 349/462/673 351/460/673 345/459/673
f 348/463/674 356/464/674 347/465/674
f 350/461/675 302/401/675 131/327/675
f 350/461/676 351/460/676 302/401/676
f 351/460/677 352/403/677 302/401/677
f 349/462/678 353/466/678 351/460/678
f 351/460/679 354/402/679 352/403/679
f 351/460/680 355/467/680 354/402/680
f 354/402/681 303/333/681 301/400/681
f 349/462/682 347/465/682 353/466/682
f 347/465/683 356/464/683 353/466/683
f 353/466/684 355/467/684 351/460/684
f 355/467/685 357/468/685 354/402/685
f 354/402/686 357/468/686 303/333/686
f 356/464/687 358/469/687 353/466/687
f 358/469/688 359/470/688 353/466/688
f 353/466/689 359/470/689 355/467/689
f 348/463/690 135/471/690 356/464/690
f 135/471/691 360/472/691 356/464/691
f 361/473/692 358/469/692 356/464/692
f 359/470/693 362/474/693 355/467/693
f 355/467/694 362/474/694 357/468/694
f 362/474/695 252/475/695 357/468/695
f 357/468/696 252/475/696 303/333/696
f 360/472/697 361/473/697 356/464/697
f 358/469/698 364/476/698 359/470/698
f 362/474/699 138/477/699 252/475/699
f 138/478/700 315/415/700 252/334/700
f 362/479/701 363/480/701 138/478/701
f 138/478/702 363/480/702 315/415/702
f 363/480/703 365/418/703 315/415/703
f 359/481/704 364/482/704 362/479/704
f 362/479/705 364/482/705 363/480/705
f 364/482/706 365/418/706 363/480/706
f 358/483/707 366/484/707 364/482/707
f 366/484/708 367/417/708 364/482/708
f 364/482/709 367/417/709 365/418/709
f 358/483/710 361/485/710 366/484/710
f 361/485/711 368/486/711 366/484/711
f 366/484/712 368/486/712 367/417/712
f 368/486/713 370/487/713 367/417/713
f 360/488/714 369/489/714 361/485/714
f 361/485/715 369/489/715 368/486/715
f 370/487/716 371/419/716 367/417/716
f 367/417/717 371/419/717 314/416/717
f 360/488/718 134/490/718 369/489/718
f 369/489/719 133/491/719 368/486/719
f 368/486/720 133/491/720 370/487/720
f 133/491/721 132/492/721 370/487/721
f 132/492/722 371/419/722 370/487/722
f 341/439/723 372/493/723 229/318/723
f 373/494/724 372/493/724 341/439/724
f 373/494/725 374/495/725 372/493/725
f 339/437/726 373/494/726 341/439/726
f 375/496/727 373/494/727 339/437/727
f 373/494/728 376/497/728 374/495/728
f 376/497/729 137/498/729 374/495/729
f 339/437/730 340/438/730 375/496/730
f 375/496/731 376/497/731 373/494/731
f 376/497/732 377/499/732 137/498/732
f 375/496/733 378/500/733 376/497/733
f 340/438/734 378/500/734 375/496/734
f 378/500/735 379/501/735 376/497/735
f 376/497/736 379/501/736 377/499/736
f 340/438/737 380/502/737 378/500/737
f 282/440/738 380/502/738 340/438/738
f 380/502/739 388/503/739 378/500/739
f 388/503/740 386/504/740 378/500/740
f 378/500/741 386/504/741 379/501/741
f 386/504/742 387/505/742 379/501/742
f 379/501/743 387/505/743 136/506/743
f 387/505/744 135/507/744 136/506/744
f 371/508/745 381/429/745 269/366/745
f 381/429/746 323/424/746 269/366/746
f 371/508/747 132/509/747 381/429/747
f 132/509/748 382/510/748 381/429/748
f 382/510/749 325/426/749 381/429/749
f 382/510/750 327/427/750 325/426/750
f 132/509/751 383/511/751 382/510/751
f 382/510/752 383/511/752 327/427/752
f 369/512/753 134/513/753 133/514/753
f 133/514/754 384/515/754 132/509/754
f 384/515/755 383/511/755 132/509/755
f 134/513/756 384/515/756 133/514/756
f 383/511/757 385/430/757 327/427/757
f 384/515/758 385/430/758 383/511/758
f 387/516/759 386/517/759 134/513/759
f 134/513/760 386/517/760 384/515/760
f 386/517/761 385/430/761 384/515/761
f 385/430/762 329/376/762 328/428/762
f 360/518/763 135/519/763 134/513/763
f 135/519/764 387/516/764 134/513/764
f 386/517/765 388/520/765 385/430/765
f 388/520/766 282/385/766 385/430/766
f 385/430/767 282/385/767 329/376/767
f 380/521/768 282/385/768 388/520/768
