# Blender 5.0.1
# www.blender.org
mtllib ore_01.mtl
o ore_planet6
v -0.194819 -0.543940 0.828485
v 0.032018 -0.981360 0.219078
v 0.147744 -0.987207 -0.167005
v 0.544363 -0.770452 -0.369167
v 0.996192 0.152312 0.022228
v 1.004050 0.005244 0.127295
v 0.807445 -0.447676 0.404875
v 0.922878 0.295712 -0.270752
v -0.079146 -0.317930 0.955426
v -0.382359 -0.250039 0.896764
v -0.472349 0.007069 0.888223
v -0.549840 0.366449 0.764750
v -0.374343 -0.324983 -0.876989
v -0.986482 -0.117309 -0.200871
v -0.841920 0.388044 -0.386612
v -0.192519 -0.096470 -0.995874
v 0.095585 1.004099 0.054167
v 0.208131 0.867707 0.468196
v 0.351589 0.677906 0.655199
v 0.432251 0.912787 -0.009222
v -0.431440 0.819780 0.410839
v -0.570357 0.574820 0.600833
v -0.439812 0.875994 -0.223684
v -0.651937 0.698001 -0.338429
v -0.140643 0.990084 -0.130015
v 0.037850 0.772420 -0.652637
v 0.161004 0.950077 -0.303130
v 0.268787 0.857218 -0.458595
v 0.574291 0.799590 -0.220527
v 0.430800 0.728399 -0.554728
v 0.748343 0.588768 -0.328611
v 0.411687 0.508583 -0.766852
v 0.649217 0.507773 -0.576701
v -0.192588 0.919370 -0.363072
v -0.385890 0.747538 -0.558457
v -0.139011 0.588278 -0.811592
v -0.654845 0.482493 -0.594021
v -0.109155 0.981176 0.228824
v -0.439883 0.901422 0.087768
v -0.689570 0.733648 -0.024234
v -0.683374 0.701204 0.249436
v -0.864930 0.492991 -0.148802
v -0.804240 0.469979 0.388337
v -0.112984 0.825763 0.565405
v 0.048331 0.668044 0.758307
v -0.274817 0.564581 0.792784
v 0.331326 0.912566 0.267144
v 0.584548 0.780185 0.250492
v 0.647046 0.655851 0.423924
v 0.746597 0.672015 0.077025
v 0.888714 0.470519 -0.093654
v 0.850650 0.251358 -0.483085
v 0.791106 -0.069682 -0.617052
v 0.644546 0.213785 -0.748963
v 0.563681 -0.008290 -0.836868
v 0.278548 0.410605 -0.881866
v 0.615788 -0.313285 -0.734935
v -0.123186 0.342245 -0.942461
v -0.272685 -0.007495 -0.971421
v -0.463716 0.361810 -0.824974
v -0.618172 0.290863 -0.739555
v -0.601599 -0.073306 -0.808850
v -0.972356 0.208783 -0.159655
v -0.906102 0.438150 0.058611
v -0.978547 0.076153 0.247747
v -0.886880 0.254239 0.419611
v -0.957469 -0.241983 0.217163
v -0.252402 0.213679 0.952388
v -0.000869 0.404140 0.922558
v -0.153320 -0.034314 0.997481
v 0.217763 0.191516 0.968489
v 0.318321 0.408524 0.863455
v 0.589086 0.457355 0.684698
v 0.674416 0.343513 0.664655
v 0.840367 0.006110 0.559305
v 0.886960 0.268408 0.400250
v 0.891756 0.414506 0.214096
v 0.875862 -0.204413 0.460865
v 0.200379 0.090558 -0.987619
v 0.220619 -0.222939 -0.964382
v 0.203093 -0.475807 -0.864314
v -0.117260 -0.468885 -0.884255
v 0.429473 -0.587157 -0.700781
v -0.830592 0.089843 -0.572918
v -0.912769 0.107990 -0.410459
v -0.654587 -0.291788 -0.709102
v -0.777843 -0.416511 -0.494044
v -0.904211 -0.382062 -0.213160
v -0.667193 0.095677 0.748784
v -0.808096 -0.090581 0.595437
v -0.729099 -0.272551 0.653765
v -0.903149 -0.437620 0.097645
v -0.727507 -0.588348 0.382961
v -0.505217 -0.501058 0.713347
v 0.560576 0.124569 0.827973
v 0.229597 -0.056538 0.979956
v 0.655904 -0.119732 0.754939
v 0.368452 -0.251179 0.909436
v 0.108972 -0.452382 0.891062
v 0.611768 -0.438892 0.668283
v 0.350612 -0.528299 0.781129
v 0.945884 -0.032856 -0.353623
v 0.968404 -0.232608 -0.150303
v 0.942715 -0.325256 0.147682
v 0.862357 -0.291399 -0.429508
v 0.873464 -0.480974 -0.132516
v 0.793742 -0.588584 0.197130
v 0.744936 -0.513659 -0.450542
v 0.230255 -0.816814 -0.545183
v -0.022160 -0.736023 -0.693063
v -0.045673 -0.922051 -0.407848
v -0.427975 -0.608981 -0.688494
v -0.356271 -0.785601 -0.520607
v -0.547277 -0.788898 -0.321184
v -0.286411 -0.959563 -0.133048
v -0.770147 -0.629651 -0.174577
v -0.186256 -0.986003 0.097687
v -0.664633 -0.761691 0.063800
v -0.571218 -0.751001 0.359448
v -0.405136 -0.891325 0.235707
v -0.356594 -0.708852 0.622747
v -0.159838 -0.855310 0.519392
v 0.706349 -0.714045 -0.059913
v 0.463581 -0.884528 -0.107127
v 0.525516 -0.827913 0.254326
v 0.245708 -0.976728 0.105182
v 0.099351 -0.694832 0.721463
v 0.150519 -0.875332 0.477090
v 0.383964 -0.705256 0.607650
v 0.633922 -0.632338 0.457956
vn 0.0354 -0.9990 0.0257
vn 0.0110 -0.9998 0.0184
vn 0.6104 0.7920 -0.0139
vn 0.0507 0.9888 -0.1402
vn 0.2426 0.9648 -0.1015
vn 0.3733 0.8986 -0.2305
vn 0.3765 0.8866 -0.2685
vn 0.2370 0.7546 -0.6118
vn 0.4382 0.8222 -0.3633
vn 0.7431 0.6519 -0.1508
vn 0.7391 0.6650 -0.1069
vn 0.2503 0.6609 -0.7075
vn 0.5934 0.6966 -0.4032
vn 0.6096 0.6488 -0.4554
vn 0.5137 0.5722 -0.6393
vn -0.0353 0.9585 -0.2830
vn 0.0747 0.8781 -0.4727
vn -0.0006 0.8915 -0.4529
vn -0.3654 0.8479 -0.3842
vn -0.1703 0.8174 -0.5503
vn -0.4643 0.7993 -0.3815
vn -0.1873 0.7388 -0.6474
vn 0.2030 0.6168 -0.7605
vn 0.1135 0.5845 -0.8034
vn -0.5580 0.6375 -0.5312
vn -0.3726 0.5772 -0.7266
vn -0.4664 0.5646 -0.6810
vn -0.0841 0.9959 0.0321
vn -0.2527 0.9664 0.0462
vn -0.3230 0.9155 0.2398
vn -0.2871 0.9325 -0.2190
vn -0.3342 0.9394 -0.0768
vn -0.5822 0.7971 -0.1602
vn -0.5349 0.8421 -0.0689
vn -0.5277 0.8202 0.2211
vn -0.5875 0.8020 0.1084
vn -0.5961 0.6751 0.4345
vn -0.7555 0.6346 -0.1625
vn -0.8072 0.5903 -0.0041
vn -0.7912 0.6049 0.0896
vn -0.8144 0.5452 0.1990
vn -0.6657 0.6079 0.4328
vn -0.7386 0.5195 -0.4296
vn -0.7881 0.5314 -0.3107
vn 0.0083 0.9078 0.4193
vn -0.2144 0.8877 0.4074
vn 0.0748 0.8017 0.5930
vn 0.1878 0.7577 0.6250
vn -0.3111 0.7263 0.6129
vn -0.3764 0.6916 0.6164
vn -0.1498 0.7004 0.6979
vn -0.4511 0.5239 0.7225
vn -0.0826 0.5377 0.8391
vn 0.1508 0.5019 0.8517
vn 0.2469 0.5734 0.7812
vn 0.2783 0.9550 0.1024
vn 0.1306 0.9517 0.2780
vn 0.1145 0.9524 0.2826
vn 0.4653 0.8686 0.1706
vn 0.5968 0.8002 0.0586
vn 0.4224 0.7778 0.4654
vn 0.4263 0.7916 0.4378
vn 0.4434 0.7964 0.4112
vn 0.6997 0.6757 0.2323
vn 0.3988 0.5296 0.7487
vn 0.5088 0.6268 0.5902
vn 0.7802 0.5732 0.2506
vn 0.8473 0.5239 0.0870
vn 0.8480 0.4497 -0.2803
vn 0.8286 0.4205 -0.3697
vn 0.9256 0.1522 -0.3466
vn 0.7738 0.4423 -0.4535
vn 0.8576 0.0544 -0.5115
vn 0.7182 0.3432 -0.6053
vn 0.7773 0.1140 -0.6187
vn 0.5714 0.4081 -0.7120
vn 0.8624 -0.1354 -0.4878
vn 0.6987 0.0286 -0.7149
vn 0.4715 0.3227 -0.8207
vn 0.7439 -0.3385 -0.5763
vn 0.7605 -0.2592 -0.5954
vn 0.6708 -0.1294 -0.7302
vn 0.0940 0.2916 -0.9519
vn 0.0525 0.4716 -0.8802
vn -0.0396 0.1269 -0.9911
vn -0.1416 0.1417 -0.9797
vn -0.2705 0.4385 -0.8571
vn -0.3082 0.2086 -0.9282
vn -0.5793 0.4198 -0.6987
vn -0.4206 -0.1323 -0.8975
vn -0.4175 -0.1336 -0.8988
vn -0.4583 0.1126 -0.8816
vn -0.5265 0.1357 -0.8393
vn -0.9116 0.2579 -0.3202
vn -0.9044 0.3511 -0.2425
vn -0.9631 0.0744 -0.2587
vn -0.9304 0.3551 -0.0908
vn -0.9725 0.2252 0.0585
vn -0.9991 0.0434 -0.0011
vn -0.9361 0.2908 0.1980
vn -0.8944 0.3774 0.2399
vn -0.9544 -0.2943 -0.0493
vn -0.9652 -0.2613 -0.0109
vn -0.9963 -0.0706 0.0481
vn -0.7087 0.3918 0.5867
vn -0.5189 0.1756 0.8366
vn -0.4455 0.2035 0.8719
vn -0.3532 0.3686 0.8599
vn -0.1934 0.3960 0.8977
vn -0.3327 -0.0852 0.9392
vn -0.3184 0.0449 0.9469
vn -0.0248 0.1866 0.9821
vn -0.0258 0.1689 0.9853
vn 0.1645 0.3669 0.9156
vn -0.2557 -0.3706 0.8929
vn -0.2293 -0.2012 0.9523
vn 0.7318 -0.2710 0.6254
vn 0.4078 0.2377 0.8816
vn 0.4840 0.3107 0.8180
vn 0.5632 0.2856 0.7754
vn 0.7052 0.0641 0.7061
vn 0.7158 0.1384 0.6844
vn 0.7461 0.4775 0.4641
vn 0.7508 0.4345 0.4976
vn 0.7903 0.2089 0.5760
vn 0.7941 0.4680 0.3878
vn 0.7676 -0.1607 0.6204
vn 0.7490 -0.3414 0.5678
vn 0.9341 0.0486 0.3538
vn 0.9351 -0.0080 0.3543
vn 0.9555 0.2036 0.2136
vn 0.9516 0.2294 0.2045
vn 0.4256 0.1948 -0.8837
vn 0.4200 0.1906 -0.8873
vn 0.0544 -0.0703 -0.9960
vn 0.3725 -0.0447 -0.9270
vn 0.4541 -0.2117 -0.8654
vn -0.0158 -0.2900 -0.9569
vn 0.3995 -0.3760 -0.8361
vn 0.4244 -0.3585 -0.8315
vn 0.0497 -0.3705 -0.9275
vn -0.2046 -0.3187 -0.9255
vn 0.6086 -0.4917 -0.6228
vn -0.7492 0.3037 -0.5887
vn -0.7716 0.3157 -0.5522
vn -0.8512 0.2544 -0.4590
vn -0.6749 0.1082 -0.7299
vn -0.8915 -0.1158 -0.4380
vn -0.7513 -0.1145 -0.6500
vn -0.8084 -0.1719 -0.5630
vn -0.8746 -0.1623 -0.4568
vn -0.5193 -0.2475 -0.8180
vn -0.8921 -0.2601 -0.3695
vn -0.5041 -0.4095 -0.7604
vn -0.6128 -0.4786 -0.6288
vn -0.8160 -0.4897 -0.3071
vn -0.8708 -0.4845 -0.0836
vn -0.7230 0.3622 0.5883
vn -0.7308 0.2800 0.6226
vn -0.7986 0.1184 0.5900
vn -0.8927 0.0254 0.4498
vn -0.9114 -0.0988 0.3994
vn -0.6911 -0.0694 0.7194
vn -0.6089 -0.1007 0.7868
vn -0.8677 -0.2365 0.4373
vn -0.5583 -0.1684 0.8123
vn -0.8373 -0.3583 0.4129
vn -0.5309 -0.3150 0.7867
vn -0.8544 -0.4223 0.3029
vn -0.3658 -0.4257 0.8276
vn -0.6557 -0.4934 0.5715
vn 0.0485 0.0484 0.9976
vn 0.3887 0.0610 0.9193
vn 0.4274 -0.0226 0.9038
vn 0.4955 -0.0656 0.8661
vn 0.0374 -0.1370 0.9899
vn 0.1358 -0.2504 0.9586
vn 0.1375 -0.2645 0.9545
vn 0.5523 -0.2887 0.7820
vn 0.4750 -0.3947 0.7865
vn 0.2635 -0.4192 0.8688
vn 0.9403 0.3365 0.0520
vn 0.9531 0.2861 -0.0985
vn 0.9754 0.1156 -0.1875
vn 0.9926 -0.0310 -0.1176
vn 0.9928 -0.0095 -0.1193
vn 0.9509 -0.1601 0.2648
vn 0.9831 -0.1807 0.0286
vn 0.9280 -0.2093 -0.3084
vn 0.8945 -0.3608 -0.2638
vn 0.8922 -0.3235 0.3153
vn 0.9329 -0.3588 -0.0311
vn 0.8631 -0.4426 0.2433
vn 0.8544 -0.4228 -0.3019
vn 0.8734 -0.4841 0.0532
vn 0.5720 -0.6178 -0.5396
vn 0.4135 -0.7286 -0.5460
vn 0.3168 -0.8887 -0.3313
vn 0.2071 -0.6655 -0.7171
vn 0.2035 -0.6550 -0.7277
vn 0.1609 -0.9125 -0.3761
vn 0.0386 -0.5724 -0.8190
vn 0.0496 -0.8384 -0.5428
vn -0.2016 -0.6165 -0.7611
vn -0.1613 -0.8205 -0.5484
vn -0.0779 -0.9764 -0.2016
vn -0.2967 -0.4886 -0.8205
vn -0.2322 -0.7180 -0.6562
vn -0.5165 -0.6907 -0.5061
vn -0.6138 -0.6117 -0.4990
vn -0.2651 -0.8966 -0.3547
vn -0.3346 -0.8808 -0.3350
vn -0.6912 -0.6087 -0.3895
vn -0.0698 -0.9940 -0.0836
vn -0.4984 -0.8622 -0.0910
vn -0.6349 -0.7598 -0.1398
vn -0.4562 -0.8897 0.0178
vn -0.8038 -0.5943 0.0266
vn -0.7853 -0.5956 0.1688
vn -0.6823 -0.6904 0.2405
vn -0.5409 -0.8169 0.2004
vn -0.5645 -0.6210 0.5438
vn -0.3708 -0.8213 0.4337
vn -0.5485 -0.6313 0.5482
vn -0.3679 -0.9283 0.0533
vn -0.3808 -0.8171 0.4330
vn -0.2121 -0.9296 0.3014
vn -0.3532 -0.5746 0.7383
vn -0.1475 -0.9421 0.3012
vn 0.7517 -0.6140 -0.2407
vn 0.7195 -0.6442 -0.2594
vn 0.8137 -0.5812 0.0070
vn 0.5881 -0.7921 -0.1635
vn 0.3447 -0.8949 -0.2833
vn 0.5704 -0.8208 0.0308
vn 0.6753 -0.7269 0.1252
vn 0.4416 -0.8949 0.0645
vn 0.3218 -0.9435 -0.0795
vn 0.7308 -0.5863 0.3495
vn 0.6703 -0.6803 0.2966
vn -0.0382 -0.4744 0.8795
vn -0.1612 -0.7044 0.6913
vn 0.0040 -0.5733 0.8193
vn -0.1079 -0.7065 0.6995
vn 0.1862 -0.5681 0.8016
vn 0.0298 -0.8010 0.5979
vn 0.2615 -0.6501 0.7134
vn 0.2156 -0.7633 0.6090
vn -0.0074 -0.9237 0.3830
vn 0.4826 -0.5651 0.6692
vn 0.1810 -0.9361 0.3015
vn 0.3609 -0.8267 0.4316
vn 0.5338 -0.5936 0.6022
vn 0.3048 -0.8962 0.3224
vn 0.4893 -0.7444 0.4544
vn 0.6892 -0.4957 0.5285
vt 0.181819 0.000000
vt 0.200854 0.040932
vt 0.176147 0.040523
vt 0.909091 0.000000
vt 0.925759 0.028870
vt 0.907537 0.037427
vt 0.394103 0.364485
vt 0.434414 0.367578
vt 0.422470 0.403331
vt 0.449978 0.456678
vt 0.473483 0.413091
vt 0.471591 0.442858
vt 0.483332 0.388583
vt 0.482405 0.352120
vt 0.511364 0.373969
vt 0.383490 0.315103
vt 0.427654 0.327226
vt 0.512794 0.319629
vt 0.522728 0.354286
vt 0.467916 0.311010
vt 0.616297 0.416102
vt 0.645817 0.399262
vt 0.648282 0.437454
vt 0.593913 0.392147
vt 0.603218 0.364004
vt 0.661522 0.359356
vt 0.680080 0.393421
vt 0.698205 0.361239
vt 0.619274 0.325943
vt 0.557267 0.335381
vt 0.550382 0.299766
vt 0.707598 0.318362
vt 0.659397 0.288268
vt 0.806499 0.439892
vt 0.838879 0.428279
vt 0.822638 0.464664
vt 0.829577 0.395790
vt 0.863308 0.390207
vt 0.784091 0.413334
vt 0.787278 0.392588
vt 0.770054 0.352068
vt 0.812929 0.352365
vt 0.852891 0.349887
vt 0.894763 0.339737
vt 0.794842 0.309451
vt 0.828916 0.298892
vt 0.879647 0.309483
vt 0.723352 0.308708
vt 0.757741 0.297548
vt 0.085728 0.420596
vt 0.099649 0.374441
vt 0.132968 0.393091
vt 0.051283 0.377150
vt 0.128884 0.345328
vt 0.156177 0.359334
vt 0.087550 0.319859
vt 0.035719 0.328789
vt 0.050347 0.288500
vt 0.132188 0.296972
vt 0.187159 0.304206
vt 0.193509 0.321577
vt 0.224998 0.349624
vt 0.198864 0.344445
vt 0.269633 0.397988
vt 0.306801 0.402193
vt 0.273782 0.445548
vt 0.244319 0.423175
vt 0.237477 0.393485
vt 0.292640 0.364415
vt 0.327813 0.350995
vt 0.276276 0.335302
vt 0.239907 0.307908
vt 0.327099 0.300200
vt 0.351935 0.325257
vt 0.406816 0.280218
vt 0.441438 0.270791
vt 0.413867 0.231518
vt 0.459967 0.225197
vt 0.485005 0.268778
vt 0.429679 0.191008
vt 0.505671 0.234265
vt 0.440993 0.153797
vt 0.491950 0.189620
vt 0.560864 0.252633
vt 0.612023 0.283371
vt 0.608810 0.217944
vt 0.630919 0.234491
vt 0.689899 0.280062
vt 0.651944 0.182915
vt 0.682299 0.229105
vt 0.756320 0.253668
vt 0.795764 0.265630
vt 0.791126 0.218316
vt 0.852255 0.243948
vt 0.879812 0.270751
vt 0.780965 0.177600
vt 0.837625 0.164286
vt 0.852802 0.202141
vt 0.004368 0.312637
vt 0.037866 0.257486
vt 0.066017 0.235918
vt 0.097402 0.266811
vt 0.080612 0.196877
vt 0.112967 0.231416
vt 0.167847 0.264140
vt 0.112059 0.147089
vt 0.125845 0.187794
vt 0.241590 0.167034
vt 0.292306 0.205034
vt 0.238505 0.216747
vt 0.222325 0.253655
vt 0.252697 0.283578
vt 0.277300 0.237925
vt 0.299734 0.272875
vt 0.296953 0.163685
vt 0.346378 0.231853
vt 0.358906 0.260078
vt 0.557652 0.205612
vt 0.604364 0.161132
vt 0.517068 0.144268
vt 0.556619 0.165258
vt 0.725626 0.249181
vt 0.700946 0.195002
vt 0.738013 0.175892
vt 0.679779 0.142080
vt 0.772362 0.135294
vt 0.923419 0.290105
vt 0.937176 0.250785
vt 0.910470 0.222800
vt 0.925647 0.192542
vt 0.963936 0.219925
vt 0.978375 0.189047
vt 0.890444 0.148856
vt 0.949973 0.159538
vt 0.984825 0.139085
vt 0.169456 0.228157
vt 0.192212 0.198828
vt 0.156707 0.169318
vt 0.195615 0.158297
vt 0.384967 0.205087
vt 0.342405 0.190763
vt 0.382795 0.163584
vt 0.337802 0.144530
vt 0.491424 0.103407
vt 0.539010 0.102639
vt 0.536285 0.042254
vt 0.580885 0.115483
vt 0.568829 0.067455
vt 0.610704 0.122846
vt 0.697793 0.059495
vt 0.697048 0.103767
vt 0.670523 0.098295
vt 0.715316 0.020711
vt 0.735924 0.056341
vt 0.644829 0.142798
vt 0.734810 0.107762
vt 0.736058 0.025009
vt 0.780548 0.101571
vt 0.879132 0.055497
vt 0.903263 0.080156
vt 0.859211 0.106436
vt 0.832510 0.132644
vt 0.903795 0.116446
vt 0.952019 0.118201
vt 0.948361 0.081522
vt 0.369818 0.122923
vt 0.411622 0.102269
vt 0.378722 0.081156
vt 0.388373 0.047782
vt 0.329472 0.094288
vt 0.350604 0.048402
vt 0.297670 0.123579
vt 0.116552 0.113048
vt 0.141321 0.084670
vt 0.163942 0.124500
vt 0.180588 0.086068
vt 0.206998 0.122775
vt 0.228857 0.089371
vt 0.249059 0.127252
s 0
usemtl ore_planet6_ground
f 3/1/1 126/2/1 2/3/1
f 3/4/2 2/5/2 117/6/2
f 50/7/3 29/8/3 20/9/3
f 17/10/4 27/11/4 25/12/4
f 20/9/5 27/11/5 17/10/5
f 20/9/6 29/8/6 27/11/6
f 29/8/7 28/13/7 27/11/7
f 30/14/8 26/15/8 28/13/8
f 29/8/9 30/14/9 28/13/9
f 50/7/10 51/16/10 29/8/10
f 51/16/11 31/17/11 29/8/11
f 30/14/12 32/18/12 26/19/12
f 29/8/13 31/17/13 30/14/13
f 31/17/14 33/20/14 30/14/14
f 33/20/15 32/18/15 30/14/15
f 27/21/16 34/22/16 25/23/16
f 28/24/17 26/25/17 27/21/17
f 26/25/18 34/22/18 27/21/18
f 34/22/19 35/26/19 23/27/19
f 26/25/20 35/26/20 34/22/20
f 35/26/21 24/28/21 23/27/21
f 36/29/22 35/26/22 26/25/22
f 32/30/23 56/31/23 26/25/23
f 56/31/24 36/29/24 26/25/24
f 35/26/25 37/32/25 24/28/25
f 36/29/26 60/33/26 35/26/26
f 60/33/27 37/32/27 35/26/27
f 25/34/28 38/35/28 17/36/28
f 25/34/29 39/37/29 38/35/29
f 39/37/30 21/38/30 38/35/30
f 34/39/31 23/40/31 25/34/31
f 23/40/32 39/37/32 25/34/32
f 24/41/33 40/42/33 23/40/33
f 23/40/34 40/42/34 39/37/34
f 39/37/35 41/43/35 21/38/35
f 40/42/36 41/43/36 39/37/36
f 41/43/37 22/44/37 21/38/37
f 24/41/38 42/45/38 40/42/38
f 42/45/39 64/46/39 40/42/39
f 40/42/40 64/46/40 41/43/40
f 64/46/41 43/47/41 41/43/41
f 41/43/42 43/47/42 22/44/42
f 37/48/43 15/49/43 24/41/43
f 15/49/44 42/45/44 24/41/44
f 38/50/45 44/51/45 18/52/45
f 21/53/46 44/51/46 38/50/46
f 44/51/47 45/54/47 18/52/47
f 45/54/48 19/55/48 18/52/48
f 21/53/49 46/56/49 44/51/49
f 22/57/50 46/56/50 21/53/50
f 46/56/51 45/54/51 44/51/51
f 22/57/52 12/58/52 46/56/52
f 46/56/53 69/59/53 45/54/53
f 69/59/54 72/60/54 45/54/54
f 72/61/55 19/62/55 45/63/55
f 47/64/56 20/65/56 17/66/56
f 38/67/57 18/68/57 17/66/57
f 18/68/58 47/64/58 17/66/58
f 47/64/59 48/69/59 20/65/59
f 48/69/60 50/70/60 20/65/60
f 19/62/61 49/71/61 18/68/61
f 18/68/62 49/71/62 47/64/62
f 47/64/63 49/71/63 48/69/63
f 48/69/64 49/71/64 50/70/64
f 72/60/65 73/72/65 19/62/65
f 19/62/66 73/72/66 49/71/66
f 49/71/67 77/73/67 50/70/67
f 50/70/68 77/73/68 51/74/68
f 8/75/69 31/17/69 51/16/69
f 8/75/70 52/76/70 31/17/70
f 102/77/71 52/76/71 8/75/71
f 52/76/72 33/20/72 31/17/72
f 102/77/73 53/78/73 52/76/73
f 52/76/74 54/79/74 33/20/74
f 53/78/75 54/79/75 52/76/75
f 54/79/76 32/18/76 33/20/76
f 105/80/77 53/78/77 102/77/77
f 53/78/78 55/81/78 54/79/78
f 54/79/79 56/31/79 32/18/79
f 108/82/80 57/83/80 105/80/80
f 105/80/81 57/83/81 53/78/81
f 57/83/82 55/81/82 53/78/82
f 79/84/83 58/85/83 56/31/83
f 58/85/84 36/29/84 56/31/84
f 79/84/85 16/86/85 58/85/85
f 16/86/86 59/87/86 58/85/86
f 58/85/87 60/33/87 36/29/87
f 59/87/88 60/33/88 58/85/88
f 60/33/89 61/88/89 37/32/89
f 16/86/90 13/89/90 59/87/90
f 13/89/91 62/90/91 59/87/91
f 59/87/92 62/90/92 60/33/92
f 62/90/93 61/88/93 60/33/93
f 85/91/94 63/92/94 15/49/94
f 15/49/95 63/92/95 42/45/95
f 14/93/96 63/92/96 85/91/96
f 63/92/97 64/46/97 42/45/97
f 63/92/98 65/94/98 64/46/98
f 14/93/99 65/94/99 63/92/99
f 65/94/100 66/95/100 64/46/100
f 66/95/101 43/47/101 64/46/101
f 88/96/102 92/97/102 14/93/102
f 92/97/103 67/98/103 14/93/103
f 14/93/104 67/98/104 65/94/104
f 12/58/105 22/57/105 43/99/105
f 89/100/106 11/101/106 12/58/106
f 11/101/107 68/102/107 12/58/107
f 68/102/108 46/56/108 12/58/108
f 68/102/109 69/59/109 46/56/109
f 10/103/110 70/104/110 11/101/110
f 11/101/111 70/104/111 68/102/111
f 68/102/112 71/105/112 69/59/112
f 70/104/113 71/105/113 68/102/113
f 71/105/114 72/60/114 69/59/114
f 1/106/115 9/107/115 10/103/115
f 10/103/116 9/107/116 70/104/116
f 100/108/117 78/109/117 97/110/117
f 71/105/118 95/111/118 72/60/118
f 95/111/119 73/72/119 72/60/119
f 95/111/120 74/112/120 73/72/120
f 97/110/121 75/113/121 95/111/121
f 95/111/122 75/113/122 74/112/122
f 74/112/123 76/114/123 73/72/123
f 73/72/124 76/114/124 49/71/124
f 75/113/125 76/114/125 74/112/125
f 76/114/126 77/73/126 49/71/126
f 97/110/127 78/109/127 75/113/127
f 100/108/128 7/115/128 78/109/128
f 75/113/129 6/116/129 76/114/129
f 78/109/130 6/116/130 75/113/130
f 6/116/131 5/117/131 76/114/131
f 76/114/132 5/117/132 77/73/132
f 54/79/133 55/81/133 56/31/133
f 55/81/134 79/84/134 56/31/134
f 80/118/135 16/86/135 79/84/135
f 55/81/136 80/118/136 79/84/136
f 57/83/137 80/118/137 55/81/137
f 80/118/138 82/119/138 16/86/138
f 57/83/139 83/120/139 80/118/139
f 83/120/140 81/121/140 80/118/140
f 81/121/141 82/119/141 80/118/141
f 82/119/142 13/89/142 16/86/142
f 108/82/143 83/120/143 57/83/143
f 61/88/144 84/122/144 37/32/144
f 37/48/145 84/122/145 15/49/145
f 84/122/146 85/91/146 15/49/146
f 61/88/147 62/90/147 84/122/147
f 84/122/148 14/93/148 85/91/148
f 62/90/149 86/123/149 84/122/149
f 86/123/150 87/124/150 84/122/150
f 84/122/151 87/124/151 14/93/151
f 13/89/152 86/123/152 62/90/152
f 87/124/153 88/96/153 14/93/153
f 13/89/154 112/125/154 86/123/154
f 112/125/155 87/124/155 86/123/155
f 87/124/156 116/126/156 88/96/156
f 116/126/157 92/97/157 88/96/157
f 43/47/158 66/95/158 12/127/158
f 66/95/159 89/128/159 12/127/159
f 66/95/160 90/129/160 89/128/160
f 65/94/161 90/129/161 66/95/161
f 67/98/162 90/129/162 65/94/162
f 90/129/163 91/130/163 89/128/163
f 89/128/164 91/130/164 11/131/164
f 67/98/165 91/130/165 90/129/165
f 91/130/166 10/132/166 11/131/166
f 67/98/167 93/133/167 91/130/167
f 91/130/168 94/134/168 10/132/168
f 92/97/169 93/133/169 67/98/169
f 94/134/170 1/135/170 10/132/170
f 93/133/171 94/134/171 91/130/171
f 70/104/172 96/136/172 71/105/172
f 71/105/173 96/136/173 95/111/173
f 96/136/174 98/137/174 95/111/174
f 98/137/175 97/110/175 95/111/175
f 9/107/176 96/136/176 70/104/176
f 9/107/177 98/137/177 96/136/177
f 9/107/178 99/138/178 98/137/178
f 98/137/179 100/108/179 97/110/179
f 101/139/180 100/108/180 98/137/180
f 99/138/181 101/139/181 98/137/181
f 77/73/182 5/117/182 51/16/182
f 51/16/183 5/117/183 8/75/183
f 5/117/184 102/77/184 8/75/184
f 6/116/185 102/77/185 5/117/185
f 6/116/186 103/140/186 102/77/186
f 78/109/187 104/141/187 6/116/187
f 104/141/188 103/140/188 6/116/188
f 103/140/189 105/80/189 102/77/189
f 106/142/190 105/80/190 103/140/190
f 78/109/191 7/115/191 104/141/191
f 104/141/192 106/142/192 103/140/192
f 7/115/193 107/143/193 104/141/193
f 106/142/194 108/82/194 105/80/194
f 107/143/195 106/142/195 104/141/195
f 4/144/196 83/120/196 108/82/196
f 4/144/197 109/145/197 83/120/197
f 3/146/198 109/145/198 4/144/198
f 109/145/199 110/147/199 83/120/199
f 83/120/200 110/147/200 81/121/200
f 3/146/201 111/148/201 109/145/201
f 110/147/202 82/119/202 81/121/202
f 111/148/203 110/147/203 109/145/203
f 110/147/204 112/149/204 82/119/204
f 111/150/205 113/151/205 110/152/205
f 3/153/206 115/154/206 111/150/206
f 82/155/207 112/125/207 13/89/207
f 110/152/208 113/151/208 112/125/208
f 113/151/209 114/156/209 112/125/209
f 112/125/210 114/156/210 87/124/210
f 111/150/211 115/154/211 113/151/211
f 115/154/212 114/156/212 113/151/212
f 114/156/213 116/126/213 87/124/213
f 3/153/214 117/157/214 115/154/214
f 115/154/215 118/158/215 114/156/215
f 114/156/216 118/158/216 116/126/216
f 115/159/217 120/160/217 118/161/217
f 116/162/218 118/161/218 92/97/218
f 118/161/219 93/133/219 92/97/219
f 118/161/220 119/163/220 93/133/220
f 120/160/221 119/163/221 118/161/221
f 119/163/222 94/134/222 93/133/222
f 120/160/223 121/164/223 119/163/223
f 119/163/224 121/164/224 94/134/224
f 115/159/225 117/6/225 120/160/225
f 122/165/226 121/164/226 120/160/226
f 117/6/227 122/165/227 120/160/227
f 121/164/228 1/135/228 94/134/228
f 2/5/229 122/165/229 117/6/229
f 106/142/230 123/166/230 108/82/230
f 108/82/231 123/166/231 4/167/231
f 107/143/232 123/166/232 106/142/232
f 123/166/233 124/168/233 4/167/233
f 124/168/234 3/169/234 4/167/234
f 123/166/235 125/170/235 124/168/235
f 107/143/236 125/170/236 123/166/236
f 125/170/237 126/171/237 124/168/237
f 124/168/238 126/171/238 3/169/238
f 7/115/239 130/172/239 107/143/239
f 130/172/240 125/170/240 107/143/240
f 1/106/241 99/138/241 9/107/241
f 121/173/242 122/174/242 1/106/242
f 1/106/243 127/175/243 99/138/243
f 122/174/244 127/175/244 1/106/244
f 127/175/245 101/139/245 99/138/245
f 122/174/246 128/176/246 127/175/246
f 127/175/247 129/177/247 101/139/247
f 128/176/248 129/177/248 127/175/248
f 122/174/249 2/3/249 128/176/249
f 129/177/250 100/108/250 101/139/250
f 2/3/251 126/2/251 128/176/251
f 128/176/252 125/178/252 129/177/252
f 129/177/253 130/179/253 100/108/253
f 126/2/254 125/178/254 128/176/254
f 125/178/255 130/179/255 129/177/255
f 130/179/256 7/115/256 100/108/256
o ore_planet6_mountain
v -0.173418 0.256231 -0.683410
v -0.468298 0.497189 -1.237156
v -0.052233 0.413508 -0.679506
v -0.347113 0.654466 -1.233251
v -0.105081 0.577137 -0.580161
v -0.399962 0.818095 -1.133906
v -0.279115 0.583489 -0.484720
v -0.573996 0.824448 -1.038465
v -0.400300 0.426213 -0.488624
v -0.695181 0.667171 -1.042369
v -0.347451 0.262583 -0.587969
v -0.642332 0.503542 -1.141715
v -0.445986 0.092117 -0.582246
v -0.699663 0.299406 -1.058616
v -0.341734 0.227417 -0.578887
v -0.595411 0.434706 -1.055257
v -0.387198 0.368182 -0.493423
v -0.640875 0.575472 -0.969793
v -0.536914 0.373647 -0.411318
v -0.790591 0.580937 -0.887688
v -0.641166 0.238347 -0.414677
v -0.894843 0.445636 -0.891047
v -0.595702 0.097582 -0.500141
v -0.849379 0.304871 -0.976511
v -0.254395 0.003228 -0.750711
v -0.467518 0.177378 -1.150926
v -0.166809 0.116898 -0.747889
v -0.379932 0.291049 -1.148104
v -0.205005 0.235160 -0.676088
v -0.418128 0.409311 -1.076303
v -0.330787 0.239751 -0.607109
v -0.543910 0.413902 -1.007324
v -0.418372 0.126081 -0.609931
v -0.631495 0.300232 -1.010146
v -0.380176 0.007819 -0.681731
v -0.593299 0.181970 -1.081946
v -0.625843 -0.239342 0.307065
v -1.040072 -0.402803 0.675771
v -0.529364 -0.187813 0.438300
v -0.943594 -0.351274 0.807005
v -0.420532 -0.296764 0.512267
v -0.834761 -0.460225 0.880973
v -0.408179 -0.457243 0.454999
v -0.822408 -0.620705 0.823705
v -0.504657 -0.508772 0.323765
v -0.918886 -0.672233 0.692470
v -0.613489 -0.399821 0.249797
v -1.027718 -0.563282 0.618503
v -0.726650 0.009158 0.339846
v -1.074658 -0.128171 0.649608
v -0.645595 0.052449 0.450101
v -0.993604 -0.084880 0.759863
v -0.554162 -0.039084 0.512243
v -0.902170 -0.176414 0.822005
v -0.543783 -0.173909 0.464130
v -0.891791 -0.311238 0.773893
v -0.624838 -0.217200 0.353875
v -0.972846 -0.354529 0.663638
v -0.716271 -0.125666 0.291733
v -1.064280 -0.262996 0.601495
v -0.539705 -0.014937 0.538764
v -1.021217 -0.204949 0.967357
v -0.427556 0.044961 0.691315
v -0.909068 -0.145051 1.119908
v -0.301047 -0.081687 0.777296
v -0.782558 -0.271699 1.205889
v -0.286687 -0.268232 0.710727
v -0.768198 -0.458244 1.139320
v -0.398836 -0.328131 0.558176
v -0.880347 -0.518142 0.986769
v -0.525345 -0.201483 0.472194
v -1.006856 -0.391495 0.900787
v 0.579866 0.196400 0.392289
v 1.061594 0.211080 0.711618
v 0.589302 0.025942 0.385890
v 1.071031 0.040622 0.705219
v 0.512625 -0.068418 0.505900
v 0.994354 -0.053738 0.825230
v 0.426511 0.007679 0.632310
v 0.908240 0.022359 0.951639
v 0.417075 0.178137 0.638709
v 0.898803 0.192817 0.958039
v 0.493752 0.272497 0.518699
v 0.975481 0.287178 0.838028
v 0.747489 0.170271 0.182030
v 1.152206 0.182605 0.450310
v 0.755417 0.027064 0.176654
v 1.160134 0.039397 0.444934
v 0.690998 -0.052212 0.277479
v 1.095715 -0.039878 0.545759
v 0.618650 0.011720 0.383681
v 1.023368 0.024054 0.651960
v 0.610723 0.154928 0.389057
v 1.015440 0.167261 0.657336
v 0.675142 0.234203 0.288232
v 1.079859 0.246537 0.556511
v 0.700765 -0.087059 0.263854
v 1.260740 -0.069995 0.635051
v 0.711734 -0.285204 0.256416
v 1.271709 -0.268139 0.627612
v 0.622602 -0.394891 0.395919
v 1.182577 -0.377826 0.767116
v 0.522501 -0.306433 0.542862
v 1.082476 -0.289369 0.914059
v 0.511532 -0.108289 0.550300
v 1.071507 -0.091224 0.921497
v 0.600664 0.001399 0.410797
v 1.160639 0.018463 0.781993
v 0.446243 0.528975 -0.187643
v 0.874593 0.870974 -0.371497
v 0.555809 0.446521 -0.085749
v 0.984159 0.788520 -0.269602
v 0.581100 0.500849 0.074235
v 1.009451 0.842848 -0.109619
v 0.496825 0.637630 0.132324
v 0.925175 0.979629 -0.051530
v 0.387259 0.720084 0.030429
v 0.815609 1.062083 -0.153424
v 0.361968 0.665756 -0.129554
v 0.790318 1.007755 -0.313408
v 0.682838 0.299557 -0.134240
v 1.180763 0.697106 -0.347956
v 0.810200 0.203711 -0.015796
v 1.308126 0.601260 -0.229511
v 0.839600 0.266863 0.170174
v 1.337525 0.664412 -0.043542
v 0.741636 0.425862 0.237698
v 1.239561 0.823411 0.023982
v 0.614273 0.521708 0.119253
v 1.112199 0.919257 -0.094463
v 0.584874 0.458556 -0.066716
v 1.082799 0.856105 -0.280432
v 0.394254 0.532084 -0.378378
v 0.930373 0.960126 -0.608487
v 0.456481 0.485255 -0.320508
v 0.992599 0.913298 -0.550617
v 0.470845 0.516110 -0.229647
v 1.006963 0.944152 -0.459756
v 0.422982 0.593794 -0.196656
v 0.959100 1.021836 -0.426765
v 0.360755 0.640622 -0.254526
v 0.896873 1.068665 -0.484635
v 0.346391 0.609767 -0.345387
v 0.882510 1.037810 -0.575495
v 0.399455 0.339145 -0.703058
v 0.764311 0.630450 -0.859659
v 0.528154 0.242294 -0.583371
v 0.893009 0.533598 -0.739972
v 0.557861 0.306108 -0.395452
v 0.922717 0.597413 -0.552053
v 0.458870 0.466774 -0.327220
v 0.823726 0.758079 -0.483821
v 0.330172 0.563625 -0.446907
v 0.695027 0.854930 -0.603507
v 0.300464 0.499811 -0.634826
v 0.665320 0.791116 -0.791426
v 0.521754 0.098026 -0.488969
v 1.062540 0.529795 -0.721082
v 0.598372 0.040367 -0.417716
v 1.139158 0.472136 -0.649828
v 0.616058 0.078358 -0.305841
v 1.156844 0.510127 -0.537953
v 0.557125 0.174008 -0.265220
v 1.097912 0.605777 -0.497332
v 0.480507 0.231667 -0.336474
v 1.021293 0.663436 -0.568586
v 0.462821 0.193676 -0.448348
v 1.003607 0.625445 -0.680461
v 0.131352 0.311391 0.650460
v 0.153072 0.480957 1.105100
v 0.102074 0.180204 0.700787
v 0.123794 0.349770 1.155427
v -0.034123 0.140293 0.722179
v -0.012403 0.309859 1.176819
v -0.141042 0.231569 0.693244
v -0.119322 0.401134 1.147884
v -0.111763 0.362756 0.642917
v -0.090044 0.532322 1.097557
v 0.024433 0.402667 0.621525
v 0.046153 0.572233 1.076165
v -0.027194 0.104448 0.734927
v 0.002858 0.339062 1.363976
v -0.067704 -0.077066 0.804561
v -0.037652 0.157549 1.433610
v -0.256148 -0.132288 0.834160
v -0.226096 0.102327 1.463209
v -0.404083 -0.005997 0.794125
v -0.374031 0.228618 1.423174
v -0.363574 0.175517 0.724491
v -0.333521 0.410131 1.353540
v -0.175129 0.230739 0.694892
v -0.145077 0.465353 1.323941
v 0.036051 0.515506 0.580063
v 0.068408 0.768116 1.257362
v 0.016259 0.426822 0.614084
v 0.048616 0.679432 1.291383
v -0.075812 0.399842 0.628546
v -0.043454 0.652452 1.305845
v -0.148089 0.461545 0.608985
v -0.115732 0.714155 1.286284
v -0.128297 0.550229 0.574964
v -0.095940 0.802839 1.252263
v -0.036227 0.577209 0.560502
v -0.003870 0.829819 1.237801
v 0.412447 0.526490 0.550475
v 0.434467 0.698404 1.011412
v 0.371512 0.343074 0.620839
v 0.393533 0.514988 1.081776
v 0.181091 0.287273 0.650748
v 0.203112 0.459187 1.111685
v 0.031605 0.414888 0.610294
v 0.053626 0.586802 1.071230
v 0.072540 0.598304 0.539930
v 0.094561 0.770219 1.000866
v 0.262960 0.654106 0.510020
v 0.284981 0.826020 0.970957
v 0.363125 0.185177 0.551817
v 0.395764 0.439987 1.235013
v 0.338755 0.075983 0.593707
v 0.371394 0.330792 1.276903
v 0.225391 0.042762 0.611513
v 0.258030 0.297572 1.294709
v 0.136397 0.118736 0.587429
v 0.169036 0.373546 1.270625
v 0.160767 0.227930 0.545539
v 0.193406 0.482740 1.228735
v 0.274131 0.261151 0.527733
v 0.306770 0.515960 1.210929
v -0.316469 -0.577722 -0.368665
v -0.625346 -0.920777 -0.519762
v -0.424548 -0.483552 -0.361533
v -0.733425 -0.826607 -0.512630
v -0.499596 -0.469511 -0.239997
v -0.808473 -0.812566 -0.391095
v -0.466564 -0.549641 -0.125593
v -0.775440 -0.892696 -0.276691
v -0.358484 -0.643812 -0.132725
v -0.667361 -0.986867 -0.283823
v -0.283437 -0.657853 -0.254261
v -0.592314 -1.000907 -0.405359
v -0.523934 -0.441944 -0.251960
v -0.951302 -0.916601 -0.461022
v -0.673475 -0.311648 -0.242092
v -1.100843 -0.786305 -0.451154
v -0.777312 -0.292221 -0.073933
v -1.204680 -0.766878 -0.282995
v -0.731607 -0.403091 0.084358
v -1.158976 -0.877748 -0.124703
v -0.582067 -0.533387 0.074490
v -1.009435 -1.008044 -0.134571
v -0.478230 -0.552814 -0.093669
v -0.905598 -1.027471 -0.302731
v -0.195974 -0.740907 -0.248031
v -0.656122 -1.251972 -0.473128
v -0.269036 -0.677247 -0.243209
v -0.729185 -1.188312 -0.468307
v -0.319769 -0.667756 -0.161050
v -0.779918 -1.178821 -0.386148
v -0.297439 -0.721924 -0.083712
v -0.757588 -1.232989 -0.308810
v -0.224376 -0.785584 -0.088534
v -0.684525 -1.296649 -0.313631
v -0.173644 -0.795076 -0.170693
v -0.633792 -1.306141 -0.395790
v -0.056638 -0.702698 -0.597023
v -0.369792 -1.050504 -0.750213
v -0.207747 -0.571035 -0.587051
v -0.520901 -0.918841 -0.740241
v -0.312672 -0.551405 -0.417129
v -0.625827 -0.899211 -0.570319
v -0.266489 -0.663437 -0.257178
v -0.579644 -1.011243 -0.410368
v -0.115380 -0.795100 -0.267149
v -0.428535 -1.142905 -0.420339
v -0.010454 -0.814730 -0.437072
v -0.323609 -1.162536 -0.590262
v -0.219337 -0.400338 -0.564827
v -0.683493 -0.915853 -0.791884
v -0.309298 -0.321955 -0.558891
v -0.773453 -0.837470 -0.785948
v -0.371763 -0.310268 -0.457730
v -0.835919 -0.825783 -0.684787
v -0.344269 -0.376965 -0.362506
v -0.808425 -0.892480 -0.589563
v -0.254309 -0.455348 -0.368442
v -0.718464 -0.970863 -0.595499
v -0.191843 -0.467035 -0.469603
v -0.655998 -0.982549 -0.696660
v -0.545319 0.614857 -0.111116
v -0.762185 0.845017 -0.119168
v -0.486862 0.671544 -0.065213
v -0.703727 0.901704 -0.073265
v -0.487806 0.673923 0.028228
v -0.704672 0.904083 0.020177
v -0.547208 0.619616 0.075767
v -0.764074 0.849776 0.067715
v -0.605665 0.562929 0.029864
v -0.822531 0.793089 0.021812
v -0.604721 0.560549 -0.063578
v -0.821587 0.790709 -0.071629
v -0.469558 0.690985 0.031427
v -0.769619 1.009439 0.020286
v -0.388675 0.769419 0.094939
v -0.688735 1.087873 0.083798
v -0.389981 0.772711 0.224226
v -0.690041 1.091165 0.213085
v -0.472171 0.697569 0.290001
v -0.772231 1.016023 0.278860
v -0.553054 0.619136 0.226489
v -0.853115 0.937590 0.215348
v -0.551748 0.615844 0.097201
v -0.851808 0.934298 0.086061
v -0.657314 0.510899 -0.094497
v -0.980390 0.853780 -0.106492
v -0.617796 0.549220 -0.063466
v -0.940872 0.892101 -0.075461
v -0.618434 0.550829 -0.000299
v -0.941510 0.893709 -0.012294
v -0.658591 0.514116 0.031837
v -0.981666 0.856997 0.019842
v -0.698109 0.475795 0.000807
v -1.021184 0.818676 -0.011189
v -0.697470 0.474187 -0.062360
v -1.020546 0.817067 -0.074356
v 0.465333 -0.442594 -0.337944
v 0.772050 -0.884628 -0.549556
v 0.506862 -0.489820 -0.179101
v 0.813579 -0.931854 -0.390714
v 0.647773 -0.427290 -0.105481
v 0.954490 -0.869324 -0.317093
v 0.747154 -0.317533 -0.190703
v 1.053871 -0.759567 -0.402315
v 0.705625 -0.270308 -0.349545
v 1.012342 -0.712342 -0.561157
v 0.564715 -0.332838 -0.423166
v 0.871432 -0.774872 -0.634778
v 0.272200 -0.626731 -0.295727
v 0.529884 -0.998099 -0.473510
v 0.307090 -0.666407 -0.162278
v 0.564774 -1.037775 -0.340061
v 0.425474 -0.613873 -0.100427
v 0.683157 -0.985241 -0.278210
v 0.508968 -0.521663 -0.172025
v 0.766651 -0.893031 -0.349808
v 0.474078 -0.481987 -0.305474
v 0.731761 -0.853355 -0.483257
v 0.355694 -0.534521 -0.367325
v 0.613377 -0.905889 -0.545108
v 0.014122 -0.674723 -0.553353
v 0.275374 -1.051234 -0.733598
v 0.062903 -0.730195 -0.366774
v 0.324155 -1.106706 -0.547019
v 0.228418 -0.656746 -0.280298
v 0.489671 -1.033257 -0.460543
v 0.345153 -0.527824 -0.380401
v 0.606406 -0.904336 -0.560646
v 0.296373 -0.472352 -0.566980
v 0.557625 -0.848864 -0.747225
v 0.130857 -0.545802 -0.653456
v 0.392109 -0.922313 -0.833701
v 0.010668 -0.685045 -0.208664
v 0.397895 -1.243107 -0.475822
v 0.039709 -0.718070 -0.097587
v 0.426936 -1.276132 -0.364745
v 0.138246 -0.674343 -0.046105
v 0.525473 -1.232405 -0.313263
v 0.207743 -0.597591 -0.105700
v 0.594969 -1.155653 -0.372857
v 0.178702 -0.564567 -0.216776
v 0.565928 -1.122629 -0.483934
v 0.080165 -0.608294 -0.268258
v 0.467391 -1.166356 -0.535416
v 0.216561 -0.571988 0.415909
v 0.297899 -0.994390 0.641482
v 0.271306 -0.626131 0.294783
v 0.352644 -1.048533 0.520355
v 0.185679 -0.692787 0.200841
v 0.267017 -1.115188 0.426413
v 0.045306 -0.705300 0.228026
v 0.126644 -1.127701 0.453598
v -0.009440 -0.651157 0.349152
v 0.071898 -1.073559 0.574725
v 0.076188 -0.584501 0.443094
v 0.157526 -1.006903 0.668667
v 0.018574 -0.544383 0.541368
v 0.139746 -1.173655 0.877414
v 0.055582 -0.580984 0.459485
v 0.176755 -1.210256 0.795531
v -0.002303 -0.626044 0.395980
v 0.118870 -1.255316 0.732026
v -0.097196 -0.634502 0.414357
v 0.023976 -1.263774 0.750403
v -0.134205 -0.597902 0.496240
v -0.013032 -1.227174 0.832286
v -0.076320 -0.552842 0.559745
v 0.044853 -1.182114 0.895791
v 0.312082 -0.385390 0.718126
v 0.394547 -0.813642 0.946823
v 0.388623 -0.461088 0.548776
v 0.471088 -0.889340 0.777472
v 0.268905 -0.554281 0.417433
v 0.351369 -0.982533 0.646130
v 0.072646 -0.571776 0.455441
v 0.155110 -1.000028 0.684137
v -0.003895 -0.496078 0.624791
v 0.078569 -0.924329 0.853488
v 0.115823 -0.402885 0.756134
v 0.198287 -0.831136 0.984830
v 0.802476 -0.100895 -0.094390
v 1.163779 -0.181721 -0.147399
v 0.793896 -0.185523 -0.023830
v 1.155199 -0.266349 -0.076838
v 0.813200 -0.169859 0.083856
v 1.174503 -0.250685 0.030847
v 0.841083 -0.069567 0.120982
v 1.202386 -0.150394 0.067973
v 0.849662 0.015060 0.050422
v 1.210965 -0.065766 -0.002587
v 0.830359 -0.000603 -0.057264
v 1.191662 -0.081430 -0.110273
v 0.772229 -0.229618 -0.208676
v 1.075772 -0.297523 -0.253211
v 0.765021 -0.300717 -0.149396
v 1.068564 -0.368622 -0.193931
v 0.781239 -0.287557 -0.058925
v 1.084782 -0.355462 -0.103460
v 0.804664 -0.203298 -0.027735
v 1.108207 -0.271203 -0.072269
v 0.811872 -0.132199 -0.087015
v 1.115415 -0.200104 -0.131549
v 0.795655 -0.145359 -0.177485
v 1.099198 -0.213264 -0.222020
v 0.746774 -0.174746 -0.438795
v 1.054521 -0.243591 -0.483947
v 0.736696 -0.274151 -0.355914
v 1.044443 -0.342996 -0.401066
v 0.759370 -0.255752 -0.229425
v 1.067117 -0.324597 -0.274576
v 0.792122 -0.137947 -0.185816
v 1.099869 -0.206793 -0.230968
v 0.802200 -0.038542 -0.268697
v 1.109947 -0.107387 -0.313849
v 0.779526 -0.056941 -0.395187
v 1.087273 -0.125786 -0.440338
v 0.651960 -0.326460 -0.305511
v 1.108101 -0.428502 -0.372434
v 0.645960 -0.385640 -0.256169
v 1.102101 -0.487682 -0.323092
v 0.659459 -0.374686 -0.180866
v 1.115600 -0.476728 -0.247789
v 0.678957 -0.304553 -0.154904
v 1.135098 -0.406595 -0.221827
v 0.684957 -0.245374 -0.204246
v 1.141098 -0.347416 -0.271169
v 0.671458 -0.256327 -0.279549
v 1.127599 -0.358369 -0.346472
v 0.112244 -0.067448 0.829177
v 0.183421 -0.087089 1.147402
v 0.180722 -0.132680 0.809835
v 0.251898 -0.152321 1.128060
v 0.158923 -0.226714 0.808907
v 0.230100 -0.246355 1.127131
v 0.068647 -0.255516 0.827321
v 0.139824 -0.275157 1.145545
v 0.000170 -0.190285 0.846663
v 0.071346 -0.209926 1.164888
v 0.021968 -0.096251 0.847591
v 0.093145 -0.115892 1.165816
v 0.233016 0.025579 0.821174
v 0.292814 0.009078 1.088525
v 0.290546 -0.029224 0.804924
v 0.350344 -0.045726 1.072275
v 0.272232 -0.108226 0.804144
v 0.332030 -0.124727 1.071495
v 0.196388 -0.132424 0.819614
v 0.256186 -0.148925 1.086966
v 0.138858 -0.077620 0.835865
v 0.198656 -0.094121 1.103216
v 0.157172 0.001381 0.836644
v 0.216969 -0.015120 1.103996
v 0.292075 -0.115845 0.799078
v 0.374812 -0.138677 1.168991
v 0.371675 -0.191672 0.776594
v 0.454412 -0.214503 1.146507
v 0.346335 -0.300980 0.775515
v 0.429073 -0.323811 1.145428
v 0.241396 -0.334460 0.796920
v 0.324133 -0.357292 1.166833
v 0.161796 -0.258634 0.819404
v 0.244533 -0.281465 1.189317
v 0.187135 -0.149326 0.820483
v 0.269873 -0.172157 1.190396
v 0.202581 0.230539 0.837194
v 0.263207 0.213809 1.108248
v 0.283016 0.153917 0.814474
v 0.343641 0.137187 1.085528
v 0.257411 0.043463 0.813384
v 0.318037 0.026734 1.084438
v 0.151371 0.009631 0.835014
v 0.211997 -0.007098 1.106068
v 0.070936 0.086253 0.857733
v 0.131562 0.069524 1.128787
v 0.096541 0.196707 0.858824
v 0.157167 0.179977 1.129878
v 0.325520 0.120748 0.733253
v 0.415379 0.095951 1.135008
v 0.373405 0.075132 0.719728
v 0.463264 0.050336 1.121482
v 0.358162 0.009375 0.719079
v 0.448021 -0.015421 1.120833
v 0.295033 -0.010766 0.731955
v 0.384892 -0.035562 1.133710
v 0.247147 0.034850 0.745481
v 0.337006 0.010053 1.147236
v 0.262391 0.100607 0.746130
v 0.352250 0.075810 1.147884
v -0.722511 0.097490 0.337955
v -1.079058 0.199616 0.517373
v -0.661969 0.162224 0.421418
v -1.018517 0.264350 0.600836
v -0.625202 0.109207 0.524661
v -0.981749 0.211333 0.704079
v -0.648976 -0.008544 0.544442
v -1.005523 0.093581 0.723859
v -0.709517 -0.073279 0.460978
v -1.066064 0.028847 0.640396
v -0.746285 -0.020261 0.357735
v -1.102832 0.081864 0.537153
v -0.732973 0.271244 0.255692
v -1.032521 0.357043 0.406427
v -0.682110 0.325629 0.325812
v -0.981658 0.411428 0.476547
v -0.651221 0.281087 0.412550
v -0.950769 0.366887 0.563285
v -0.671194 0.182160 0.429168
v -0.970742 0.267960 0.579903
v -0.722057 0.127775 0.359048
v -1.021605 0.213574 0.509783
v -0.752946 0.172316 0.272310
v -1.052494 0.258116 0.423045
v -0.638999 0.303020 0.423908
v -1.053459 0.421734 0.632468
v -0.568624 0.378269 0.520928
v -0.983085 0.496983 0.729488
v -0.525885 0.316641 0.640941
v -0.940345 0.435354 0.849501
v -0.553521 0.179763 0.663934
v -0.967981 0.298477 0.872494
v -0.623895 0.104514 0.566914
v -1.038355 0.223228 0.775474
v -0.666635 0.166143 0.446901
v -1.081095 0.284857 0.655461
v -0.795587 0.119399 0.219496
v -1.241838 0.247219 0.444054
v -0.761204 0.156164 0.266898
v -1.207454 0.283984 0.491456
v -0.740322 0.126054 0.325534
v -1.186573 0.253873 0.550092
v -0.753824 0.059178 0.336768
v -1.200075 0.186998 0.561325
v -0.788208 0.022413 0.289366
v -1.234459 0.150233 0.513924
v -0.809090 0.052524 0.230730
v -1.255340 0.180343 0.455288
v -0.841721 0.291934 0.018108
v -1.145418 0.378922 0.170931
v -0.770609 0.367972 0.116145
v -1.074305 0.454960 0.268968
v -0.727421 0.305697 0.237416
v -1.031118 0.392685 0.390239
v -0.755346 0.167384 0.260650
v -1.059043 0.254372 0.413473
v -0.826459 0.091347 0.162613
v -1.130155 0.178334 0.315436
v -0.869647 0.153621 0.041342
v -1.173343 0.240609 0.194165
v -0.654346 0.405806 0.129109
v -1.104483 0.534738 0.355622
v -0.612010 0.451074 0.187474
v -1.062147 0.580006 0.413987
v -0.586299 0.414000 0.259671
v -1.036436 0.542932 0.486184
v -0.602924 0.331657 0.273503
v -1.053061 0.460590 0.500016
v -0.645260 0.286389 0.215138
v -1.095396 0.415322 0.441651
v -0.670971 0.323464 0.142941
v -1.121107 0.452396 0.369454
v 0.048585 0.794369 -0.208181
v 0.106723 1.139591 -0.313921
v 0.142232 0.795114 -0.154260
v 0.200370 1.140337 -0.260000
v 0.144787 0.826360 -0.050843
v 0.202925 1.171582 -0.156583
v 0.053695 0.856860 -0.001348
v 0.111833 1.202083 -0.107088
v -0.039952 0.856115 -0.055269
v 0.018186 1.201338 -0.161009
v -0.042507 0.824870 -0.158686
v 0.015631 1.170092 -0.264426
v 0.154070 0.752770 -0.336035
v 0.202913 1.042804 -0.424871
v 0.232746 0.753396 -0.290734
v 0.281590 1.043429 -0.379570
v 0.234893 0.779647 -0.203851
v 0.283736 1.069680 -0.292686
v 0.158363 0.805271 -0.162268
v 0.207207 1.095305 -0.251103
v 0.079687 0.804645 -0.207569
v 0.128531 1.094679 -0.296404
v 0.077540 0.778395 -0.294453
v 0.126384 1.068428 -0.383288
v 0.063099 0.700516 -0.543692
v 0.112619 0.994565 -0.633758
v 0.173099 0.701391 -0.480355
v 0.222619 0.995440 -0.570421
v 0.176100 0.738092 -0.358881
v 0.225620 1.032142 -0.448946
v 0.069102 0.773919 -0.300742
v 0.118622 1.067969 -0.390808
v -0.040897 0.773044 -0.364079
v 0.008623 1.067094 -0.454145
v -0.043899 0.736342 -0.485554
v 0.005622 1.030392 -0.575620
v 0.234484 0.625546 -0.431475
v 0.307882 1.061385 -0.564970
v 0.299970 0.626067 -0.393768
v 0.373369 1.061905 -0.527263
v 0.301757 0.647916 -0.321450
v 0.375155 1.083755 -0.454945
v 0.238058 0.669245 -0.286839
v 0.311456 1.105084 -0.420334
v 0.172571 0.668724 -0.324545
v 0.245970 1.104563 -0.458040
v 0.170785 0.646875 -0.396863
v 0.244183 1.082713 -0.530358
v -0.379927 0.733461 -0.119779
v -0.563744 0.986058 -0.179027
v -0.303263 0.786536 -0.131348
v -0.487080 1.039133 -0.190596
v -0.265537 0.831237 -0.057817
v -0.449354 1.083834 -0.117065
v -0.304475 0.822862 0.027282
v -0.488292 1.075459 -0.031966
v -0.381139 0.769787 0.038851
v -0.564956 1.022384 -0.020397
v -0.418865 0.725086 -0.034680
v -0.602682 0.977683 -0.093928
v -0.366723 0.724258 -0.267491
v -0.521154 0.936474 -0.317268
v -0.302315 0.768848 -0.277210
v -0.456746 0.981064 -0.326987
v -0.270620 0.806403 -0.215435
v -0.425051 1.018619 -0.265211
v -0.303333 0.799367 -0.143940
v -0.457764 1.011583 -0.193716
v -0.367741 0.754776 -0.134220
v -0.522172 0.966992 -0.183997
v -0.399436 0.717222 -0.195996
v -0.553867 0.929438 -0.245773
v -0.254400 0.815624 -0.225643
v -0.468074 1.109250 -0.294514
v -0.165284 0.877320 -0.239091
v -0.378957 1.170946 -0.307962
v -0.121430 0.929282 -0.153616
v -0.335103 1.222908 -0.222488
v -0.166692 0.919547 -0.054694
v -0.380366 1.213172 -0.123566
v -0.255808 0.857850 -0.041247
v -0.469482 1.151476 -0.110118
v -0.299662 0.805889 -0.126721
v -0.513336 1.099515 -0.195593
v -0.453711 0.682030 -0.180898
v -0.683774 0.998178 -0.255052
v -0.410171 0.712174 -0.187468
v -0.640234 1.028322 -0.261622
v -0.388745 0.737561 -0.145707
v -0.618808 1.053709 -0.219861
v -0.410859 0.732805 -0.097376
v -0.640922 1.048953 -0.171530
v -0.454399 0.702661 -0.090806
v -0.684463 1.018809 -0.164960
v -0.475825 0.677274 -0.132567
v -0.705889 0.993422 -0.206721
v -0.493599 0.603963 -0.369231
v -0.650169 0.819118 -0.419697
v -0.403548 0.666307 -0.382820
v -0.560118 0.881461 -0.433286
v -0.359235 0.718813 -0.296450
v -0.515804 0.933967 -0.346915
v -0.404971 0.708975 -0.196491
v -0.561541 0.924130 -0.246956
v -0.495022 0.646632 -0.182902
v -0.651592 0.861787 -0.233368
v -0.539336 0.594126 -0.269272
v -0.695906 0.809281 -0.319738
v -0.310600 0.648940 -0.390732
v -0.542666 0.967841 -0.465532
v -0.256989 0.686055 -0.398822
v -0.489056 1.004956 -0.473622
v -0.230608 0.717314 -0.347402
v -0.462674 1.036215 -0.422202
v -0.257836 0.711458 -0.287893
v -0.489903 1.030359 -0.362693
v -0.311447 0.674343 -0.279804
v -0.543513 0.993243 -0.354603
v -0.337828 0.643084 -0.331223
v -0.569895 0.961985 -0.406023
v 0.099150 0.385380 -0.627586
v 0.238606 0.599280 -1.095382
v 0.241777 0.418808 -0.569782
v 0.381233 0.632708 -1.037578
v 0.267589 0.557040 -0.498881
v 0.407045 0.770940 -0.966677
v 0.150773 0.661843 -0.485783
v 0.290229 0.875743 -0.953579
v 0.008146 0.628415 -0.543587
v 0.147602 0.842315 -1.011383
v -0.017665 0.490183 -0.614489
v 0.121790 0.704083 -1.082285
v 0.222455 0.184062 -0.706901
v 0.339617 0.363767 -1.099913
v 0.342281 0.212146 -0.658338
v 0.459443 0.391852 -1.051350
v 0.363966 0.328280 -0.598771
v 0.481128 0.507985 -0.991783
v 0.265825 0.416329 -0.587768
v 0.382987 0.596034 -0.980779
v 0.145999 0.388245 -0.636331
v 0.263161 0.567950 -1.029343
v 0.124314 0.272111 -0.695897
v 0.241476 0.451816 -1.088909
v 0.020296 0.259881 -0.733657
v 0.194837 0.527596 -1.319146
v 0.101299 0.278866 -0.700828
v 0.275840 0.546581 -1.286317
v 0.115958 0.357373 -0.660560
v 0.290499 0.625088 -1.246049
v 0.049614 0.416895 -0.653122
v 0.224155 0.684610 -1.238611
v -0.031389 0.397910 -0.685951
v 0.143152 0.665625 -1.271440
v -0.046049 0.319403 -0.726219
v 0.128493 0.587118 -1.311707
v 0.296829 -0.061140 -0.664490
v 0.472890 0.208907 -1.255076
v 0.396567 -0.037764 -0.624068
v 0.572628 0.232283 -1.214655
v 0.414616 0.058900 -0.574488
v 0.590677 0.328947 -1.165074
v 0.332928 0.132188 -0.565329
v 0.508989 0.402235 -1.155915
v 0.233191 0.108812 -0.605751
v 0.409252 0.378859 -1.196337
v 0.215141 0.012148 -0.655331
v 0.391202 0.282195 -1.245918
v -0.416736 -0.729760 0.178457
v -0.519773 -0.964767 0.239311
v -0.411605 -0.712384 0.254249
v -0.514642 -0.947390 0.315103
v -0.347076 -0.730366 0.294065
v -0.450112 -0.965373 0.354919
v -0.287677 -0.765725 0.258089
v -0.390713 -1.000731 0.318943
v -0.292808 -0.783101 0.182296
v -0.395844 -1.018108 0.243151
v -0.357338 -0.765119 0.142480
v -0.460374 -1.000126 0.203335
v -0.353000 -0.722772 0.312721
v -0.495563 -1.047931 0.396921
v -0.345901 -0.698729 0.417589
v -0.488464 -1.023889 0.501788
v -0.256616 -0.723610 0.472679
v -0.399179 -1.048769 0.556878
v -0.174431 -0.772533 0.422902
v -0.316994 -1.097692 0.507101
v -0.181531 -0.796575 0.318034
v -0.324093 -1.121735 0.402233
v -0.270815 -0.771695 0.262944
v -0.413378 -1.096854 0.347143
v -0.355277 -0.783021 0.079431
v -0.508775 -1.133121 0.170088
v -0.351809 -0.771274 0.130667
v -0.505306 -1.121375 0.221324
v -0.308186 -0.783430 0.157583
v -0.461684 -1.133531 0.248240
v -0.268032 -0.807333 0.133262
v -0.421530 -1.157434 0.223920
v -0.271500 -0.819080 0.082026
v -0.424998 -1.169180 0.172684
v -0.315123 -0.806924 0.055110
v -0.468621 -1.157024 0.145768
v -0.513306 -0.611140 0.176497
v -0.668141 -0.964289 0.267944
v -0.509035 -0.596677 0.239583
v -0.663870 -0.949826 0.331030
v -0.455324 -0.611644 0.272724
v -0.610158 -0.964793 0.364171
v -0.405883 -0.641075 0.242779
v -0.560718 -0.994224 0.334226
v -0.410154 -0.655539 0.179693
v -0.564989 -1.008687 0.271140
v -0.463866 -0.640571 0.146552
v -0.618700 -0.993720 0.237999
v -0.201224 -0.440277 0.626093
v -0.362204 -0.609844 0.936127
v -0.139393 -0.534919 0.606435
v -0.300373 -0.704486 0.916469
v -0.181351 -0.617935 0.539245
v -0.342331 -0.787502 0.849280
v -0.285139 -0.606309 0.491713
v -0.446120 -0.775876 0.801748
v -0.346970 -0.511667 0.511371
v -0.507951 -0.681234 0.821405
v -0.305012 -0.428651 0.578561
v -0.465993 -0.598218 0.888595
v -0.061082 -0.406816 0.736401
v -0.196328 -0.549275 0.996872
v -0.009136 -0.486328 0.719886
v -0.144381 -0.628787 0.980357
v -0.044386 -0.556073 0.663438
v -0.179632 -0.698532 0.923909
v -0.131583 -0.546305 0.623504
v -0.266828 -0.688764 0.883975
v -0.183529 -0.466793 0.640020
v -0.318774 -0.609252 0.900490
v -0.148279 -0.397049 0.696468
v -0.283524 -0.539508 0.956939
v -0.024170 -0.572321 0.664819
v -0.211298 -0.769430 1.025212
v 0.047704 -0.682335 0.641969
v -0.139425 -0.879445 1.002361
v -0.001069 -0.778835 0.563865
v -0.188197 -0.975945 0.924258
v -0.121716 -0.765321 0.508613
v -0.308844 -0.962430 0.869005
v -0.193590 -0.655307 0.531464
v -0.380718 -0.852416 0.891856
v -0.144817 -0.558807 0.609567
v -0.331945 -0.755916 0.969959
v -0.198540 -0.334056 0.705751
v -0.400022 -0.546284 1.093786
v -0.163424 -0.387807 0.694586
v -0.364906 -0.600035 1.082622
v -0.187254 -0.434955 0.656427
v -0.388735 -0.647183 1.044462
v -0.246199 -0.428352 0.629431
v -0.447681 -0.640580 1.017467
v -0.281315 -0.374601 0.640596
v -0.482797 -0.586829 1.028632
v -0.257486 -0.327453 0.678755
v -0.458967 -0.539682 1.066791
v -0.052015 -0.190106 0.854650
v -0.189133 -0.334539 1.118728
v 0.020613 -0.301274 0.831559
v -0.116506 -0.445706 1.095638
v -0.028671 -0.398786 0.752637
v -0.165790 -0.543218 1.016715
v -0.150583 -0.385130 0.696805
v -0.287702 -0.529562 0.960883
v -0.223211 -0.273962 0.719896
v -0.360329 -0.418394 0.983974
v -0.173927 -0.176450 0.798818
v -0.311045 -0.320883 1.062896
v 0.109146 -0.328153 0.761791
v -0.094090 -0.542229 1.153206
v 0.152384 -0.394335 0.748045
v -0.050852 -0.608411 1.139459
v 0.123043 -0.452387 0.701060
v -0.080193 -0.666463 1.092474
v 0.050465 -0.444257 0.667821
v -0.152771 -0.658333 1.059236
v 0.007227 -0.378075 0.681567
v -0.196009 -0.592151 1.072982
v 0.036568 -0.320023 0.728552
v -0.166668 -0.534099 1.119967
v -0.834958 0.036501 -0.145113
v -1.246103 -0.014503 -0.228830
v -0.856867 0.154085 -0.109150
v -1.268012 0.103081 -0.192867
v -0.884233 0.178823 0.010175
v -1.295378 0.127819 -0.073542
v -0.889690 0.085978 0.093537
v -1.300834 0.034973 0.009820
v -0.867780 -0.031606 0.057575
v -1.278925 -0.082611 -0.026143
v -0.840414 -0.056344 -0.061751
v -1.251559 -0.107349 -0.145468
v -0.789583 -0.231357 -0.209123
v -1.232264 -0.286274 -0.299262
v -0.800288 -0.173908 -0.191553
v -1.242969 -0.228825 -0.281692
v -0.813658 -0.161821 -0.133253
v -1.256339 -0.216738 -0.223392
v -0.816324 -0.207184 -0.092524
v -1.259005 -0.262101 -0.182663
v -0.805620 -0.264633 -0.110095
v -1.248300 -0.319550 -0.200234
v -0.792249 -0.276720 -0.168394
v -1.234930 -0.331636 -0.258533
v -0.739738 -0.216114 -0.440891
v -1.041004 -0.253488 -0.502235
v -0.761877 -0.097298 -0.404551
v -1.063144 -0.134671 -0.465895
v -0.789530 -0.072300 -0.283975
v -1.090797 -0.109674 -0.345319
v -0.795043 -0.166119 -0.199739
v -1.096310 -0.203493 -0.261083
v -0.772904 -0.284936 -0.236079
v -1.074171 -0.322309 -0.297423
v -0.745251 -0.309933 -0.356655
v -1.046518 -0.347307 -0.417999
v -0.699710 -0.011626 -0.380684
v -1.146246 -0.067021 -0.471608
v -0.712891 0.059110 -0.359050
v -1.159426 0.003715 -0.449974
v -0.729353 0.073992 -0.287267
v -1.175889 0.018597 -0.378190
v -0.732636 0.018138 -0.237118
v -1.179171 -0.037257 -0.328042
v -0.719456 -0.052598 -0.258752
v -1.165991 -0.107993 -0.349676
v -0.702993 -0.067480 -0.330536
v -1.149529 -0.122875 -0.421459
v -0.220282 -0.291374 -0.636889
v -0.280799 -0.547205 -1.118476
v -0.097779 -0.204734 -0.698309
v -0.158295 -0.460565 -1.179895
v -0.127187 -0.062428 -0.770210
v -0.187704 -0.318258 -1.251796
v -0.279099 -0.006761 -0.780692
v -0.339615 -0.262591 -1.262279
v -0.401602 -0.093401 -0.719273
v -0.462119 -0.349231 -1.200860
v -0.372194 -0.235708 -0.647372
v -0.432710 -0.491538 -1.128958
v -0.028878 -0.457355 -0.597499
v -0.079721 -0.672287 -1.002096
v 0.074041 -0.384566 -0.649099
v 0.023199 -0.599498 -1.053697
v 0.049334 -0.265009 -0.709506
v -0.001508 -0.479941 -1.114104
v -0.078293 -0.218241 -0.718312
v -0.129135 -0.433173 -1.122910
v -0.181212 -0.291031 -0.666712
v -0.232054 -0.505963 -1.071310
v -0.156505 -0.410587 -0.606305
v -0.207347 -0.625519 -1.010903
v 0.083975 -0.256471 -0.718101
v 0.013629 -0.553855 -1.277910
v 0.226377 -0.155758 -0.789496
v 0.156031 -0.453142 -1.349305
v 0.192191 0.009663 -0.873076
v 0.121845 -0.287721 -1.432886
v 0.015605 0.074372 -0.885261
v -0.054741 -0.223012 -1.445070
v -0.126796 -0.026341 -0.813866
v -0.197142 -0.323725 -1.373675
v -0.092611 -0.191762 -0.730286
v -0.162957 -0.489146 -1.290095
v -0.250797 -0.463117 -0.567744
v -0.326539 -0.783311 -1.170492
v -0.181222 -0.413911 -0.602626
v -0.256964 -0.734105 -1.205375
v -0.197925 -0.333089 -0.643461
v -0.273666 -0.653284 -1.246210
v -0.284201 -0.301474 -0.649415
v -0.359943 -0.621668 -1.252163
v -0.353775 -0.350680 -0.614532
v -0.429517 -0.670875 -1.217281
v -0.337073 -0.431502 -0.573697
v -0.412815 -0.751696 -1.176445
v 0.161370 -0.551694 -0.435026
v 0.084969 -0.874677 -1.043023
v 0.247036 -0.491108 -0.477976
v 0.170634 -0.814091 -1.085973
v 0.226471 -0.391595 -0.528255
v 0.150069 -0.714577 -1.136252
v 0.120241 -0.352667 -0.535585
v 0.043839 -0.675650 -1.143582
v 0.034575 -0.413254 -0.492636
v -0.041826 -0.736236 -1.100633
v 0.055140 -0.512767 -0.442356
v -0.021261 -0.835750 -1.050353
vn 0.6596 -0.4942 -0.5663
vn 0.8583 0.4388 -0.2661
vn 0.1987 0.9330 0.3002
vn -0.6596 0.4942 0.5663
vn -0.4388 0.3585 -0.8240
vn -0.8583 -0.4388 0.2661
vn -0.1987 -0.9330 -0.3002
vn 0.4388 -0.3585 0.8240
vn -0.4095 0.9105 -0.0564
vn 0.2843 0.7165 0.6370
vn 0.6938 -0.1941 0.6935
vn 0.4095 -0.9105 0.0564
vn -0.7165 -0.2827 0.6377
vn -0.2843 -0.7165 -0.6370
vn -0.6938 0.1941 -0.6935
vn 0.7165 0.2827 -0.6377
vn 0.5502 0.0617 -0.8328
vn 0.3229 -0.8332 -0.4488
vn -0.2272 -0.8950 0.3840
vn -0.5502 -0.0617 0.8328
vn 0.8332 0.0254 0.5523
vn -0.3229 0.8332 0.4488
vn 0.2272 0.8950 -0.3840
vn -0.8332 -0.0254 -0.5523
vn 0.1993 -0.6459 -0.7370
vn 0.6551 -0.7409 0.1480
vn 0.4558 -0.0951 0.8850
vn -0.1993 0.6459 0.7370
vn 0.7409 0.5915 -0.3180
vn -0.6551 0.7409 -0.1480
vn -0.4558 0.0951 -0.8850
vn -0.7409 -0.5915 0.3180
vn 0.9780 -0.2066 0.0303
vn 0.3123 -0.8949 0.3188
vn -0.6656 -0.6883 0.2885
vn -0.9780 0.2066 -0.0303
vn 0.0447 0.3491 0.9360
vn -0.3123 0.8949 -0.3188
vn 0.6656 0.6883 -0.2885
vn -0.0447 -0.3491 -0.9360
vn 0.1690 0.2659 -0.9491
vn -0.5676 0.7011 -0.4315
vn -0.7366 0.4353 0.5176
vn -0.1690 -0.2659 0.9491
vn -0.6359 -0.7063 -0.3111
vn 0.5676 -0.7011 0.4315
vn 0.7366 -0.4353 -0.5176
vn 0.6359 0.7063 0.3111
vn 0.3727 0.3207 -0.8708
vn 0.7280 0.6856 -0.0101
vn 0.3552 0.3648 0.8607
vn -0.3727 -0.3207 0.8708
vn -0.6856 0.7276 -0.0255
vn -0.7280 -0.6856 0.0101
vn -0.3552 -0.3648 -0.8607
vn 0.6856 -0.7276 0.0255
vn -0.8121 -0.5822 0.0392
vn -0.1955 -0.5305 0.8248
vn 0.6166 0.0517 0.7856
vn 0.8121 0.5822 -0.0392
vn 0.5305 -0.7646 -0.3660
vn 0.1955 0.5305 -0.8248
vn -0.6166 -0.0517 -0.7856
vn -0.5305 0.7646 0.3660
vn 0.9091 0.3185 0.2685
vn 0.7849 -0.1675 -0.5966
vn -0.1242 -0.4859 -0.8651
vn -0.9091 -0.3185 -0.2685
vn 0.1675 -0.8696 0.4644
vn -0.7849 0.1675 0.5966
vn 0.1242 0.4859 0.8651
vn -0.1675 0.8696 -0.4644
vn -0.2465 -0.6058 -0.7565
vn -0.1905 -0.9660 0.1747
vn 0.0560 -0.3603 0.9312
vn 0.2465 0.6058 0.7565
vn 0.9660 -0.2161 -0.1417
vn 0.1905 0.9660 -0.1747
vn -0.0560 0.3603 -0.9312
vn -0.9660 0.2161 0.1417
vn 0.6703 0.7347 -0.1046
vn 0.9495 -0.2179 -0.2258
vn 0.2792 -0.9526 -0.1212
vn -0.6703 -0.7347 0.1046
vn 0.2179 -0.0601 0.9741
vn -0.9495 0.2179 0.2258
vn -0.2792 0.9526 0.1212
vn -0.2179 0.0601 -0.9741
vn -0.0616 0.8098 -0.5834
vn 0.3998 0.8654 0.3020
vn 0.4615 0.0556 0.8854
vn 0.0616 -0.8098 0.5834
vn -0.8654 0.2479 0.4355
vn -0.3998 -0.8654 -0.3020
vn -0.4615 -0.0556 -0.8854
vn 0.8654 -0.2479 -0.4355
vn 0.4730 -0.3299 -0.8170
vn 0.9870 -0.1590 0.0236
vn 0.5140 0.1709 0.8406
vn -0.4730 0.3299 0.8170
vn 0.1590 0.9440 -0.2891
vn -0.9870 0.1590 -0.0236
vn -0.5140 -0.1709 -0.8406
vn -0.1590 -0.9440 0.2891
vn 0.0074 -0.2232 -0.9747
vn 0.7103 0.3776 -0.5940
vn 0.7029 0.6008 0.3807
vn -0.0074 0.2232 0.9747
vn -0.5781 0.7944 -0.1863
vn -0.7103 -0.3776 0.5940
vn -0.7029 -0.6008 -0.3807
vn 0.5781 -0.7944 0.1863
vn 0.3336 -0.8910 -0.3079
vn 0.9511 -0.2617 0.1639
vn 0.6175 0.6293 0.4718
vn -0.3336 0.8910 0.3079
vn 0.2617 0.4014 -0.8778
vn -0.9511 0.2617 -0.1639
vn -0.6175 -0.6293 -0.4718
vn -0.2617 -0.4014 0.8778
vn -0.9182 0.3952 -0.0284
vn -0.4021 0.3907 0.8281
vn 0.5161 -0.0045 0.8565
vn 0.9182 -0.3952 0.0284
vn -0.3907 -0.8911 0.2308
vn 0.4021 -0.3907 -0.8281
vn -0.5161 0.0045 -0.8565
vn 0.3907 0.8911 -0.2308
vn 0.7333 0.3592 0.5772
vn 0.8333 -0.5347 0.1403
vn 0.1000 -0.8939 -0.4370
vn -0.7333 -0.3592 -0.5772
vn -0.4146 -0.4367 0.7984
vn -0.8333 0.5347 -0.1403
vn -0.1000 0.8939 0.4370
vn 0.4146 0.4367 -0.7984
vn 0.1517 0.3148 -0.9369
vn -0.0761 0.9727 -0.2191
vn -0.2278 0.6579 0.7178
vn -0.1517 -0.3148 0.9369
vn -0.9727 -0.1207 -0.1981
vn 0.0761 -0.9727 0.2191
vn 0.2278 -0.6579 -0.7178
vn 0.9727 0.1207 0.1981
vn 0.6457 -0.7050 0.2934
vn 0.9772 0.1103 -0.1814
vn 0.3315 0.8153 -0.4748
vn -0.6457 0.7050 -0.2934
vn -0.1103 -0.4663 -0.8777
vn -0.9772 -0.1103 0.1814
vn -0.3315 -0.8153 0.4748
vn 0.1103 0.4663 0.8777
vt 1.000000 0.500000
vt 1.000000 1.000000
vt 0.833333 1.000000
vt 0.833333 0.500000
vt 0.666667 1.000000
vt 0.666667 0.500000
vt 0.500000 1.000000
vt 0.500000 0.500000
vt 0.333333 1.000000
vt 0.333333 0.500000
vt 0.457846 0.370000
vt 0.250000 0.490000
vt 0.042154 0.370000
vt 0.042154 0.130000
vt 0.250000 0.010000
vt 0.457846 0.130000
vt 0.166667 1.000000
vt 0.166667 0.500000
vt -0.000000 1.000000
vt -0.000000 0.500000
vt 0.750000 0.490000
vt 0.957846 0.370000
vt 0.957846 0.130000
vt 0.750000 0.010000
vt 0.542154 0.130000
vt 0.542154 0.370000
s 0
usemtl ore_planet6_mountain
f 131/180/257 132/181/257 134/182/257 133/183/257
f 133/183/258 134/182/258 136/184/258 135/185/258
f 135/185/259 136/184/259 138/186/259 137/187/259
f 137/187/260 138/186/260 140/188/260 139/189/260
f 134/190/261 132/191/261 142/192/261 140/193/261 138/194/261 136/195/261
f 139/189/262 140/188/262 142/196/262 141/197/262
f 141/197/263 142/196/263 132/198/263 131/199/263
f 131/200/264 133/201/264 135/202/264 137/203/264 139/204/264 141/205/264
f 143/180/257 144/181/257 146/182/257 145/183/257
f 145/183/258 146/182/258 148/184/258 147/185/258
f 147/185/259 148/184/259 150/186/259 149/187/259
f 149/187/260 150/186/260 152/188/260 151/189/260
f 146/190/261 144/191/261 154/192/261 152/193/261 150/194/261 148/195/261
f 151/189/262 152/188/262 154/196/262 153/197/262
f 153/197/263 154/196/263 144/198/263 143/199/263
f 143/200/264 145/201/264 147/202/264 149/203/264 151/204/264 153/205/264
f 155/180/257 156/181/257 158/182/257 157/183/257
f 157/183/258 158/182/258 160/184/258 159/185/258
f 159/185/259 160/184/259 162/186/259 161/187/259
f 161/187/260 162/186/260 164/188/260 163/189/260
f 158/190/261 156/191/261 166/192/261 164/193/261 162/194/261 160/195/261
f 163/189/262 164/188/262 166/196/262 165/197/262
f 165/197/263 166/196/263 156/198/263 155/199/263
f 155/200/264 157/201/264 159/202/264 161/203/264 163/204/264 165/205/264
f 167/180/265 168/181/265 170/182/265 169/183/265
f 169/183/266 170/182/266 172/184/266 171/185/266
f 171/185/267 172/184/267 174/186/267 173/187/267
f 173/187/268 174/186/268 176/188/268 175/189/268
f 170/190/269 168/191/269 178/192/269 176/193/269 174/194/269 172/195/269
f 175/189/270 176/188/270 178/196/270 177/197/270
f 177/197/271 178/196/271 168/198/271 167/199/271
f 167/200/272 169/201/272 171/202/272 173/203/272 175/204/272 177/205/272
f 179/180/265 180/181/265 182/182/265 181/183/265
f 181/183/266 182/182/266 184/184/266 183/185/266
f 183/185/267 184/184/267 186/186/267 185/187/267
f 185/187/268 186/186/268 188/188/268 187/189/268
f 182/190/269 180/191/269 190/192/269 188/193/269 186/194/269 184/195/269
f 187/189/270 188/188/270 190/196/270 189/197/270
f 189/197/271 190/196/271 180/198/271 179/199/271
f 179/200/272 181/201/272 183/202/272 185/203/272 187/204/272 189/205/272
f 191/180/265 192/181/265 194/182/265 193/183/265
f 193/183/266 194/182/266 196/184/266 195/185/266
f 195/185/267 196/184/267 198/186/267 197/187/267
f 197/187/268 198/186/268 200/188/268 199/189/268
f 194/190/269 192/191/269 202/192/269 200/193/269 198/194/269 196/195/269
f 199/189/270 200/188/270 202/196/270 201/197/270
f 201/197/271 202/196/271 192/198/271 191/199/271
f 191/200/272 193/201/272 195/202/272 197/203/272 199/204/272 201/205/272
f 203/180/273 204/181/273 206/182/273 205/183/273
f 205/183/274 206/182/274 208/184/274 207/185/274
f 207/185/275 208/184/275 210/186/275 209/187/275
f 209/187/276 210/186/276 212/188/276 211/189/276
f 206/190/277 204/191/277 214/192/277 212/193/277 210/194/277 208/195/277
f 211/189/278 212/188/278 214/196/278 213/197/278
f 213/197/279 214/196/279 204/198/279 203/199/279
f 203/200/280 205/201/280 207/202/280 209/203/280 211/204/280 213/205/280
f 215/180/273 216/181/273 218/182/273 217/183/273
f 217/183/274 218/182/274 220/184/274 219/185/274
f 219/185/275 220/184/275 222/186/275 221/187/275
f 221/187/276 222/186/276 224/188/276 223/189/276
f 218/190/277 216/191/277 226/192/277 224/193/277 222/194/277 220/195/277
f 223/189/278 224/188/278 226/196/278 225/197/278
f 225/197/279 226/196/279 216/198/279 215/199/279
f 215/200/280 217/201/280 219/202/280 221/203/280 223/204/280 225/205/280
f 227/180/273 228/181/273 230/182/273 229/183/273
f 229/183/274 230/182/274 232/184/274 231/185/274
f 231/185/275 232/184/275 234/186/275 233/187/275
f 233/187/276 234/186/276 236/188/276 235/189/276
f 230/190/277 228/191/277 238/192/277 236/193/277 234/194/277 232/195/277
f 235/189/278 236/188/278 238/196/278 237/197/278
f 237/197/279 238/196/279 228/198/279 227/199/279
f 227/200/280 229/201/280 231/202/280 233/203/280 235/204/280 237/205/280
f 239/180/281 240/181/281 242/182/281 241/183/281
f 241/183/282 242/182/282 244/184/282 243/185/282
f 243/185/283 244/184/283 246/186/283 245/187/283
f 245/187/284 246/186/284 248/188/284 247/189/284
f 242/190/285 240/191/285 250/192/285 248/193/285 246/194/285 244/195/285
f 247/189/286 248/188/286 250/196/286 249/197/286
f 249/197/287 250/196/287 240/198/287 239/199/287
f 239/200/288 241/201/288 243/202/288 245/203/288 247/204/288 249/205/288
f 251/180/281 252/181/281 254/182/281 253/183/281
f 253/183/282 254/182/282 256/184/282 255/185/282
f 255/185/283 256/184/283 258/186/283 257/187/283
f 257/187/284 258/186/284 260/188/284 259/189/284
f 254/190/285 252/191/285 262/192/285 260/193/285 258/194/285 256/195/285
f 259/189/286 260/188/286 262/196/286 261/197/286
f 261/197/287 262/196/287 252/198/287 251/199/287
f 251/200/288 253/201/288 255/202/288 257/203/288 259/204/288 261/205/288
f 263/180/281 264/181/281 266/182/281 265/183/281
f 265/183/282 266/182/282 268/184/282 267/185/282
f 267/185/283 268/184/283 270/186/283 269/187/283
f 269/187/284 270/186/284 272/188/284 271/189/284
f 266/190/285 264/191/285 274/192/285 272/193/285 270/194/285 268/195/285
f 271/189/286 272/188/286 274/196/286 273/197/286
f 273/197/287 274/196/287 264/198/287 263/199/287
f 263/200/288 265/201/288 267/202/288 269/203/288 271/204/288 273/205/288
f 275/180/281 276/181/281 278/182/281 277/183/281
f 277/183/282 278/182/282 280/184/282 279/185/282
f 279/185/283 280/184/283 282/186/283 281/187/283
f 281/187/284 282/186/284 284/188/284 283/189/284
f 278/190/285 276/191/285 286/192/285 284/193/285 282/194/285 280/195/285
f 283/189/286 284/188/286 286/196/286 285/197/286
f 285/197/287 286/196/287 276/198/287 275/199/287
f 275/200/288 277/201/288 279/202/288 281/203/288 283/204/288 285/205/288
f 287/180/281 288/181/281 290/182/281 289/183/281
f 289/183/282 290/182/282 292/184/282 291/185/282
f 291/185/283 292/184/283 294/186/283 293/187/283
f 293/187/284 294/186/284 296/188/284 295/189/284
f 290/190/285 288/191/285 298/192/285 296/193/285 294/194/285 292/195/285
f 295/189/286 296/188/286 298/196/286 297/197/286
f 297/197/287 298/196/287 288/198/287 287/199/287
f 287/200/288 289/201/288 291/202/288 293/203/288 295/204/288 297/205/288
f 299/180/289 300/181/289 302/182/289 301/183/289
f 301/183/290 302/182/290 304/184/290 303/185/290
f 303/185/291 304/184/291 306/186/291 305/187/291
f 305/187/292 306/186/292 308/188/292 307/189/292
f 302/190/293 300/191/293 310/192/293 308/193/293 306/194/293 304/195/293
f 307/189/294 308/188/294 310/196/294 309/197/294
f 309/197/295 310/196/295 300/198/295 299/199/295
f 299/200/296 301/201/296 303/202/296 305/203/296 307/204/296 309/205/296
f 311/180/289 312/181/289 314/182/289 313/183/289
f 313/183/290 314/182/290 316/184/290 315/185/290
f 315/185/291 316/184/291 318/186/291 317/187/291
f 317/187/292 318/186/292 320/188/292 319/189/292
f 314/190/293 312/191/293 322/192/293 320/193/293 318/194/293 316/195/293
f 319/189/294 320/188/294 322/196/294 321/197/294
f 321/197/295 322/196/295 312/198/295 311/199/295
f 311/200/296 313/201/296 315/202/296 317/203/296 319/204/296 321/205/296
f 323/180/289 324/181/289 326/182/289 325/183/289
f 325/183/290 326/182/290 328/184/290 327/185/290
f 327/185/291 328/184/291 330/186/291 329/187/291
f 329/187/292 330/186/292 332/188/292 331/189/292
f 326/190/293 324/191/293 334/192/293 332/193/293 330/194/293 328/195/293
f 331/189/294 332/188/294 334/196/294 333/197/294
f 333/197/295 334/196/295 324/198/295 323/199/295
f 323/200/296 325/201/296 327/202/296 329/203/296 331/204/296 333/205/296
f 335/180/289 336/181/289 338/182/289 337/183/289
f 337/183/290 338/182/290 340/184/290 339/185/290
f 339/185/291 340/184/291 342/186/291 341/187/291
f 341/187/292 342/186/292 344/188/292 343/189/292
f 338/190/293 336/191/293 346/192/293 344/193/293 342/194/293 340/195/293
f 343/189/294 344/188/294 346/196/294 345/197/294
f 345/197/295 346/196/295 336/198/295 335/199/295
f 335/200/296 337/201/296 339/202/296 341/203/296 343/204/296 345/205/296
f 347/180/289 348/181/289 350/182/289 349/183/289
f 349/183/290 350/182/290 352/184/290 351/185/290
f 351/185/291 352/184/291 354/186/291 353/187/291
f 353/187/292 354/186/292 356/188/292 355/189/292
f 350/190/293 348/191/293 358/192/293 356/193/293 354/194/293 352/195/293
f 355/189/294 356/188/294 358/196/294 357/197/294
f 357/197/295 358/196/295 348/198/295 347/199/295
f 347/200/296 349/201/296 351/202/296 353/203/296 355/204/296 357/205/296
f 359/180/297 360/181/297 362/182/297 361/183/297
f 361/183/298 362/182/298 364/184/298 363/185/298
f 363/185/299 364/184/299 366/186/299 365/187/299
f 365/187/300 366/186/300 368/188/300 367/189/300
f 362/190/301 360/191/301 370/192/301 368/193/301 366/194/301 364/195/301
f 367/189/302 368/188/302 370/196/302 369/197/302
f 369/197/303 370/196/303 360/198/303 359/199/303
f 359/200/304 361/201/304 363/202/304 365/203/304 367/204/304 369/205/304
f 371/180/297 372/181/297 374/182/297 373/183/297
f 373/183/298 374/182/298 376/184/298 375/185/298
f 375/185/299 376/184/299 378/186/299 377/187/299
f 377/187/300 378/186/300 380/188/300 379/189/300
f 374/190/301 372/191/301 382/192/301 380/193/301 378/194/301 376/195/301
f 379/189/302 380/188/302 382/196/302 381/197/302
f 381/197/303 382/196/303 372/198/303 371/199/303
f 371/200/304 373/201/304 375/202/304 377/203/304 379/204/304 381/205/304
f 383/180/297 384/181/297 386/182/297 385/183/297
f 385/183/298 386/182/298 388/184/298 387/185/298
f 387/185/299 388/184/299 390/186/299 389/187/299
f 389/187/300 390/186/300 392/188/300 391/189/300
f 386/190/301 384/191/301 394/192/301 392/193/301 390/194/301 388/195/301
f 391/189/302 392/188/302 394/196/302 393/197/302
f 393/197/303 394/196/303 384/198/303 383/199/303
f 383/200/304 385/201/304 387/202/304 389/203/304 391/204/304 393/205/304
f 395/180/297 396/181/297 398/182/297 397/183/297
f 397/183/298 398/182/298 400/184/298 399/185/298
f 399/185/299 400/184/299 402/186/299 401/187/299
f 401/187/300 402/186/300 404/188/300 403/189/300
f 398/190/301 396/191/301 406/192/301 404/193/301 402/194/301 400/195/301
f 403/189/302 404/188/302 406/196/302 405/197/302
f 405/197/303 406/196/303 396/198/303 395/199/303
f 395/200/304 397/201/304 399/202/304 401/203/304 403/204/304 405/205/304
f 407/180/297 408/181/297 410/182/297 409/183/297
f 409/183/298 410/182/298 412/184/298 411/185/298
f 411/185/299 412/184/299 414/186/299 413/187/299
f 413/187/300 414/186/300 416/188/300 415/189/300
f 410/190/301 408/191/301 418/192/301 416/193/301 414/194/301 412/195/301
f 415/189/302 416/188/302 418/196/302 417/197/302
f 417/197/303 418/196/303 408/198/303 407/199/303
f 407/200/304 409/201/304 411/202/304 413/203/304 415/204/304 417/205/304
f 419/180/305 420/181/305 422/182/305 421/183/305
f 421/183/306 422/182/306 424/184/306 423/185/306
f 423/185/307 424/184/307 426/186/307 425/187/307
f 425/187/308 426/186/308 428/188/308 427/189/308
f 422/190/309 420/191/309 430/192/309 428/193/309 426/194/309 424/195/309
f 427/189/310 428/188/310 430/196/310 429/197/310
f 429/197/311 430/196/311 420/198/311 419/199/311
f 419/200/312 421/201/312 423/202/312 425/203/312 427/204/312 429/205/312
f 431/180/305 432/181/305 434/182/305 433/183/305
f 433/183/306 434/182/306 436/184/306 435/185/306
f 435/185/307 436/184/307 438/186/307 437/187/307
f 437/187/308 438/186/308 440/188/308 439/189/308
f 434/190/309 432/191/309 442/192/309 440/193/309 438/194/309 436/195/309
f 439/189/310 440/188/310 442/196/310 441/197/310
f 441/197/311 442/196/311 432/198/311 431/199/311
f 431/200/312 433/201/312 435/202/312 437/203/312 439/204/312 441/205/312
f 443/180/305 444/181/305 446/182/305 445/183/305
f 445/183/306 446/182/306 448/184/306 447/185/306
f 447/185/307 448/184/307 450/186/307 449/187/307
f 449/187/308 450/186/308 452/188/308 451/189/308
f 446/190/309 444/191/309 454/192/309 452/193/309 450/194/309 448/195/309
f 451/189/310 452/188/310 454/196/310 453/197/310
f 453/197/311 454/196/311 444/198/311 443/199/311
f 443/200/312 445/201/312 447/202/312 449/203/312 451/204/312 453/205/312
f 455/180/313 456/181/313 458/182/313 457/183/313
f 457/183/314 458/182/314 460/184/314 459/185/314
f 459/185/315 460/184/315 462/186/315 461/187/315
f 461/187/316 462/186/316 464/188/316 463/189/316
f 458/190/317 456/191/317 466/192/317 464/193/317 462/194/317 460/195/317
f 463/189/318 464/188/318 466/196/318 465/197/318
f 465/197/319 466/196/319 456/198/319 455/199/319
f 455/200/320 457/201/320 459/202/320 461/203/320 463/204/320 465/205/320
f 467/180/313 468/181/313 470/182/313 469/183/313
f 469/183/314 470/182/314 472/184/314 471/185/314
f 471/185/315 472/184/315 474/186/315 473/187/315
f 473/187/316 474/186/316 476/188/316 475/189/316
f 470/190/317 468/191/317 478/192/317 476/193/317 474/194/317 472/195/317
f 475/189/318 476/188/318 478/196/318 477/197/318
f 477/197/319 478/196/319 468/198/319 467/199/319
f 467/200/320 469/201/320 471/202/320 473/203/320 475/204/320 477/205/320
f 479/180/313 480/181/313 482/182/313 481/183/313
f 481/183/314 482/182/314 484/184/314 483/185/314
f 483/185/315 484/184/315 486/186/315 485/187/315
f 485/187/316 486/186/316 488/188/316 487/189/316
f 482/190/317 480/191/317 490/192/317 488/193/317 486/194/317 484/195/317
f 487/189/318 488/188/318 490/196/318 489/197/318
f 489/197/319 490/196/319 480/198/319 479/199/319
f 479/200/320 481/201/320 483/202/320 485/203/320 487/204/320 489/205/320
f 491/180/313 492/181/313 494/182/313 493/183/313
f 493/183/314 494/182/314 496/184/314 495/185/314
f 495/185/315 496/184/315 498/186/315 497/187/315
f 497/187/316 498/186/316 500/188/316 499/189/316
f 494/190/317 492/191/317 502/192/317 500/193/317 498/194/317 496/195/317
f 499/189/318 500/188/318 502/196/318 501/197/318
f 501/197/319 502/196/319 492/198/319 491/199/319
f 491/200/320 493/201/320 495/202/320 497/203/320 499/204/320 501/205/320
f 503/180/321 504/181/321 506/182/321 505/183/321
f 505/183/322 506/182/322 508/184/322 507/185/322
f 507/185/323 508/184/323 510/186/323 509/187/323
f 509/187/324 510/186/324 512/188/324 511/189/324
f 506/190/325 504/191/325 514/192/325 512/193/325 510/194/325 508/195/325
f 511/189/326 512/188/326 514/196/326 513/197/326
f 513/197/327 514/196/327 504/198/327 503/199/327
f 503/200/328 505/201/328 507/202/328 509/203/328 511/204/328 513/205/328
f 515/180/321 516/181/321 518/182/321 517/183/321
f 517/183/322 518/182/322 520/184/322 519/185/322
f 519/185/323 520/184/323 522/186/323 521/187/323
f 521/187/324 522/186/324 524/188/324 523/189/324
f 518/190/325 516/191/325 526/192/325 524/193/325 522/194/325 520/195/325
f 523/189/326 524/188/326 526/196/326 525/197/326
f 525/197/327 526/196/327 516/198/327 515/199/327
f 515/200/328 517/201/328 519/202/328 521/203/328 523/204/328 525/205/328
f 527/180/321 528/181/321 530/182/321 529/183/321
f 529/183/322 530/182/322 532/184/322 531/185/322
f 531/185/323 532/184/323 534/186/323 533/187/323
f 533/187/324 534/186/324 536/188/324 535/189/324
f 530/190/325 528/191/325 538/192/325 536/193/325 534/194/325 532/195/325
f 535/189/326 536/188/326 538/196/326 537/197/326
f 537/197/327 538/196/327 528/198/327 527/199/327
f 527/200/328 529/201/328 531/202/328 533/203/328 535/204/328 537/205/328
f 539/180/329 540/181/329 542/182/329 541/183/329
f 541/183/330 542/182/330 544/184/330 543/185/330
f 543/185/331 544/184/331 546/186/331 545/187/331
f 545/187/332 546/186/332 548/188/332 547/189/332
f 542/190/333 540/191/333 550/192/333 548/193/333 546/194/333 544/195/333
f 547/189/334 548/188/334 550/196/334 549/197/334
f 549/197/335 550/196/335 540/198/335 539/199/335
f 539/200/336 541/201/336 543/202/336 545/203/336 547/204/336 549/205/336
f 551/180/329 552/181/329 554/182/329 553/183/329
f 553/183/330 554/182/330 556/184/330 555/185/330
f 555/185/331 556/184/331 558/186/331 557/187/331
f 557/187/332 558/186/332 560/188/332 559/189/332
f 554/190/333 552/191/333 562/192/333 560/193/333 558/194/333 556/195/333
f 559/189/334 560/188/334 562/196/334 561/197/334
f 561/197/335 562/196/335 552/198/335 551/199/335
f 551/200/336 553/201/336 555/202/336 557/203/336 559/204/336 561/205/336
f 563/180/329 564/181/329 566/182/329 565/183/329
f 565/183/330 566/182/330 568/184/330 567/185/330
f 567/185/331 568/184/331 570/186/331 569/187/331
f 569/187/332 570/186/332 572/188/332 571/189/332
f 566/190/333 564/191/333 574/192/333 572/193/333 570/194/333 568/195/333
f 571/189/334 572/188/334 574/196/334 573/197/334
f 573/197/335 574/196/335 564/198/335 563/199/335
f 563/200/336 565/201/336 567/202/336 569/203/336 571/204/336 573/205/336
f 575/180/329 576/181/329 578/182/329 577/183/329
f 577/183/330 578/182/330 580/184/330 579/185/330
f 579/185/331 580/184/331 582/186/331 581/187/331
f 581/187/332 582/186/332 584/188/332 583/189/332
f 578/190/333 576/191/333 586/192/333 584/193/333 582/194/333 580/195/333
f 583/189/334 584/188/334 586/196/334 585/197/334
f 585/197/335 586/196/335 576/198/335 575/199/335
f 575/200/336 577/201/336 579/202/336 581/203/336 583/204/336 585/205/336
f 587/180/337 588/181/337 590/182/337 589/183/337
f 589/183/338 590/182/338 592/184/338 591/185/338
f 591/185/339 592/184/339 594/186/339 593/187/339
f 593/187/340 594/186/340 596/188/340 595/189/340
f 590/190/341 588/191/341 598/192/341 596/193/341 594/194/341 592/195/341
f 595/189/342 596/188/342 598/196/342 597/197/342
f 597/197/343 598/196/343 588/198/343 587/199/343
f 587/200/344 589/201/344 591/202/344 593/203/344 595/204/344 597/205/344
f 599/180/337 600/181/337 602/182/337 601/183/337
f 601/183/338 602/182/338 604/184/338 603/185/338
f 603/185/339 604/184/339 606/186/339 605/187/339
f 605/187/340 606/186/340 608/188/340 607/189/340
f 602/190/341 600/191/341 610/192/341 608/193/341 606/194/341 604/195/341
f 607/189/342 608/188/342 610/196/342 609/197/342
f 609/197/343 610/196/343 600/198/343 599/199/343
f 599/200/344 601/201/344 603/202/344 605/203/344 607/204/344 609/205/344
f 611/180/337 612/181/337 614/182/337 613/183/337
f 613/183/338 614/182/338 616/184/338 615/185/338
f 615/185/339 616/184/339 618/186/339 617/187/339
f 617/187/340 618/186/340 620/188/340 619/189/340
f 614/190/341 612/191/341 622/192/341 620/193/341 618/194/341 616/195/341
f 619/189/342 620/188/342 622/196/342 621/197/342
f 621/197/343 622/196/343 612/198/343 611/199/343
f 611/200/344 613/201/344 615/202/344 617/203/344 619/204/344 621/205/344
f 623/180/337 624/181/337 626/182/337 625/183/337
f 625/183/338 626/182/338 628/184/338 627/185/338
f 627/185/339 628/184/339 630/186/339 629/187/339
f 629/187/340 630/186/340 632/188/340 631/189/340
f 626/190/341 624/191/341 634/192/341 632/193/341 630/194/341 628/195/341
f 631/189/342 632/188/342 634/196/342 633/197/342
f 633/197/343 634/196/343 624/198/343 623/199/343
f 623/200/344 625/201/344 627/202/344 629/203/344 631/204/344 633/205/344
f 635/180/337 636/181/337 638/182/337 637/183/337
f 637/183/338 638/182/338 640/184/338 639/185/338
f 639/185/339 640/184/339 642/186/339 641/187/339
f 641/187/340 642/186/340 644/188/340 643/189/340
f 638/190/341 636/191/341 646/192/341 644/193/341 642/194/341 640/195/341
f 643/189/342 644/188/342 646/196/342 645/197/342
f 645/197/343 646/196/343 636/198/343 635/199/343
f 635/200/344 637/201/344 639/202/344 641/203/344 643/204/344 645/205/344
f 647/180/345 648/181/345 650/182/345 649/183/345
f 649/183/346 650/182/346 652/184/346 651/185/346
f 651/185/347 652/184/347 654/186/347 653/187/347
f 653/187/348 654/186/348 656/188/348 655/189/348
f 650/190/349 648/191/349 658/192/349 656/193/349 654/194/349 652/195/349
f 655/189/350 656/188/350 658/196/350 657/197/350
f 657/197/351 658/196/351 648/198/351 647/199/351
f 647/200/352 649/201/352 651/202/352 653/203/352 655/204/352 657/205/352
f 659/180/345 660/181/345 662/182/345 661/183/345
f 661/183/346 662/182/346 664/184/346 663/185/346
f 663/185/347 664/184/347 666/186/347 665/187/347
f 665/187/348 666/186/348 668/188/348 667/189/348
f 662/190/349 660/191/349 670/192/349 668/193/349 666/194/349 664/195/349
f 667/189/350 668/188/350 670/196/350 669/197/350
f 669/197/351 670/196/351 660/198/351 659/199/351
f 659/200/352 661/201/352 663/202/352 665/203/352 667/204/352 669/205/352
f 671/180/345 672/181/345 674/182/345 673/183/345
f 673/183/346 674/182/346 676/184/346 675/185/346
f 675/185/347 676/184/347 678/186/347 677/187/347
f 677/187/348 678/186/348 680/188/348 679/189/348
f 674/190/349 672/191/349 682/192/349 680/193/349 678/194/349 676/195/349
f 679/189/350 680/188/350 682/196/350 681/197/350
f 681/197/351 682/196/351 672/198/351 671/199/351
f 671/200/352 673/201/352 675/202/352 677/203/352 679/204/352 681/205/352
f 683/180/345 684/181/345 686/182/345 685/183/345
f 685/183/346 686/182/346 688/184/346 687/185/346
f 687/185/347 688/184/347 690/186/347 689/187/347
f 689/187/348 690/186/348 692/188/348 691/189/348
f 686/190/349 684/191/349 694/192/349 692/193/349 690/194/349 688/195/349
f 691/189/350 692/188/350 694/196/350 693/197/350
f 693/197/351 694/196/351 684/198/351 683/199/351
f 683/200/352 685/201/352 687/202/352 689/203/352 691/204/352 693/205/352
f 695/180/345 696/181/345 698/182/345 697/183/345
f 697/183/346 698/182/346 700/184/346 699/185/346
f 699/185/347 700/184/347 702/186/347 701/187/347
f 701/187/348 702/186/348 704/188/348 703/189/348
f 698/190/349 696/191/349 706/192/349 704/193/349 702/194/349 700/195/349
f 703/189/350 704/188/350 706/196/350 705/197/350
f 705/197/351 706/196/351 696/198/351 695/199/351
f 695/200/352 697/201/352 699/202/352 701/203/352 703/204/352 705/205/352
f 707/180/345 708/181/345 710/182/345 709/183/345
f 709/183/346 710/182/346 712/184/346 711/185/346
f 711/185/347 712/184/347 714/186/347 713/187/347
f 713/187/348 714/186/348 716/188/348 715/189/348
f 710/190/349 708/191/349 718/192/349 716/193/349 714/194/349 712/195/349
f 715/189/350 716/188/350 718/196/350 717/197/350
f 717/197/351 718/196/351 708/198/351 707/199/351
f 707/200/352 709/201/352 711/202/352 713/203/352 715/204/352 717/205/352
f 719/180/353 720/181/353 722/182/353 721/183/353
f 721/183/354 722/182/354 724/184/354 723/185/354
f 723/185/355 724/184/355 726/186/355 725/187/355
f 725/187/356 726/186/356 728/188/356 727/189/356
f 722/190/357 720/191/357 730/192/357 728/193/357 726/194/357 724/195/357
f 727/189/358 728/188/358 730/196/358 729/197/358
f 729/197/359 730/196/359 720/198/359 719/199/359
f 719/200/360 721/201/360 723/202/360 725/203/360 727/204/360 729/205/360
f 731/180/353 732/181/353 734/182/353 733/183/353
f 733/183/354 734/182/354 736/184/354 735/185/354
f 735/185/355 736/184/355 738/186/355 737/187/355
f 737/187/356 738/186/356 740/188/356 739/189/356
f 734/190/357 732/191/357 742/192/357 740/193/357 738/194/357 736/195/357
f 739/189/358 740/188/358 742/196/358 741/197/358
f 741/197/359 742/196/359 732/198/359 731/199/359
f 731/200/360 733/201/360 735/202/360 737/203/360 739/204/360 741/205/360
f 743/180/353 744/181/353 746/182/353 745/183/353
f 745/183/354 746/182/354 748/184/354 747/185/354
f 747/185/355 748/184/355 750/186/355 749/187/355
f 749/187/356 750/186/356 752/188/356 751/189/356
f 746/190/357 744/191/357 754/192/357 752/193/357 750/194/357 748/195/357
f 751/189/358 752/188/358 754/196/358 753/197/358
f 753/197/359 754/196/359 744/198/359 743/199/359
f 743/200/360 745/201/360 747/202/360 749/203/360 751/204/360 753/205/360
f 755/180/353 756/181/353 758/182/353 757/183/353
f 757/183/354 758/182/354 760/184/354 759/185/354
f 759/185/355 760/184/355 762/186/355 761/187/355
f 761/187/356 762/186/356 764/188/356 763/189/356
f 758/190/357 756/191/357 766/192/357 764/193/357 762/194/357 760/195/357
f 763/189/358 764/188/358 766/196/358 765/197/358
f 765/197/359 766/196/359 756/198/359 755/199/359
f 755/200/360 757/201/360 759/202/360 761/203/360 763/204/360 765/205/360
f 767/180/361 768/181/361 770/182/361 769/183/361
f 769/183/362 770/182/362 772/184/362 771/185/362
f 771/185/363 772/184/363 774/186/363 773/187/363
f 773/187/364 774/186/364 776/188/364 775/189/364
f 770/190/365 768/191/365 778/192/365 776/193/365 774/194/365 772/195/365
f 775/189/366 776/188/366 778/196/366 777/197/366
f 777/197/367 778/196/367 768/198/367 767/199/367
f 767/200/368 769/201/368 771/202/368 773/203/368 775/204/368 777/205/368
f 779/180/361 780/181/361 782/182/361 781/183/361
f 781/183/362 782/182/362 784/184/362 783/185/362
f 783/185/363 784/184/363 786/186/363 785/187/363
f 785/187/364 786/186/364 788/188/364 787/189/364
f 782/190/365 780/191/365 790/192/365 788/193/365 786/194/365 784/195/365
f 787/189/366 788/188/366 790/196/366 789/197/366
f 789/197/367 790/196/367 780/198/367 779/199/367
f 779/200/368 781/201/368 783/202/368 785/203/368 787/204/368 789/205/368
f 791/180/361 792/181/361 794/182/361 793/183/361
f 793/183/362 794/182/362 796/184/362 795/185/362
f 795/185/363 796/184/363 798/186/363 797/187/363
f 797/187/364 798/186/364 800/188/364 799/189/364
f 794/190/365 792/191/365 802/192/365 800/193/365 798/194/365 796/195/365
f 799/189/366 800/188/366 802/196/366 801/197/366
f 801/197/367 802/196/367 792/198/367 791/199/367
f 791/200/368 793/201/368 795/202/368 797/203/368 799/204/368 801/205/368
f 803/180/361 804/181/361 806/182/361 805/183/361
f 805/183/362 806/182/362 808/184/362 807/185/362
f 807/185/363 808/184/363 810/186/363 809/187/363
f 809/187/364 810/186/364 812/188/364 811/189/364
f 806/190/365 804/191/365 814/192/365 812/193/365 810/194/365 808/195/365
f 811/189/366 812/188/366 814/196/366 813/197/366
f 813/197/367 814/196/367 804/198/367 803/199/367
f 803/200/368 805/201/368 807/202/368 809/203/368 811/204/368 813/205/368
f 815/180/361 816/181/361 818/182/361 817/183/361
f 817/183/362 818/182/362 820/184/362 819/185/362
f 819/185/363 820/184/363 822/186/363 821/187/363
f 821/187/364 822/186/364 824/188/364 823/189/364
f 818/190/365 816/191/365 826/192/365 824/193/365 822/194/365 820/195/365
f 823/189/366 824/188/366 826/196/366 825/197/366
f 825/197/367 826/196/367 816/198/367 815/199/367
f 815/200/368 817/201/368 819/202/368 821/203/368 823/204/368 825/205/368
f 827/180/361 828/181/361 830/182/361 829/183/361
f 829/183/362 830/182/362 832/184/362 831/185/362
f 831/185/363 832/184/363 834/186/363 833/187/363
f 833/187/364 834/186/364 836/188/364 835/189/364
f 830/190/365 828/191/365 838/192/365 836/193/365 834/194/365 832/195/365
f 835/189/366 836/188/366 838/196/366 837/197/366
f 837/197/367 838/196/367 828/198/367 827/199/367
f 827/200/368 829/201/368 831/202/368 833/203/368 835/204/368 837/205/368
f 839/180/369 840/181/369 842/182/369 841/183/369
f 841/183/370 842/182/370 844/184/370 843/185/370
f 843/185/371 844/184/371 846/186/371 845/187/371
f 845/187/372 846/186/372 848/188/372 847/189/372
f 842/190/373 840/191/373 850/192/373 848/193/373 846/194/373 844/195/373
f 847/189/374 848/188/374 850/196/374 849/197/374
f 849/197/375 850/196/375 840/198/375 839/199/375
f 839/200/376 841/201/376 843/202/376 845/203/376 847/204/376 849/205/376
f 851/180/369 852/181/369 854/182/369 853/183/369
f 853/183/370 854/182/370 856/184/370 855/185/370
f 855/185/371 856/184/371 858/186/371 857/187/371
f 857/187/372 858/186/372 860/188/372 859/189/372
f 854/190/373 852/191/373 862/192/373 860/193/373 858/194/373 856/195/373
f 859/189/374 860/188/374 862/196/374 861/197/374
f 861/197/375 862/196/375 852/198/375 851/199/375
f 851/200/376 853/201/376 855/202/376 857/203/376 859/204/376 861/205/376
f 863/180/369 864/181/369 866/182/369 865/183/369
f 865/183/370 866/182/370 868/184/370 867/185/370
f 867/185/371 868/184/371 870/186/371 869/187/371
f 869/187/372 870/186/372 872/188/372 871/189/372
f 866/190/373 864/191/373 874/192/373 872/193/373 870/194/373 868/195/373
f 871/189/374 872/188/374 874/196/374 873/197/374
f 873/197/375 874/196/375 864/198/375 863/199/375
f 863/200/376 865/201/376 867/202/376 869/203/376 871/204/376 873/205/376
f 875/180/369 876/181/369 878/182/369 877/183/369
f 877/183/370 878/182/370 880/184/370 879/185/370
f 879/185/371 880/184/371 882/186/371 881/187/371
f 881/187/372 882/186/372 884/188/372 883/189/372
f 878/190/373 876/191/373 886/192/373 884/193/373 882/194/373 880/195/373
f 883/189/374 884/188/374 886/196/374 885/197/374
f 885/197/375 886/196/375 876/198/375 875/199/375
f 875/200/376 877/201/376 879/202/376 881/203/376 883/204/376 885/205/376
f 887/180/377 888/181/377 890/182/377 889/183/377
f 889/183/378 890/182/378 892/184/378 891/185/378
f 891/185/379 892/184/379 894/186/379 893/187/379
f 893/187/380 894/186/380 896/188/380 895/189/380
f 890/190/381 888/191/381 898/192/381 896/193/381 894/194/381 892/195/381
f 895/189/382 896/188/382 898/196/382 897/197/382
f 897/197/383 898/196/383 888/198/383 887/199/383
f 887/200/384 889/201/384 891/202/384 893/203/384 895/204/384 897/205/384
f 899/180/377 900/181/377 902/182/377 901/183/377
f 901/183/378 902/182/378 904/184/378 903/185/378
f 903/185/379 904/184/379 906/186/379 905/187/379
f 905/187/380 906/186/380 908/188/380 907/189/380
f 902/190/381 900/191/381 910/192/381 908/193/381 906/194/381 904/195/381
f 907/189/382 908/188/382 910/196/382 909/197/382
f 909/197/383 910/196/383 900/198/383 899/199/383
f 899/200/384 901/201/384 903/202/384 905/203/384 907/204/384 909/205/384
f 911/180/377 912/181/377 914/182/377 913/183/377
f 913/183/378 914/182/378 916/184/378 915/185/378
f 915/185/379 916/184/379 918/186/379 917/187/379
f 917/187/380 918/186/380 920/188/380 919/189/380
f 914/190/381 912/191/381 922/192/381 920/193/381 918/194/381 916/195/381
f 919/189/382 920/188/382 922/196/382 921/197/382
f 921/197/383 922/196/383 912/198/383 911/199/383
f 911/200/384 913/201/384 915/202/384 917/203/384 919/204/384 921/205/384
f 923/180/377 924/181/377 926/182/377 925/183/377
f 925/183/378 926/182/378 928/184/378 927/185/378
f 927/185/379 928/184/379 930/186/379 929/187/379
f 929/187/380 930/186/380 932/188/380 931/189/380
f 926/190/381 924/191/381 934/192/381 932/193/381 930/194/381 928/195/381
f 931/189/382 932/188/382 934/196/382 933/197/382
f 933/197/383 934/196/383 924/198/383 923/199/383
f 923/200/384 925/201/384 927/202/384 929/203/384 931/204/384 933/205/384
f 935/180/385 936/181/385 938/182/385 937/183/385
f 937/183/386 938/182/386 940/184/386 939/185/386
f 939/185/387 940/184/387 942/186/387 941/187/387
f 941/187/388 942/186/388 944/188/388 943/189/388
f 938/190/389 936/191/389 946/192/389 944/193/389 942/194/389 940/195/389
f 943/189/390 944/188/390 946/196/390 945/197/390
f 945/197/391 946/196/391 936/198/391 935/199/391
f 935/200/392 937/201/392 939/202/392 941/203/392 943/204/392 945/205/392
f 947/180/385 948/181/385 950/182/385 949/183/385
f 949/183/386 950/182/386 952/184/386 951/185/386
f 951/185/387 952/184/387 954/186/387 953/187/387
f 953/187/388 954/186/388 956/188/388 955/189/388
f 950/190/389 948/191/389 958/192/389 956/193/389 954/194/389 952/195/389
f 955/189/390 956/188/390 958/196/390 957/197/390
f 957/197/391 958/196/391 948/198/391 947/199/391
f 947/200/392 949/201/392 951/202/392 953/203/392 955/204/392 957/205/392
f 959/180/385 960/181/385 962/182/385 961/183/385
f 961/183/386 962/182/386 964/184/386 963/185/386
f 963/185/387 964/184/387 966/186/387 965/187/387
f 965/187/388 966/186/388 968/188/388 967/189/388
f 962/190/389 960/191/389 970/192/389 968/193/389 966/194/389 964/195/389
f 967/189/390 968/188/390 970/196/390 969/197/390
f 969/197/391 970/196/391 960/198/391 959/199/391
f 959/200/392 961/201/392 963/202/392 965/203/392 967/204/392 969/205/392
f 971/180/385 972/181/385 974/182/385 973/183/385
f 973/183/386 974/182/386 976/184/386 975/185/386
f 975/185/387 976/184/387 978/186/387 977/187/387
f 977/187/388 978/186/388 980/188/388 979/189/388
f 974/190/389 972/191/389 982/192/389 980/193/389 978/194/389 976/195/389
f 979/189/390 980/188/390 982/196/390 981/197/390
f 981/197/391 982/196/391 972/198/391 971/199/391
f 971/200/392 973/201/392 975/202/392 977/203/392 979/204/392 981/205/392
f 983/180/385 984/181/385 986/182/385 985/183/385
f 985/183/386 986/182/386 988/184/386 987/185/386
f 987/185/387 988/184/387 990/186/387 989/187/387
f 989/187/388 990/186/388 992/188/388 991/189/388
f 986/190/389 984/191/389 994/192/389 992/193/389 990/194/389 988/195/389
f 991/189/390 992/188/390 994/196/390 993/197/390
f 993/197/391 994/196/391 984/198/391 983/199/391
f 983/200/392 985/201/392 987/202/392 989/203/392 991/204/392 993/205/392
f 995/180/385 996/181/385 998/182/385 997/183/385
f 997/183/386 998/182/386 1000/184/386 999/185/386
f 999/185/387 1000/184/387 1002/186/387 1001/187/387
f 1001/187/388 1002/186/388 1004/188/388 1003/189/388
f 998/190/389 996/191/389 1006/192/389 1004/193/389 1002/194/389 1000/195/389
f 1003/189/390 1004/188/390 1006/196/390 1005/197/390
f 1005/197/391 1006/196/391 996/198/391 995/199/391
f 995/200/392 997/201/392 999/202/392 1001/203/392 1003/204/392 1005/205/392
f 1007/180/393 1008/181/393 1010/182/393 1009/183/393
f 1009/183/394 1010/182/394 1012/184/394 1011/185/394
f 1011/185/395 1012/184/395 1014/186/395 1013/187/395
f 1013/187/396 1014/186/396 1016/188/396 1015/189/396
f 1010/190/397 1008/191/397 1018/192/397 1016/193/397 1014/194/397 1012/195/397
f 1015/189/398 1016/188/398 1018/196/398 1017/197/398
f 1017/197/399 1018/196/399 1008/198/399 1007/199/399
f 1007/200/400 1009/201/400 1011/202/400 1013/203/400 1015/204/400 1017/205/400
f 1019/180/393 1020/181/393 1022/182/393 1021/183/393
f 1021/183/394 1022/182/394 1024/184/394 1023/185/394
f 1023/185/395 1024/184/395 1026/186/395 1025/187/395
f 1025/187/396 1026/186/396 1028/188/396 1027/189/396
f 1022/190/397 1020/191/397 1030/192/397 1028/193/397 1026/194/397 1024/195/397
f 1027/189/398 1028/188/398 1030/196/398 1029/197/398
f 1029/197/399 1030/196/399 1020/198/399 1019/199/399
f 1019/200/400 1021/201/400 1023/202/400 1025/203/400 1027/204/400 1029/205/400
f 1031/180/393 1032/181/393 1034/182/393 1033/183/393
f 1033/183/394 1034/182/394 1036/184/394 1035/185/394
f 1035/185/395 1036/184/395 1038/186/395 1037/187/395
f 1037/187/396 1038/186/396 1040/188/396 1039/189/396
f 1034/190/397 1032/191/397 1042/192/397 1040/193/397 1038/194/397 1036/195/397
f 1039/189/398 1040/188/398 1042/196/398 1041/197/398
f 1041/197/399 1042/196/399 1032/198/399 1031/199/399
f 1031/200/400 1033/201/400 1035/202/400 1037/203/400 1039/204/400 1041/205/400
f 1043/180/393 1044/181/393 1046/182/393 1045/183/393
f 1045/183/394 1046/182/394 1048/184/394 1047/185/394
f 1047/185/395 1048/184/395 1050/186/395 1049/187/395
f 1049/187/396 1050/186/396 1052/188/396 1051/189/396
f 1046/190/397 1044/191/397 1054/192/397 1052/193/397 1050/194/397 1048/195/397
f 1051/189/398 1052/188/398 1054/196/398 1053/197/398
f 1053/197/399 1054/196/399 1044/198/399 1043/199/399
f 1043/200/400 1045/201/400 1047/202/400 1049/203/400 1051/204/400 1053/205/400
f 1055/180/401 1056/181/401 1058/182/401 1057/183/401
f 1057/183/402 1058/182/402 1060/184/402 1059/185/402
f 1059/185/403 1060/184/403 1062/186/403 1061/187/403
f 1061/187/404 1062/186/404 1064/188/404 1063/189/404
f 1058/190/405 1056/191/405 1066/192/405 1064/193/405 1062/194/405 1060/195/405
f 1063/189/406 1064/188/406 1066/196/406 1065/197/406
f 1065/197/407 1066/196/407 1056/198/407 1055/199/407
f 1055/200/408 1057/201/408 1059/202/408 1061/203/408 1063/204/408 1065/205/408
f 1067/180/401 1068/181/401 1070/182/401 1069/183/401
f 1069/183/402 1070/182/402 1072/184/402 1071/185/402
f 1071/185/403 1072/184/403 1074/186/403 1073/187/403
f 1073/187/404 1074/186/404 1076/188/404 1075/189/404
f 1070/190/405 1068/191/405 1078/192/405 1076/193/405 1074/194/405 1072/195/405
f 1075/189/406 1076/188/406 1078/196/406 1077/197/406
f 1077/197/407 1078/196/407 1068/198/407 1067/199/407
f 1067/200/408 1069/201/408 1071/202/408 1073/203/408 1075/204/408 1077/205/408
f 1079/180/401 1080/181/401 1082/182/401 1081/183/401
f 1081/183/402 1082/182/402 1084/184/402 1083/185/402
f 1083/185/403 1084/184/403 1086/186/403 1085/187/403
f 1085/187/404 1086/186/404 1088/188/404 1087/189/404
f 1082/190/405 1080/191/405 1090/192/405 1088/193/405 1086/194/405 1084/195/405
f 1087/189/406 1088/188/406 1090/196/406 1089/197/406
f 1089/197/407 1090/196/407 1080/198/407 1079/199/407
f 1079/200/408 1081/201/408 1083/202/408 1085/203/408 1087/204/408 1089/205/408
f 1091/180/401 1092/181/401 1094/182/401 1093/183/401
f 1093/183/402 1094/182/402 1096/184/402 1095/185/402
f 1095/185/403 1096/184/403 1098/186/403 1097/187/403
f 1097/187/404 1098/186/404 1100/188/404 1099/189/404
f 1094/190/405 1092/191/405 1102/192/405 1100/193/405 1098/194/405 1096/195/405
f 1099/189/406 1100/188/406 1102/196/406 1101/197/406
f 1101/197/407 1102/196/407 1092/198/407 1091/199/407
f 1091/200/408 1093/201/408 1095/202/408 1097/203/408 1099/204/408 1101/205/408
f 1103/180/401 1104/181/401 1106/182/401 1105/183/401
f 1105/183/402 1106/182/402 1108/184/402 1107/185/402
f 1107/185/403 1108/184/403 1110/186/403 1109/187/403
f 1109/187/404 1110/186/404 1112/188/404 1111/189/404
f 1106/190/405 1104/191/405 1114/192/405 1112/193/405 1110/194/405 1108/195/405
f 1111/189/406 1112/188/406 1114/196/406 1113/197/406
f 1113/197/407 1114/196/407 1104/198/407 1103/199/407
f 1103/200/408 1105/201/408 1107/202/408 1109/203/408 1111/204/408 1113/205/408
