# Blender 5.0.1
# www.blender.org
mtllib water_01.mtl
o icy_planet1
v 0.083144 -0.940612 0.096338
v 0.310552 -0.734465 -0.351572
v -0.550444 -0.802065 0.168708
v 0.897436 0.243751 -0.086041
v 0.759703 -0.408850 0.315803
v 0.824594 0.455504 -0.133386
v -0.150187 -0.484163 0.737971
v 0.776504 -0.149260 0.581755
v 0.563519 0.049803 0.747556
v 0.574327 0.341173 0.656565
v -0.357203 -0.069826 0.849800
v -0.526888 0.289771 0.665328
v -0.619767 -0.097258 -0.747085
v -0.829690 -0.334770 0.066329
v -0.817791 0.312232 -0.419861
v -0.172154 0.076946 -0.900011
v 0.263581 0.830685 0.414214
v -0.123474 0.956044 -0.031423
v 0.154761 0.952321 0.133543
v -0.415819 0.773911 -0.192636
v -0.644743 0.485663 -0.430541
v 0.034857 0.843227 -0.229021
v 0.012665 0.814328 -0.509101
v 0.311865 0.868356 -0.278717
v 0.438039 0.704387 -0.373181
v 0.171950 0.643389 -0.601706
v 0.458400 0.620286 -0.660340
v 0.243029 0.402767 -0.803481
v -0.229498 0.923875 -0.218212
v -0.381022 0.755091 -0.404586
v -0.143557 0.662511 -0.639965
v -0.408928 0.569845 -0.674838
v -0.064724 0.363552 -0.820863
v -0.182639 0.878339 0.196157
v -0.530294 0.751187 0.135829
v -0.637045 0.599186 -0.218455
v -0.679576 0.476912 0.430731
v -0.689307 0.483133 0.197708
v -0.150513 0.906521 0.350773
v 0.072404 0.818886 0.604930
v -0.370416 0.706345 0.463358
v 0.057895 0.559410 0.764955
v -0.451993 0.492992 0.638433
v -0.172552 0.500736 0.742611
v 0.219159 0.915605 -0.031082
v 0.473980 0.762439 0.258757
v 0.496074 0.781627 -0.016388
v 0.655265 0.642774 0.029455
v 0.334201 0.487371 0.673288
v 0.540080 0.615585 0.587892
v 0.741776 0.488641 0.146475
v 0.704715 0.545808 0.385039
v 0.698699 0.554252 -0.352805
v 0.851630 0.102768 -0.426931
v 0.685580 0.363555 -0.469001
v 0.765714 -0.147483 -0.463515
v 0.523714 0.294852 -0.657805
v 0.631444 -0.077695 -0.712971
v 0.591945 -0.329041 -0.581431
v 0.403307 0.237843 -0.844657
v -0.345719 0.303557 -0.879389
v -0.561252 0.372943 -0.624901
v -0.386852 -0.048491 -0.870215
v -0.668670 0.198166 -0.727332
v -0.397124 -0.427155 -0.750611
v -0.497620 -0.367136 -0.598045
v -0.878600 0.105958 -0.255179
v -0.817167 0.451916 -0.094596
v -0.906591 0.360899 0.025354
v -0.964940 0.020303 0.070370
v -0.823272 0.308513 0.393772
v -0.948158 -0.128837 0.256022
v -0.161134 0.236927 0.912048
v -0.021584 -0.028433 0.832844
v 0.253527 0.349454 0.793491
v 0.155139 0.203156 0.854450
v 0.838303 0.328493 0.389053
v 0.776828 0.057317 0.448851
v 0.931381 0.111799 0.131328
v 0.170142 0.042320 -0.946908
v 0.362650 -0.021396 -0.802559
v -0.123419 -0.163787 -0.881560
v 0.393355 -0.329667 -0.851702
v 0.118210 -0.299864 -0.907776
v -0.108644 -0.433324 -0.802946
v 0.245668 -0.600630 -0.681955
v -0.872493 -0.043406 -0.546490
v -0.859867 -0.162970 -0.250833
v -0.754158 -0.308844 -0.464465
v -0.816314 0.066093 0.412293
v -0.691041 0.094916 0.631142
v -0.662854 -0.319494 0.442381
v -0.720154 -0.193896 0.730660
v -0.357506 -0.267791 0.744477
v -0.724537 -0.509150 0.256024
v -0.469289 -0.423734 0.613843
v 0.269485 0.047460 0.908457
v 0.301793 -0.193037 0.893242
v 0.493974 -0.215460 0.731198
v 0.023902 -0.376082 0.926487
v 0.279541 -0.422564 0.777196
v 0.636650 -0.341506 0.519408
v 0.897735 -0.264524 -0.163550
v 0.891489 -0.240782 0.201163
v 0.827808 -0.511652 0.087403
v 0.722586 -0.431537 -0.279934
v 0.504693 -0.563644 -0.614137
v 0.046569 -0.841555 -0.127013
v -0.111793 -0.633568 -0.645938
v -0.057947 -0.802231 -0.507865
v -0.030626 -0.970300 -0.335734
v -0.302242 -0.733021 -0.427527
v -0.636311 -0.621418 -0.426578
v -0.588190 -0.671403 -0.117915
v -0.767623 -0.434007 -0.156528
v -0.257713 -0.912513 -0.095998
v -0.388855 -0.853215 0.054289
v -0.752340 -0.534364 0.029671
v -0.483492 -0.646611 0.550603
v -0.282462 -0.772073 0.388730
v -0.113135 -0.975575 0.157715
v -0.156429 -0.677088 0.551042
v 0.574888 -0.625826 -0.299807
v 0.347081 -0.907397 -0.163383
v 0.624748 -0.622665 0.184133
v 0.381331 -0.812423 0.145628
v 0.147053 -0.701056 0.673543
v 0.474676 -0.519233 0.537993
v 0.105032 -0.833078 0.412565
v 0.454642 -0.773267 0.466609
vn 0.8531 -0.2537 -0.4559
vn 0.4976 0.8672 0.0208
vn 0.3150 0.9447 0.0912
vn 0.7995 0.5766 0.1683
vn 0.1064 0.8978 -0.4273
vn -0.1291 0.9640 -0.2323
vn 0.3644 0.6827 -0.6334
vn 0.6878 0.6783 -0.2587
vn 0.3917 0.6667 -0.6341
vn 0.6697 0.7366 -0.0945
vn 0.4971 0.8278 -0.2601
vn 0.0202 0.9599 -0.2797
vn 0.7016 0.7076 -0.0841
vn 0.5002 0.8399 -0.2105
vn -0.1091 0.6196 -0.7773
vn 0.7844 0.2825 -0.5522
vn 0.4860 0.0908 -0.8692
vn -0.1066 0.9899 -0.0937
vn 0.2660 0.9133 -0.3083
vn 0.2851 0.9509 -0.1207
vn -0.6319 0.7560 -0.1709
vn -0.3022 0.7815 -0.5459
vn -0.2268 0.8065 -0.5460
vn 0.1330 0.5650 -0.8143
vn -0.2143 0.8158 -0.5371
vn -0.6950 0.6972 -0.1760
vn -0.6395 0.6634 -0.3887
vn -0.0374 0.6356 -0.7711
vn 0.1335 0.5386 -0.8319
vn -0.0630 0.5045 -0.8611
vn -0.7213 0.4180 -0.5523
vn -0.5213 0.8399 0.1512
vn -0.6066 0.7799 0.1543
vn -0.3351 0.9408 -0.0517
vn -0.6011 0.7840 -0.1552
vn -0.5767 0.7230 0.3805
vn -0.5456 0.7469 -0.3800
vn -0.8540 0.5180 0.0495
vn -0.6736 0.7308 -0.1106
vn -0.7187 0.6953 -0.0082
vn -0.6903 0.5245 0.4983
vn -0.6789 0.6573 -0.3272
vn -0.7148 0.6431 -0.2748
vn -0.1551 0.9465 0.2829
vn 0.2079 0.9538 -0.2170
vn -0.3732 0.8771 0.3023
vn -0.6719 0.7407 0.0046
vn 0.1457 0.9677 0.2059
vn -0.3694 0.7296 0.5756
vn 0.6428 0.3758 0.6676
vn -0.3780 0.5972 0.7075
vn -0.2129 0.5215 0.8263
vn 0.3858 0.4675 0.7954
vn -0.5379 0.6481 0.5392
vn -0.2754 0.6706 0.6888
vn -0.1158 0.8942 0.4324
vn 0.3884 0.6047 0.6954
vn 0.1156 0.9781 -0.1729
vn 0.5091 0.8607 0.0072
vn 0.4381 0.8743 0.2091
vn 0.4755 0.8349 0.2770
vn 0.6365 0.7642 0.1044
vn -0.0392 0.5967 0.8015
vn 0.7414 0.6168 0.2643
vn 0.5998 0.7686 0.2225
vn 0.7008 0.7107 -0.0614
vn 0.7686 -0.4254 -0.4777
vn 0.8858 0.2124 -0.4126
vn 0.8826 0.1989 -0.4260
vn 0.8244 0.4753 -0.3074
vn 0.8560 -0.2259 -0.4649
vn 0.6623 0.3118 -0.6813
vn 0.7258 0.1404 -0.6734
vn 0.8345 -0.2122 -0.5085
vn 0.6592 0.2932 -0.6924
vn 0.7557 0.3044 -0.5799
vn 0.5314 0.6516 -0.5413
vn 0.7604 -0.3909 -0.5186
vn 0.0055 0.3688 -0.9295
vn -0.0997 0.2994 -0.9489
vn 0.0332 0.6138 -0.7888
vn 0.1567 0.2079 -0.9655
vn -0.1454 -0.1048 -0.9838
vn -0.6663 0.3483 -0.6593
vn -0.0834 -0.0929 -0.9922
vn -0.1315 -0.0105 -0.9913
vn -0.4876 0.6447 -0.5887
vn -0.4331 0.0271 -0.9010
vn -0.1770 -0.2845 -0.9422
vn -0.1686 -0.2927 -0.9412
vn -0.8511 -0.1370 -0.5068
vn -0.4644 -0.0177 -0.8855
vn -0.2924 -0.5603 -0.7750
vn -0.9303 -0.3522 -0.1023
vn -0.9725 0.2146 -0.0903
vn -0.8594 0.3328 -0.3882
vn -0.9593 -0.0712 -0.2732
vn -0.9659 0.1364 -0.2203
vn -0.6160 0.7485 0.2457
vn -0.9299 -0.3531 -0.1028
vn -0.9503 0.1949 0.2426
vn -0.9171 -0.3471 -0.1959
vn -0.7651 0.6421 0.0491
vn -0.9503 0.1950 0.2425
vn -0.6143 0.3714 0.6961
vn -0.6490 0.3299 0.6856
vn -0.3445 0.2468 0.9058
vn -0.4516 0.2292 0.8623
vn -0.4459 0.4700 0.7618
vn -0.5335 0.1730 0.8279
vn 0.0792 -0.2466 0.9659
vn 0.0922 0.5409 0.8360
vn -0.1057 0.0366 0.9937
vn 0.1998 0.2594 0.9449
vn -0.4193 -0.4259 0.8017
vn -0.1478 -0.3534 0.9237
vn 0.2063 0.4525 0.8676
vn 0.3531 0.4887 0.7978
vn 0.2254 0.2629 0.9381
vn 0.7925 0.2393 0.5609
vn 0.8027 0.1504 0.5770
vn 0.7116 -0.0064 0.7025
vn 0.6572 0.4156 0.6288
vn 0.7574 0.3525 0.5497
vn 0.8518 0.5238 0.0068
vn 0.9009 -0.1118 0.4193
vn 0.8909 0.4506 -0.0571
vn 0.9989 -0.0259 -0.0378
vn 0.8879 0.4415 0.1294
vn 0.9048 0.3615 0.2249
vn 0.2729 -0.1958 -0.9419
vn 0.1175 0.3466 -0.9306
vn 0.5387 -0.2167 -0.8141
vn 0.3040 -0.6530 -0.6937
vn 0.3449 0.1812 -0.9210
vn 0.2147 0.1746 -0.9609
vn 0.0664 0.3011 -0.9513
vn 0.7391 -0.3999 -0.5421
vn -0.2598 -0.2835 -0.9231
vn 0.6269 -0.6294 -0.4592
vn 0.2473 0.0430 -0.9680
vn 0.1048 -0.5683 -0.8161
vn -0.5947 0.5578 -0.5790
vn -0.5635 0.6472 -0.5134
vn -0.9741 0.1922 -0.1190
vn -0.9101 -0.1242 -0.3953
vn -0.5335 0.3553 -0.7675
vn -0.9975 -0.0692 0.0146
vn -0.6082 -0.4690 -0.6404
vn -0.8877 -0.4389 -0.1396
vn -0.4760 -0.5803 -0.6608
vn -0.9067 -0.3755 -0.1923
vn -0.4929 -0.2854 -0.8220
vn -0.9111 -0.3664 -0.1888
vn -0.7795 0.0254 0.6259
vn -0.6082 0.3911 0.6908
vn -0.8685 0.0129 0.4955
vn -0.8152 -0.2851 0.5042
vn -0.9781 0.0275 -0.2064
vn -0.3952 0.3346 0.8555
vn -0.6222 -0.1883 0.7599
vn -0.1282 -0.4657 0.8756
vn -0.8620 -0.5068 0.0119
vn -0.6727 -0.3956 0.6252
vn -0.6036 -0.7679 0.2146
vn -0.1471 -0.5711 0.8076
vn -0.7002 -0.1532 0.6973
vn -0.9335 -0.3420 -0.1077
vn 0.0164 0.2621 0.9649
vn 0.0463 0.3575 0.9328
vn 0.3757 0.3470 0.8593
vn 0.4635 0.2484 0.8506
vn 0.4800 0.0090 0.8772
vn 0.6161 -0.2084 0.7596
vn -0.2278 -0.0919 0.9693
vn 0.4927 -0.1817 0.8510
vn -0.0514 0.2535 0.9660
vn 0.4848 -0.5683 0.6648
vn 0.3898 -0.4453 0.8061
vn 0.5569 -0.4171 0.7182
vn -0.5107 -0.4525 0.7310
vn 0.5875 -0.4605 0.6654
vn 0.5835 -0.4619 0.6680
vn 0.7755 -0.1995 0.5990
vn 0.9897 0.0221 -0.1411
vn 0.9896 0.0223 -0.1422
vn 0.9001 -0.0156 0.4354
vn 0.9939 -0.1077 0.0240
vn 0.9698 -0.2416 0.0323
vn 0.7482 -0.4365 -0.4996
vn 0.8317 -0.3695 0.4143
vn 0.5807 -0.6007 0.5496
vn 0.7574 -0.5583 -0.3387
vn 0.4104 -0.8727 -0.2643
vn 0.2321 -0.8848 -0.4040
vn -0.2381 -0.7377 -0.6317
vn -0.0225 -0.6167 -0.7869
vn -0.0130 -0.6039 -0.7970
vn 0.3300 -0.8506 -0.4094
vn -0.0190 -0.6369 -0.7707
vn 0.5548 -0.7840 0.2784
vn 0.3997 -0.6233 -0.6721
vn -0.1543 -0.6081 -0.7787
vn -0.3951 -0.6878 -0.6089
vn -0.3095 -0.7342 -0.6042
vn -0.7788 -0.5535 -0.2953
vn -0.3970 -0.6539 -0.6440
vn -0.1654 -0.4878 -0.8572
vn -0.2878 -0.8578 -0.4258
vn 0.2462 -0.8630 0.4412
vn -0.5515 -0.7623 -0.3387
vn -0.5296 -0.8380 -0.1314
vn -0.6657 -0.7460 -0.0170
vn -0.7996 -0.5999 0.0275
vn -0.4798 -0.8205 -0.3108
vn -0.7284 -0.6545 -0.2024
vn -0.7475 -0.6084 -0.2665
vn 0.1817 -0.9251 -0.3335
vn -0.9114 -0.3815 0.1544
vn -0.8264 -0.5394 0.1616
vn -0.5134 -0.5107 0.6897
vn -0.2302 -0.8866 0.4012
vn -0.8737 -0.3775 0.3068
vn -0.4072 -0.9133 0.0050
vn -0.1130 -0.9567 0.2681
vn -0.4864 -0.8010 0.3491
vn -0.0783 -0.8327 0.5481
vn -0.0266 -0.2713 0.9621
vn -0.3813 -0.6369 0.6701
vn -0.3971 -0.4052 0.8235
vn 0.0342 -0.9115 -0.4099
vn 0.5852 -0.6597 0.4714
vn 0.7770 -0.5615 -0.2846
vn 0.7654 -0.5472 -0.3386
vn 0.3920 -0.6382 -0.6626
vn 0.4638 -0.8849 -0.0420
vn 0.7575 -0.6486 -0.0738
vn 0.5874 -0.7896 0.1776
vn -0.2410 -0.9012 -0.3602
vn 0.6047 -0.6580 0.4488
vn 0.6187 -0.7843 -0.0456
vn 0.3497 -0.9057 0.2396
vn 0.6404 -0.5250 0.5607
vn 0.8825 -0.1904 0.4299
vn -0.1609 -0.7923 0.5886
vn -0.1612 -0.7962 0.5832
vn -0.3275 -0.6520 0.6838
vn -0.3302 -0.6545 0.6801
vn 0.3776 -0.4754 0.7946
vn -0.2560 -0.8454 0.4689
vn 0.5548 -0.5089 0.6582
vn 0.5552 -0.7748 0.3026
vn -0.1036 -0.2615 0.9596
vn 0.2563 -0.9204 0.2952
vn 0.1553 -0.9842 0.0846
vn 0.3393 -0.8975 0.2817
vt 0.498699 0.143038
vt 0.478775 0.179661
vt 0.414463 0.158664
vt 0.420455 0.413334
vt 0.460821 0.398107
vt 0.440940 0.431911
vt 0.417037 0.389330
vt 0.369551 0.325165
vt 0.392022 0.317555
vt 0.391084 0.357990
vt 0.456572 0.461575
vt 0.474227 0.435037
vt 0.514420 0.361227
vt 0.500000 0.393652
vt 0.460444 0.362913
vt 0.436467 0.325133
vt 0.491424 0.333605
vt 0.531519 0.315532
vt 0.451710 0.293824
vt 0.488349 0.286181
vt 0.596591 0.403493
vt 0.610076 0.383895
vt 0.620739 0.425614
vt 0.657467 0.414150
vt 0.642405 0.454693
vt 0.673121 0.375189
vt 0.686228 0.386015
vt 0.628987 0.349984
vt 0.579435 0.361865
vt 0.663330 0.326143
vt 0.726754 0.329514
vt 0.554406 0.307951
vt 0.602618 0.297620
vt 0.693123 0.300713
vt 0.794078 0.420415
vt 0.846562 0.410262
vt 0.815180 0.445470
vt 0.787996 0.383770
vt 0.839648 0.371587
vt 0.780581 0.343079
vt 0.888088 0.325034
vt 0.879635 0.364128
vt 0.849795 0.320242
vt 0.798699 0.308341
vt 0.822856 0.291267
vt 0.753438 0.283666
vt 0.076981 0.448256
vt 0.073134 0.420893
vt 0.098727 0.454308
vt 0.091108 0.401414
vt 0.122572 0.410261
vt 0.041865 0.382864
vt 0.057770 0.364199
vt 0.123533 0.373409
vt 0.138302 0.335534
vt 0.153410 0.364128
vt 0.100059 0.318463
vt 0.168509 0.321503
vt 0.164774 0.344445
vt 0.011255 0.323976
vt 0.056645 0.318708
vt 0.246346 0.389329
vt 0.268970 0.434973
vt 0.250001 0.433017
vt 0.204546 0.354286
vt 0.216541 0.324620
vt 0.290202 0.435565
vt 0.274350 0.469573
vt 0.286144 0.374392
vt 0.249533 0.332768
vt 0.329844 0.360269
vt 0.309382 0.390917
vt 0.328275 0.324466
vt 0.286327 0.319801
vt 0.444780 0.211650
vt 0.381718 0.277452
vt 0.432085 0.250311
vt 0.388135 0.199826
vt 0.488139 0.225914
vt 0.526336 0.274216
vt 0.567953 0.245013
vt 0.617536 0.245149
vt 0.642887 0.279422
vt 0.610368 0.206507
vt 0.652889 0.230906
vt 0.696022 0.268204
vt 0.606323 0.161079
vt 0.662912 0.163131
vt 0.690795 0.172011
vt 0.694646 0.223419
vt 0.783225 0.157128
vt 0.830693 0.180121
vt 0.774461 0.206519
vt 0.777450 0.251622
vt 0.827870 0.242074
vt 0.879343 0.284212
vt 0.857818 0.218655
vt 0.040032 0.282172
vt 0.008797 0.305080
vt 0.037762 0.260435
vt 0.079629 0.222676
vt 0.108452 0.266714
vt 0.131456 0.227058
vt 0.183740 0.301386
vt 0.159185 0.272341
vt 0.077807 0.188055
vt 0.117194 0.148464
vt 0.177830 0.242820
vt 0.242113 0.287029
vt 0.230136 0.245852
vt 0.288577 0.241559
vt 0.299454 0.284079
vt 0.270780 0.210799
vt 0.342379 0.250273
vt 0.310325 0.171389
vt 0.530172 0.230880
vt 0.529758 0.189537
vt 0.565781 0.191309
vt 0.542173 0.139960
vt 0.740878 0.229708
vt 0.736863 0.188358
vt 0.732434 0.137887
vt 0.889112 0.249179
vt 0.925330 0.249303
vt 0.924373 0.282589
vt 0.901381 0.181777
vt 0.930545 0.209748
vt 0.959859 0.219574
vt 0.973400 0.186691
vt 0.873711 0.147453
vt 0.944021 0.160217
vt 0.934356 0.130818
vt 0.841065 0.133633
vt 0.145707 0.178844
vt 0.182898 0.214983
vt 0.220790 0.199370
vt 0.268483 0.172965
vt 0.186093 0.171013
vt 0.229526 0.140048
vt 0.334598 0.201972
vt 0.351468 0.158131
vt 0.516274 0.089765
vt 0.480583 0.125751
vt 0.542878 0.032917
vt 0.519004 0.053653
vt 0.591581 0.116712
vt 0.577447 0.089395
vt 0.563689 0.053309
vt 0.621107 0.131036
vt 0.701854 0.044859
vt 0.703654 0.098679
vt 0.687500 0.068889
vt 0.666598 0.119405
vt 0.686614 0.094629
vt 0.738728 0.051586
vt 0.722821 0.026521
vt 0.756756 0.071444
vt 0.766298 0.105278
vt 0.776930 0.086009
vt 0.800491 0.133079
vt 0.899402 0.016782
vt 0.918002 0.038323
vt 0.885429 0.040984
vt 0.882299 0.098180
vt 0.930332 0.087495
vt 0.888245 0.067056
vt 0.961753 0.095159
vt 0.989154 0.144815
vt 0.915761 0.011553
vt 0.332135 0.124715
vt 0.415404 0.124255
vt 0.386654 0.063797
vt 0.408781 0.084492
vt 0.342348 0.072663
vt 0.356934 0.028586
vt 0.380682 0.029524
vt 0.295905 0.123776
vt 0.311363 0.100229
vt 0.149562 0.055871
vt 0.179945 0.081585
vt 0.130240 0.099502
vt 0.166354 0.038200
vt 0.170665 0.124122
vt 0.223029 0.101539
vt 0.187188 0.030348
vt 0.207182 0.058549
s 0
usemtl icy_planet1_ground
f 107/1/1 59/2/1 106/3/1
f 46/4/2 24/5/2 45/6/2
f 47/7/3 24/5/3 46/4/3
f 51/8/4 6/9/4 48/10/4
f 18/11/5 45/6/5 22/12/5
f 24/5/6 22/12/6 45/6/6
f 24/5/7 26/13/7 23/14/7
f 47/7/8 25/15/8 24/5/8
f 24/5/9 25/15/9 26/13/9
f 48/10/10 53/16/10 47/7/10
f 47/7/11 53/16/11 25/15/11
f 25/15/12 27/17/12 26/13/12
f 48/10/13 6/9/13 53/16/13
f 53/16/14 27/17/14 25/15/14
f 27/17/15 28/18/15 26/13/15
f 53/16/16 55/19/16 27/17/16
f 27/17/17 57/20/17 28/18/17
f 24/21/18 23/22/18 22/23/18
f 22/23/19 29/24/19 18/25/19
f 23/22/20 29/24/20 22/23/20
f 30/26/21 20/27/21 29/24/21
f 23/22/22 31/28/22 29/24/22
f 31/28/23 30/26/23 29/24/23
f 26/29/24 31/28/24 23/22/24
f 31/28/25 32/30/25 30/26/25
f 30/26/26 21/31/26 20/27/26
f 32/30/27 21/31/27 30/26/27
f 28/32/28 33/33/28 26/29/28
f 26/29/29 33/33/29 31/28/29
f 33/33/30 32/30/30 31/28/30
f 32/30/31 62/34/31 21/31/31
f 29/35/32 34/36/32 18/37/32
f 29/35/33 20/38/33 34/36/33
f 20/38/34 35/39/34 34/36/34
f 36/40/35 35/39/35 20/38/35
f 35/39/36 37/41/36 41/42/36
f 21/31/37 36/40/37 20/38/37
f 38/43/38 37/41/38 35/39/38
f 36/40/39 68/44/39 35/39/39
f 68/44/40 69/45/40 35/39/40
f 35/39/41 69/45/41 38/43/41
f 21/31/42 15/46/42 36/40/42
f 15/46/43 68/44/43 36/40/43
f 18/47/44 34/48/44 19/49/44
f 39/50/45 17/51/45 34/48/45
f 35/52/46 41/53/46 34/48/46
f 41/53/47 39/50/47 34/48/47
f 39/50/48 40/54/48 17/51/48
f 41/53/49 40/54/49 39/50/49
f 40/54/50 42/55/50 17/56/50
f 41/53/51 44/57/51 40/54/51
f 44/57/52 42/55/52 40/54/52
f 42/55/53 75/58/53 49/59/53
f 37/60/54 43/61/54 41/53/54
f 41/53/55 43/61/55 44/57/55
f 17/62/56 19/63/56 34/64/56
f 42/65/57 49/66/57 17/62/57
f 19/63/58 45/67/58 18/68/58
f 19/63/59 46/69/59 45/67/59
f 19/63/60 17/62/60 46/69/60
f 50/70/61 46/69/61 17/62/61
f 46/69/62 48/71/62 47/72/62
f 49/66/63 50/70/63 17/62/63
f 46/69/64 51/73/64 48/71/64
f 50/70/65 52/74/65 46/69/65
f 52/74/66 51/73/66 46/69/66
f 106/3/67 59/2/67 56/75/67
f 4/76/68 53/16/68 6/9/68
f 4/76/69 55/19/69 53/16/69
f 4/76/70 54/77/70 55/19/70
f 103/78/71 56/75/71 54/77/71
f 54/77/72 57/20/72 55/19/72
f 55/19/73 57/20/73 27/17/73
f 56/75/74 58/79/74 54/77/74
f 54/77/75 58/79/75 57/20/75
f 58/79/76 60/80/76 57/20/76
f 57/20/77 60/80/77 28/32/77
f 56/75/78 59/2/78 58/79/78
f 80/81/79 33/33/79 28/32/79
f 80/81/80 16/82/80 33/33/80
f 61/83/81 32/30/81 33/33/81
f 16/82/82 61/83/82 33/33/82
f 80/81/83 82/84/83 16/82/83
f 61/83/84 62/34/84 32/30/84
f 82/84/85 63/85/85 16/82/85
f 63/85/86 61/83/86 16/82/86
f 61/83/87 64/86/87 62/34/87
f 61/83/88 63/85/88 64/86/88
f 85/87/89 65/88/89 82/84/89
f 82/84/90 65/88/90 63/85/90
f 65/88/91 66/89/91 63/85/91
f 13/90/92 64/86/92 63/85/92
f 66/89/93 13/90/93 63/85/93
f 115/91/94 14/92/94 88/93/94
f 67/94/95 68/44/95 15/46/95
f 67/94/96 69/45/96 68/44/96
f 88/93/97 70/95/97 67/94/97
f 70/95/98 69/45/98 67/94/98
f 69/45/99 71/96/99 38/43/99
f 88/93/100 14/92/100 70/95/100
f 70/95/101 71/96/101 69/45/101
f 14/92/102 72/97/102 70/95/102
f 38/43/103 71/96/103 37/41/103
f 72/97/104 71/96/104 70/95/104
f 12/98/105 37/60/105 71/99/105
f 12/98/106 43/61/106 37/60/106
f 12/98/107 44/57/107 43/61/107
f 91/100/108 11/101/108 12/98/108
f 12/98/109 73/102/109 44/57/109
f 11/101/110 73/102/110 12/98/110
f 74/103/111 73/102/111 11/101/111
f 73/102/112 75/104/112 44/57/112
f 75/104/113 42/55/113 44/57/113
f 73/102/114 76/105/114 75/104/114
f 94/106/115 7/107/115 11/101/115
f 74/103/116 97/108/116 73/102/116
f 73/102/117 97/108/117 76/105/117
f 75/104/118 10/109/118 49/66/118
f 10/109/119 50/70/119 49/66/119
f 10/109/120 52/74/120 50/70/120
f 9/110/121 78/111/121 10/109/121
f 78/111/122 77/112/122 10/109/122
f 10/109/123 77/112/123 52/74/123
f 8/113/124 78/111/124 9/110/124
f 77/112/125 51/73/125 52/74/125
f 79/114/126 77/112/126 78/111/126
f 77/112/127 79/114/127 51/73/127
f 5/115/128 78/111/128 8/113/128
f 79/114/129 4/76/129 51/73/129
f 4/76/130 6/9/130 51/73/130
f 58/79/131 81/116/131 60/80/131
f 60/80/132 80/81/132 28/32/132
f 60/80/133 81/116/133 80/81/133
f 81/116/134 82/84/134 80/81/134
f 58/79/135 83/117/135 81/116/135
f 83/117/136 84/118/136 81/116/136
f 81/116/137 84/118/137 82/84/137
f 59/2/138 83/117/138 58/79/138
f 84/118/139 85/87/139 82/84/139
f 59/2/140 86/119/140 83/117/140
f 59/2/141 107/1/141 86/119/141
f 83/117/142 86/119/142 84/118/142
f 62/34/143 15/46/143 21/31/143
f 62/34/144 64/86/144 15/46/144
f 87/120/145 67/94/145 15/46/145
f 64/86/146 13/90/146 15/46/146
f 13/90/147 87/120/147 15/46/147
f 87/120/148 88/93/148 67/94/148
f 13/90/149 89/121/149 87/120/149
f 89/121/150 88/93/150 87/120/150
f 66/89/151 89/121/151 13/90/151
f 89/121/152 115/91/152 88/93/152
f 66/89/153 113/122/153 89/121/153
f 113/122/154 115/91/154 89/121/154
f 72/97/155 90/123/155 71/96/155
f 91/124/156 12/125/156 71/96/156
f 71/96/157 90/123/157 91/124/157
f 90/123/158 92/126/158 91/124/158
f 92/126/159 93/127/159 91/124/159
f 91/124/160 93/127/160 11/128/160
f 72/97/161 92/126/161 90/123/161
f 93/127/162 94/129/162 11/128/162
f 14/92/163 95/130/163 72/97/163
f 72/97/164 95/130/164 92/126/164
f 92/126/165 96/131/165 93/127/165
f 96/131/166 94/129/166 93/127/166
f 92/126/167 119/132/167 96/131/167
f 115/91/168 118/133/168 14/92/168
f 11/101/169 100/134/169 74/103/169
f 76/105/170 97/108/170 75/104/170
f 75/104/171 97/108/171 10/109/171
f 97/108/172 9/110/172 10/109/172
f 97/108/173 98/135/173 9/110/173
f 98/135/174 99/136/174 9/110/174
f 74/103/175 98/135/175 97/108/175
f 99/136/176 8/113/176 9/110/176
f 74/103/177 100/134/177 98/135/177
f 99/136/178 102/137/178 8/113/178
f 100/134/179 101/138/179 98/135/179
f 98/135/180 101/138/180 99/136/180
f 11/101/181 7/107/181 100/134/181
f 101/138/182 128/139/182 99/136/182
f 99/136/183 128/139/183 102/137/183
f 5/115/184 104/140/184 78/111/184
f 79/114/185 103/78/185 4/76/185
f 4/76/186 103/78/186 54/77/186
f 78/111/187 104/140/187 79/114/187
f 104/140/188 103/78/188 79/114/188
f 105/141/189 103/78/189 104/140/189
f 103/78/190 106/3/190 56/75/190
f 5/115/191 105/141/191 104/140/191
f 8/113/192 102/137/192 5/115/192
f 105/141/193 106/3/193 103/78/193
f 2/142/194 107/1/194 123/143/194
f 2/142/195 86/119/195 107/1/195
f 108/144/196 2/142/196 124/145/196
f 109/146/197 85/87/197 86/119/197
f 86/119/198 85/87/198 84/118/198
f 2/142/199 110/147/199 86/119/199
f 110/147/200 109/146/200 86/119/200
f 108/144/201 111/148/201 2/142/201
f 111/148/202 110/147/202 2/142/202
f 109/146/203 65/149/203 85/87/203
f 111/150/204 112/151/204 110/152/204
f 109/153/205 112/151/205 65/88/205
f 112/151/206 66/89/206 65/88/206
f 110/154/207 112/151/207 109/153/207
f 112/151/208 113/122/208 66/89/208
f 112/151/209 116/155/209 113/122/209
f 108/156/210 116/155/210 111/150/210
f 111/150/211 116/155/211 112/151/211
f 116/155/212 117/157/212 113/122/212
f 117/157/213 114/158/213 113/122/213
f 113/122/214 114/158/214 115/91/214
f 117/157/215 3/159/215 114/158/215
f 114/158/216 3/159/216 118/160/216
f 114/158/217 118/160/217 115/91/217
f 108/161/218 121/162/218 116/163/218
f 118/133/219 95/130/219 14/92/219
f 3/164/220 95/130/220 118/133/220
f 95/130/221 3/164/221 92/126/221
f 120/165/222 119/132/222 3/164/222
f 3/164/223 119/132/223 92/126/223
f 116/163/224 121/162/224 117/166/224
f 117/166/225 120/165/225 3/164/225
f 121/162/226 120/165/226 117/166/226
f 120/165/227 122/167/227 119/132/227
f 119/132/228 122/167/228 96/131/228
f 122/167/229 7/168/229 96/131/229
f 96/131/230 7/168/230 94/129/230
f 108/161/231 1/169/231 121/162/231
f 5/115/232 125/170/232 105/141/232
f 106/3/233 123/171/233 107/1/233
f 105/141/234 123/171/234 106/3/234
f 123/171/235 124/172/235 2/173/235
f 105/141/236 125/170/236 123/171/236
f 125/170/237 124/172/237 123/171/237
f 125/170/238 126/174/238 124/172/238
f 124/172/239 1/175/239 108/176/239
f 5/115/240 128/177/240 125/170/240
f 130/178/241 126/174/241 125/170/241
f 126/174/242 1/175/242 124/172/242
f 102/137/243 128/177/243 5/115/243
f 128/177/244 130/178/244 125/170/244
f 120/179/245 129/180/245 122/181/245
f 121/182/246 129/180/246 120/179/246
f 122/181/247 127/183/247 7/107/247
f 7/107/248 127/183/248 100/134/248
f 127/183/249 101/138/249 100/134/249
f 122/181/250 129/180/250 127/183/250
f 127/183/251 128/139/251 101/138/251
f 129/180/252 128/139/252 127/183/252
f 129/180/253 130/184/253 128/139/253
f 121/182/254 1/185/254 129/180/254
f 126/186/255 130/184/255 129/180/255
f 1/185/256 126/186/256 129/180/256
